<svg xmlns="http://www.w3.org/2000/svg" xmlns:xlink="http://www.w3.org/1999/xlink" width="67.495" height="67.496" viewBox="0 0 67.495 67.496">
  <defs>
    <linearGradient id="linear-gradient" x1="0.5" x2="0.5" y2="1" gradientUnits="objectBoundingBox">
      <stop offset="0" stop-color="#7400b8"/>
      <stop offset="1" stop-color="#48bfe3"/>
    </linearGradient>
  </defs>
  <g id="placeholder_1_" data-name="placeholder (1)" transform="translate(-0.005 -1)">
    <g id="Group_991" data-name="Group 991" transform="translate(0.005 1)">
      <g id="Group_990" data-name="Group 990" transform="translate(0 0)">
        <path id="Path_8933" data-name="Path 8933" d="M51.27,313.536a2.811,2.811,0,0,0-1.3,5.47c8.735,2.073,11.9,5.138,11.9,6.7,0,3.361-11.215,8.437-28.123,8.437S5.63,329.062,5.63,325.7c0-1.558,3.169-4.623,11.9-6.7a2.811,2.811,0,0,0-1.3-5.47C5.767,316.016,0,320.336,0,325.7c0,9.23,16.981,14.061,33.747,14.061S67.5,334.932,67.5,325.7C67.5,320.336,61.738,316.016,51.27,313.536Z" transform="translate(-0.005 -272.267)" fill="url(#linear-gradient)"/>
        <path id="Path_8934" data-name="Path 8934" d="M237.494,134.639a2.812,2.812,0,1,0-2.812-2.812A2.813,2.813,0,0,0,237.494,134.639Z" transform="translate(-203.745 -112.139)" fill="url(#linear-gradient)"/>
        <path id="Path_8935" data-name="Path 8935" d="M122.71,53.4l1.145,2.289a2.814,2.814,0,0,0,5.034,0l2.424-4.848A194.585,194.585,0,0,1,141.42,33.695l1.6-2.523A19.681,19.681,0,0,0,124.071,1.134a19.67,19.67,0,0,0-13.561,31.2C115.28,38.794,119,45.985,122.71,53.4Zm3.662-41.152a8.437,8.437,0,1,1-8.437,8.437A8.447,8.447,0,0,1,126.372,12.251Z" transform="translate(-92.623 -1)" fill="url(#linear-gradient)"/>
      </g>
    </g>
  </g>
</svg>
