<svg id="help" xmlns="http://www.w3.org/2000/svg" xmlns:xlink="http://www.w3.org/1999/xlink" width="69" height="69" viewBox="0 0 69 69">
  <defs>
    <linearGradient id="linear-gradient" x1="0.5" x2="0.5" y2="1" gradientUnits="objectBoundingBox">
      <stop offset="0" stop-color="#7400b8"/>
      <stop offset="1" stop-color="#48bfe3"/>
    </linearGradient>
  </defs>
  <path id="Path_8963" data-name="Path 8963" d="M69,46.7A22.355,22.355,0,0,0,52.667,25.2,26.346,26.346,0,1,0,3.653,39.738L.1,52.6,12.955,49.04A26.249,26.249,0,0,0,25.2,52.666,22.311,22.311,0,0,0,58.045,65.9l10.858,3-3-10.858A22.224,22.224,0,0,0,69,46.7ZM13.593,44.668,5.9,46.8l2.129-7.7-.485-.759a22.3,22.3,0,1,1,6.813,6.813ZM63.1,63.1l-5.712-1.58-.763.5a18.268,18.268,0,0,1-27.246-9.5A26.4,26.4,0,0,0,52.518,29.384a18.268,18.268,0,0,1,9.5,27.246l-.5.763Zm0,0" fill="url(#linear-gradient)"/>
  <path id="Path_8964" data-name="Path 8964" d="M180.5,271h4.043v4.043H180.5Zm0,0" transform="translate(-156.175 -234.479)" fill="url(#linear-gradient)"/>
  <path id="Path_8965" data-name="Path 8965" d="M147.629,98.086a4,4,0,0,1-1.316,2.984l-4.748,4.346v4.933h4.043V107.2l3.435-3.144A8.086,8.086,0,1,0,135.5,98.086h4.043a4.043,4.043,0,0,1,8.086,0Zm0,0" transform="translate(-117.239 -77.871)" fill="url(#linear-gradient)"/>
</svg>
