<svg xmlns="http://www.w3.org/2000/svg" xmlns:xlink="http://www.w3.org/1999/xlink" width="52.541" height="68" viewBox="0 0 52.541 68">
  <defs>
    <linearGradient id="linear-gradient" x1="0.5" x2="0.5" y2="1" gradientUnits="objectBoundingBox">
      <stop offset="0" stop-color="#7400b8"/>
      <stop offset="1" stop-color="#48bfe3"/>
    </linearGradient>
  </defs>
  <g id="selective" transform="translate(-58.197)">
    <g id="Group_997" data-name="Group 997" transform="translate(59.312 11.953)">
      <g id="Group_996" data-name="Group 996">
        <path id="Path_8938" data-name="Path 8938" d="M117.706,100.439a2.651,2.651,0,0,0-2.344-1.408h-7.545a7.568,7.568,0,0,0-14.9,0H85.27a5.844,5.844,0,1,0-9.788,0H69.249a2.656,2.656,0,0,0-2.2,4.139l17.823,26.5v15.045a1.328,1.328,0,0,0,1.858,1.218l12.219-5.321a1.328,1.328,0,0,0,.8-1.218v-9.725l17.823-26.5A2.651,2.651,0,0,0,117.706,100.439Zm-17.341-4.994a4.922,4.922,0,0,1,4.73,3.586h-9.46A4.922,4.922,0,0,1,100.365,95.445ZM80.376,92.656a3.188,3.188,0,1,1-3.187,3.188A3.191,3.191,0,0,1,80.376,92.656Zm16.937,35.871a1.328,1.328,0,0,0-.226.741v9.26l-9.563,4.164V130.6h4.8a1.328,1.328,0,0,0,0-2.656H86.9L73.537,108.063h26.829a1.328,1.328,0,0,0,0-2.656H71.751l-2.5-3.719h46.112Z" transform="translate(-66.593 -90)" fill="url(#linear-gradient)"/>
      </g>
    </g>
    <g id="Group_999" data-name="Group 999" transform="translate(83.714)">
      <g id="Group_998" data-name="Group 998">
        <path id="Path_8939" data-name="Path 8939" d="M256.168,0a5.844,5.844,0,1,0,5.844,5.844A5.85,5.85,0,0,0,256.168,0Zm0,9.031a3.188,3.188,0,1,1,3.188-3.187A3.191,3.191,0,0,1,256.168,9.031Z" transform="translate(-250.324)" fill="url(#linear-gradient)"/>
      </g>
    </g>
    <g id="Group_1001" data-name="Group 1001" transform="translate(102.424 6.419)">
      <g id="Group_1000" data-name="Group 1000">
        <path id="Path_8940" data-name="Path 8940" d="M392.525,48.333a1.328,1.328,0,0,0-1.328,1.328v7.548a1.328,1.328,0,1,0,2.656,0V49.661A1.328,1.328,0,0,0,392.525,48.333Z" transform="translate(-391.197 -48.333)" fill="url(#linear-gradient)"/>
      </g>
    </g>
    <g id="Group_1003" data-name="Group 1003" transform="translate(102.424 2.059)">
      <g id="Group_1002" data-name="Group 1002">
        <path id="Path_8941" data-name="Path 8941" d="M393.464,15.889a1.327,1.327,0,1,0,.389.939A1.338,1.338,0,0,0,393.464,15.889Z" transform="translate(-391.197 -15.5)" fill="url(#linear-gradient)"/>
      </g>
    </g>
    <g id="Group_1005" data-name="Group 1005" transform="translate(76.283 1.694)">
      <g id="Group_1004" data-name="Group 1004">
        <path id="Path_8942" data-name="Path 8942" d="M195.7,12.755a1.328,1.328,0,0,0-1.328,1.328v5.445a1.328,1.328,0,1,0,2.656,0V14.083A1.328,1.328,0,0,0,195.7,12.755Z" transform="translate(-194.375 -12.755)" fill="url(#linear-gradient)"/>
      </g>
    </g>
    <g id="Group_1007" data-name="Group 1007" transform="translate(58.197)">
      <g id="Group_1006" data-name="Group 1006">
        <path id="Path_8943" data-name="Path 8943" d="M59.525,0A1.328,1.328,0,0,0,58.2,1.328V9.983a1.328,1.328,0,1,0,2.656,0V1.328A1.328,1.328,0,0,0,59.525,0Z" transform="translate(-58.197)" fill="url(#linear-gradient)"/>
      </g>
    </g>
    <g id="Group_1009" data-name="Group 1009" transform="translate(58.197 13.636)">
      <g id="Group_1008" data-name="Group 1008">
        <path id="Path_8944" data-name="Path 8944" d="M60.464,103.059a1.327,1.327,0,1,0,.389.939A1.333,1.333,0,0,0,60.464,103.059Z" transform="translate(-58.197 -102.67)" fill="url(#linear-gradient)"/>
      </g>
    </g>
    <g id="Group_1011" data-name="Group 1011" transform="translate(97.662 27.359)">
      <g id="Group_1010" data-name="Group 1010">
        <path id="Path_8945" data-name="Path 8945" d="M357.614,206.389a1.327,1.327,0,1,0,.389.939A1.338,1.338,0,0,0,357.614,206.389Z" transform="translate(-355.347 -206)" fill="url(#linear-gradient)"/>
      </g>
    </g>
  </g>
</svg>
