<svg xmlns="http://www.w3.org/2000/svg" xmlns:xlink="http://www.w3.org/1999/xlink" width="64.189" height="68" viewBox="0 0 64.189 68">
  <defs>
    <linearGradient id="linear-gradient" x1="0.5" x2="0.5" y2="1" gradientUnits="objectBoundingBox">
      <stop offset="0" stop-color="#7400b8"/>
      <stop offset="1" stop-color="#48bfe3"/>
    </linearGradient>
  </defs>
  <g id="settings_4_" data-name="settings (4)" transform="translate(-14.346)">
    <g id="Group_1024" data-name="Group 1024" transform="translate(14.346 17)">
      <g id="Group_1023" data-name="Group 1023" transform="translate(0)">
        <g id="Group_1022" data-name="Group 1022">
          <path id="Path_8951" data-name="Path 8951" d="M145.947,256a8.5,8.5,0,1,0,8.5,8.5A8.51,8.51,0,0,0,145.947,256Zm0,14.167a5.667,5.667,0,1,1,5.667-5.667A5.672,5.672,0,0,1,145.947,270.167Z" transform="translate(-121.098 -239)" fill="url(#linear-gradient)"/>
          <path id="Path_8952" data-name="Path 8952" d="M63.052,158.716l-4.465-3.5c.054-.564.088-1.139.088-1.714s-.034-1.165-.091-1.748l4.508-3.536a2.614,2.614,0,0,0,.586-3.34l-4.828-8.344a2.653,2.653,0,0,0-3.224-1.1l-5.25,2.111A18.948,18.948,0,0,0,47.4,135.8l-.8-5.652a2.677,2.677,0,0,0-2.6-2.15H34.376a2.7,2.7,0,0,0-2.609,2.25l-.785,5.593a19.949,19.949,0,0,0-2.972,1.734l-5.281-2.125a2.648,2.648,0,0,0-3.2,1.133l-4.8,8.31a2.632,2.632,0,0,0,.615,3.391l4.465,3.5c-.054.564-.088,1.139-.088,1.714s.034,1.164.091,1.748L15.3,158.781a2.614,2.614,0,0,0-.586,3.34l4.828,8.344a2.65,2.65,0,0,0,3.224,1.1l5.25-2.111a18.946,18.946,0,0,0,2.975,1.74l.8,5.652a2.678,2.678,0,0,0,2.6,2.15h9.633a2.7,2.7,0,0,0,2.609-2.25l.785-5.593a19.947,19.947,0,0,0,2.972-1.734l5.281,2.125a2.643,2.643,0,0,0,3.2-1.133l4.805-8.307A2.633,2.633,0,0,0,63.052,158.716ZM56.5,168.831,50.7,166.5a1.411,1.411,0,0,0-1.4.2,16.886,16.886,0,0,1-3.746,2.19,1.42,1.42,0,0,0-.844,1.1l-.7,6.179H34.546l-.861-6.145a1.417,1.417,0,0,0-.856-1.108,16.143,16.143,0,0,1-3.737-2.184,1.417,1.417,0,0,0-1.4-.2l-5.805,2.337-4.638-8.015,4.93-3.865a1.423,1.423,0,0,0,.533-1.3,16.8,16.8,0,0,1-.161-2.193,16.239,16.239,0,0,1,.159-2.15,1.418,1.418,0,0,0-.53-1.3l-4.93-3.865,4.638-8.015,5.805,2.335a1.419,1.419,0,0,0,1.4-.2,16.886,16.886,0,0,1,3.746-2.19,1.421,1.421,0,0,0,.844-1.1l.694-6.179h9.469l.861,6.145a1.417,1.417,0,0,0,.856,1.108,16.145,16.145,0,0,1,3.737,2.184,1.406,1.406,0,0,0,1.4.2l5.805-2.34,4.638,8.015-4.93,3.865a1.423,1.423,0,0,0-.533,1.3,16.8,16.8,0,0,1,.161,2.193,16.239,16.239,0,0,1-.159,2.15,1.418,1.418,0,0,0,.53,1.3l4.93,3.865Z" transform="translate(-14.346 -128)" fill="url(#linear-gradient)"/>
        </g>
      </g>
    </g>
    <g id="Group_1027" data-name="Group 1027" transform="translate(50.846)">
      <g id="Group_1026" data-name="Group 1026">
        <g id="Group_1025" data-name="Group 1025">
          <path id="Path_8953" data-name="Path 8953" d="M356.447,64a5.667,5.667,0,1,0,5.667,5.667A5.672,5.672,0,0,0,356.447,64Zm0,8.5a2.833,2.833,0,1,1,2.833-2.833A2.838,2.838,0,0,1,356.447,72.5Z" transform="translate(-342.598 -55.5)" fill="url(#linear-gradient)"/>
          <path id="Path_8954" data-name="Path 8954" d="M316.152,16.473l-.071-.059-2.105-1.632c.017-.2.025-.405.025-.615s-.006-.419-.017-.629l2.145-1.683a2.082,2.082,0,0,0,.436-2.581l-2.533-4.38a2.091,2.091,0,0,0-2.564-.915l-2.442.983a9.805,9.805,0,0,0-1.068-.62l-.363-2.5A2.025,2.025,0,0,0,305.572,0h-5.1a2.094,2.094,0,0,0-2.043,1.754l-.374,2.609A11.5,11.5,0,0,0,297,4.97l-2.493-1a2.09,2.09,0,0,0-2.5.9l-2.564,4.44a2.037,2.037,0,0,0,.521,2.609l2.1,1.643c-.009.2-.014.4-.014.606s.006.408.014.609l-2.165,1.7a2.087,2.087,0,0,0-.439,2.587l2.533,4.38a2.091,2.091,0,0,0,2.564.915l2.442-.983a9.805,9.805,0,0,0,1.068.62l.377,2.624a2.055,2.055,0,0,0,2.034,1.717h5.1a2.1,2.1,0,0,0,2.043-1.751l.374-2.612a10.2,10.2,0,0,0,1.046-.6l2.5,1a2.1,2.1,0,0,0,2.5-.9l2.567-4.445A2.076,2.076,0,0,0,316.152,16.473Zm-4.23,5-2.561-1.023a1.421,1.421,0,0,0-1.411.21,8.015,8.015,0,0,1-1.822,1.057,1.417,1.417,0,0,0-.839,1.1L304.9,25.5h-3.765l-.383-2.689a1.421,1.421,0,0,0-.893-1.119,7.211,7.211,0,0,1-1.816-1.051,1.419,1.419,0,0,0-1.394-.19l-2.53,1.023-1.878-3.247,2.165-1.694a1.416,1.416,0,0,0,.533-1.292,8.32,8.32,0,0,1-.065-1.074,8.848,8.848,0,0,1,.062-1.074,1.41,1.41,0,0,0-.533-1.292l-2.165-1.694,1.876-3.247,2.533,1.02a1.42,1.42,0,0,0,1.394-.19,8.869,8.869,0,0,1,1.87-1.074,1.417,1.417,0,0,0,.839-1.1l.385-2.686h3.74l.388,2.692a1.412,1.412,0,0,0,.89,1.119A7.213,7.213,0,0,1,307.972,7.7a1.41,1.41,0,0,0,1.394.19l2.53-1.023,1.878,3.247L311.61,11.8a1.412,1.412,0,0,0-.521,1.374,5.165,5.165,0,0,1,.079.989,8.188,8.188,0,0,1-.094,1.071,1.417,1.417,0,0,0,.536,1.295l2.185,1.694Z" transform="translate(-289.174)" fill="url(#linear-gradient)"/>
        </g>
      </g>
    </g>
  </g>
</svg>
