<svg xmlns="http://www.w3.org/2000/svg" xmlns:xlink="http://www.w3.org/1999/xlink" width="67.502" height="67.502" viewBox="0 0 67.502 67.502">
  <defs>
    <linearGradient id="linear-gradient" x1="0.5" x2="0.5" y2="1" gradientUnits="objectBoundingBox">
      <stop offset="0" stop-color="#7400b8"/>
      <stop offset="1" stop-color="#48bfe3"/>
    </linearGradient>
  </defs>
  <g id="shuttle_1_" data-name="shuttle (1)" transform="translate(0 0)">
    <path id="Path_8870" data-name="Path 8870" d="M67.422,5.039a5.247,5.247,0,0,0-4.96-4.96c-5.41-.3-16-.008-26.121,5.228A51.282,51.282,0,0,0,21.366,17.725l-.159.194-9.885.764a5.219,5.219,0,0,0-3.976,2.34L.6,31.222a3.615,3.615,0,0,0,2.462,5.566l8.328,1.29c-.029.162-.059.324-.086.486a5.244,5.244,0,0,0,1.47,4.562l11.6,11.6a5.257,5.257,0,0,0,3.71,1.541,5.17,5.17,0,0,0,.851-.071c.162-.027.324-.057.486-.086l1.29,8.329A3.612,3.612,0,0,0,36.279,66.9l10.2-6.744a5.218,5.218,0,0,0,2.339-3.976l.764-9.885.194-.159A51.277,51.277,0,0,0,62.194,31.161c5.237-10.124,5.524-20.711,5.228-26.121ZM44.3,56.857l-9.758,6.451-1.257-8.117a44.3,44.3,0,0,0,12.09-5.756l-.5,6.44a1.288,1.288,0,0,1-.578.982ZM27.173,51.929l-11.6-11.6a1.282,1.282,0,0,1-.366-1.113,34.021,34.021,0,0,1,1.544-5.875L34.157,50.747a34.164,34.164,0,0,1-5.871,1.548,1.282,1.282,0,0,1-1.113-.366Zm-15.547-29.3,6.44-.5a44.3,44.3,0,0,0-5.756,12.09L4.193,32.961,10.645,23.2A1.288,1.288,0,0,1,11.626,22.625ZM47.243,43.1a45.341,45.341,0,0,1-9.155,5.987L18.416,29.412A46.126,46.126,0,0,1,24.4,20.258,47.2,47.2,0,0,1,38.158,8.821c9.291-4.806,19.08-5.065,24.089-4.792a1.3,1.3,0,0,1,1.226,1.226c.273,5.008.014,14.8-4.792,24.089A47.2,47.2,0,0,1,47.243,43.1Z" transform="translate(0 0)" fill="url(#linear-gradient)"/>
    <path id="Path_8871" data-name="Path 8871" d="M285.611,106.084a9.88,9.88,0,1,0-6.992-2.891,9.859,9.859,0,0,0,6.992,2.891Zm-4.2-14.078a5.932,5.932,0,1,1-1.738,4.195A5.914,5.914,0,0,1,281.416,92.007Z" transform="translate(-239.372 -74.938)" fill="url(#linear-gradient)"/>
    <path id="Path_8872" data-name="Path 8872" d="M2.279,353.376a1.971,1.971,0,0,0,1.4-.579l6.457-6.457a1.978,1.978,0,0,0-2.8-2.8L.881,350a1.978,1.978,0,0,0,1.4,3.376Z" transform="translate(-0.262 -297.748)" fill="url(#linear-gradient)"/>
    <path id="Path_8873" data-name="Path 8873" d="M15.79,388.425a1.978,1.978,0,0,0-2.8,0L.58,400.838a1.977,1.977,0,1,0,2.8,2.8l12.413-12.413A1.977,1.977,0,0,0,15.79,388.425Z" transform="translate(-0.001 -336.712)" fill="url(#linear-gradient)"/>
    <path id="Path_8874" data-name="Path 8874" d="M97.1,433.306l-6.457,6.457a1.978,1.978,0,1,0,2.8,2.8l6.457-6.457a1.978,1.978,0,0,0-2.8-2.8Z" transform="translate(-78.189 -375.676)" fill="url(#linear-gradient)"/>
  </g>
</svg>
