<svg xmlns="http://www.w3.org/2000/svg" xmlns:xlink="http://www.w3.org/1999/xlink" width="58.337" height="68.507" viewBox="0 0 58.337 68.507">
  <defs>
    <linearGradient id="linear-gradient" x1="0.5" x2="0.5" y2="1" gradientUnits="objectBoundingBox">
      <stop offset="0" stop-color="#7400b8"/>
      <stop offset="1" stop-color="#48bfe3"/>
    </linearGradient>
  </defs>
  <g id="surface1" transform="translate(0 0.001)">
    <path id="Path_8878" data-name="Path 8878" d="M58.269,18.587l0-.053c-.03-.658-.05-1.354-.062-2.129a7.261,7.261,0,0,0-6.836-7.113c-7.877-.44-13.97-3.008-19.176-8.082l-.044-.042a4.384,4.384,0,0,0-5.958,0l-.044.042C20.94,6.284,14.846,8.852,6.97,9.292A7.26,7.26,0,0,0,.133,16.405C.122,17.174.1,17.871.072,18.533l0,.124c-.153,8.032-.343,18.028,3,27.1a34.5,34.5,0,0,0,8.276,12.892,43.3,43.3,0,0,0,16.2,9.58,5.016,5.016,0,0,0,.664.181,4.9,4.9,0,0,0,1.928,0,5.031,5.031,0,0,0,.666-.182,43.324,43.324,0,0,0,16.179-9.585,34.547,34.547,0,0,0,8.276-12.895C58.612,36.648,58.422,26.634,58.269,18.587ZM51.484,44.358c-3.527,9.563-10.727,16.13-22.01,20.076a1.011,1.011,0,0,1-.128.035.9.9,0,0,1-.353,0,1,1,0,0,1-.127-.034c-11.3-3.939-18.5-10.5-22.025-20.066C3.759,36.005,3.934,26.829,4.088,18.734v-.045c.031-.7.052-1.424.064-2.225a3.227,3.227,0,0,1,3.041-3.159,35.269,35.269,0,0,0,11.971-2.633,31.32,31.32,0,0,0,9.756-6.554.371.371,0,0,1,.5,0,31.331,31.331,0,0,0,9.756,6.554,35.271,35.271,0,0,0,11.972,2.633,3.226,3.226,0,0,1,3.041,3.159c.012.8.033,1.534.064,2.224C54.4,26.794,54.575,35.977,51.484,44.358Zm0,0" fill="url(#linear-gradient)"/>
    <path id="Path_8879" data-name="Path 8879" d="M107.471,128.41a17.073,17.073,0,1,0,17.073,17.073A17.092,17.092,0,0,0,107.471,128.41Zm0,30.126a13.053,13.053,0,1,1,13.053-13.053A13.068,13.068,0,0,1,107.471,158.536Zm0,0" transform="translate(-78.303 -111.229)" fill="url(#linear-gradient)"/>
    <path id="Path_8880" data-name="Path 8880" d="M167.186,212.58l-7.93,7.93-2.152-2.152a2.01,2.01,0,0,0-2.843,2.842l3.574,3.574a2.01,2.01,0,0,0,2.842,0l9.352-9.351a2.01,2.01,0,1,0-2.843-2.842Zm0,0" transform="translate(-133.111 -183.627)" fill="url(#linear-gradient)"/>
  </g>
</svg>
