<svg xmlns="http://www.w3.org/2000/svg" xmlns:xlink="http://www.w3.org/1999/xlink" width="63.578" height="69" viewBox="0 0 63.578 69">
  <defs>
    <linearGradient id="linear-gradient" x1="0.5" x2="0.5" y2="1" gradientUnits="objectBoundingBox">
      <stop offset="0" stop-color="#7400b8"/>
      <stop offset="1" stop-color="#48bfe3"/>
    </linearGradient>
  </defs>
  <g id="technical-support" transform="translate(-20.116)">
    <path id="Path_8966" data-name="Path 8966" d="M199.208,17.194h-.7a19.514,19.514,0,0,0-1.725-4.162l.5-.5a3.026,3.026,0,0,0,0-4.271l-3.312-3.309a3.019,3.019,0,0,0-4.273,0l-.5.5a19.445,19.445,0,0,0-4.163-1.728v-.7A3.024,3.024,0,0,0,182.014,0h-4.683a3.024,3.024,0,0,0-3.021,3.021v.7a19.5,19.5,0,0,0-4.166,1.729l-.494-.494a3.019,3.019,0,0,0-4.273,0l-3.312,3.312a3.026,3.026,0,0,0,0,4.27l.5.5a19.418,19.418,0,0,0-1.726,4.163h-.7a3.024,3.024,0,0,0-3.021,3.021V24.9a3.024,3.024,0,0,0,3.021,3.021h.7a19.424,19.424,0,0,0,1.726,4.163l-.5.5a3.026,3.026,0,0,0,0,4.27l3.309,3.309a2.992,2.992,0,0,0,2.138.887h0a2.991,2.991,0,0,0,2.135-.885l.5-.5a19.406,19.406,0,0,0,4.166,1.727v.7a3.024,3.024,0,0,0,3.021,3.021h4.683a3.024,3.024,0,0,0,3.021-3.021v-.7a19.344,19.344,0,0,0,4.163-1.726l.494.494a3.019,3.019,0,0,0,4.273,0l3.316-3.313a3.026,3.026,0,0,0,0-4.27l-.5-.5a19.521,19.521,0,0,0,1.725-4.162h.7a3.024,3.024,0,0,0,3.021-3.021V20.215a3.024,3.024,0,0,0-3.021-3.021ZM182.339,42.1a.33.33,0,0,1-.326.326h-4.683A.33.33,0,0,1,177,42.1V31.851a1.348,1.348,0,0,0-.879-1.264,9.23,9.23,0,0,1-2-16.311c.114-.078.215-.142.3-.194,0,.175-.017.342-.024.429-.01.137-.018.245-.018.352v6.36a5.576,5.576,0,0,0,5.193,5.551,1.359,1.359,0,0,0,.178,0,5.574,5.574,0,0,0,5.189-5.551v-6.36c0-.107-.008-.214-.018-.35-.006-.087-.019-.255-.024-.431.088.052.188.115.3.193a9.232,9.232,0,0,1-1.993,16.312,1.348,1.348,0,0,0-.879,1.263V42.1ZM199.533,24.9a.334.334,0,0,1-.326.326h-1.746a1.348,1.348,0,0,0-1.314,1.05,16.855,16.855,0,0,1-2.2,5.3,1.348,1.348,0,0,0,.186,1.673l1.238,1.238a.331.331,0,0,1,0,.458l-3.319,3.315a.324.324,0,0,1-.456,0l-1.238-1.238a1.348,1.348,0,0,0-1.674-.185,16.719,16.719,0,0,1-3.653,1.735V32.747a11.924,11.924,0,0,0,1.7-20.7c-.5-.343-2.028-1.386-3.363-.618-1.311.755-1.18,2.524-1.124,3.279,0,.066.01.121.011.152v6.36a2.6,2.6,0,1,1-5.17,0V14.873c0-.041.006-.1.011-.162.056-.755.188-2.523-1.122-3.278-1.334-.77-2.863.274-3.366.617a11.923,11.923,0,0,0,1.7,20.7v5.823a16.808,16.808,0,0,1-3.658-1.735,1.348,1.348,0,0,0-1.673.186l-1.24,1.24a.324.324,0,0,1-.456,0l-3.312-3.312a.331.331,0,0,1,0-.459l1.238-1.238a1.348,1.348,0,0,0,.186-1.673,16.768,16.768,0,0,1-2.2-5.3,1.348,1.348,0,0,0-1.315-1.052h-1.749a.334.334,0,0,1-.326-.326V20.215a.33.33,0,0,1,.326-.326h1.749a1.348,1.348,0,0,0,1.315-1.052,16.764,16.764,0,0,1,2.2-5.3,1.348,1.348,0,0,0-.186-1.673l-1.238-1.238a.331.331,0,0,1,0-.459l3.315-3.315a.324.324,0,0,1,.456,0L168.978,8.1a1.348,1.348,0,0,0,1.673.186,16.846,16.846,0,0,1,5.3-2.2,1.348,1.348,0,0,0,1.051-1.314V3.021a.33.33,0,0,1,.326-.326h4.683a.33.33,0,0,1,.326.326V4.767a1.348,1.348,0,0,0,1.051,1.314,16.778,16.778,0,0,1,5.3,2.2,1.348,1.348,0,0,0,1.674-.185l1.24-1.241a.324.324,0,0,1,.456,0l3.315,3.312a.331.331,0,0,1,0,.459l-1.238,1.238a1.348,1.348,0,0,0-.186,1.673,16.857,16.857,0,0,1,2.2,5.3,1.348,1.348,0,0,0,1.314,1.05h1.746a.33.33,0,0,1,.326.326V24.9Z" transform="translate(-118.534)" fill="url(#linear-gradient)"/>
    <path id="Path_8967" data-name="Path 8967" d="M380.252,437.782a1.348,1.348,0,1,0,1.906,1.906l0,0a1.348,1.348,0,0,0-1.91-1.9Z" transform="translate(-311.262 -378.443)" fill="url(#linear-gradient)"/>
    <path id="Path_8968" data-name="Path 8968" d="M75.233,333.762l-10.7,5.494a4.969,4.969,0,0,0-3.583-1.525H53.62a2.023,2.023,0,0,1-.517-.035,3.955,3.955,0,0,1-.4-.35l-.067-.063C46.707,331.7,41.7,332.055,36,334.3a3.877,3.877,0,0,1-1.865.4H32.478a3.584,3.584,0,0,0-3.4-2.456h-5.39a3.581,3.581,0,0,0-3.575,3.579v14.146a3.579,3.579,0,0,0,3.575,3.575h5.39a3.584,3.584,0,0,0,3.4-2.453H35.51a1.434,1.434,0,0,1,.579.088c.113.032.251.071.429.119l13.947,3.731c.615.166,1.179.329,1.724.487a17.577,17.577,0,0,0,4.855.953A10.655,10.655,0,0,0,63.1,354.3l.035-.024,2.663-1.9a1.348,1.348,0,0,0-1.565-2.194l-2.645,1.886c-3.531,2.349-5.031,1.915-8.645.867-.557-.161-1.133-.328-1.774-.5L37.217,348.7c-.163-.044-.291-.08-.4-.11a3.754,3.754,0,0,0-1.31-.189h-2.85v-11h1.514l.077,0a6.317,6.317,0,0,0,2.74-.59c5-1.975,8.866-2.209,13.8,2.438l.067.063a3.263,3.263,0,0,0,2.761,1.116h7.331a2.29,2.29,0,0,1,2,1.181l.013.023A2.285,2.285,0,0,1,60.951,345H49.071a1.348,1.348,0,0,0,0,2.7h11.88a4.977,4.977,0,0,0,4.863-6.067l10.65-5.469a2.168,2.168,0,1,1,2.3,3.674l-4.672,3.327a1.348,1.348,0,1,0,1.563,2.2l4.672-3.328a4.856,4.856,0,0,0-5.092-8.267ZM29.964,349.978a.893.893,0,0,1-.883.879h-5.39a.891.891,0,0,1-.879-.879V335.832a.882.882,0,0,1,.879-.883h5.39a.9.9,0,0,1,.883.883Z" transform="translate(0 -287.478)" fill="url(#linear-gradient)"/>
  </g>
</svg>
