<svg id="iso" xmlns="http://www.w3.org/2000/svg" width="70.08" height="73.505" viewBox="0 0 70.08 73.505">
  <path id="Path_8459" data-name="Path 8459" d="M187.645,73.231c-.048.485-.091.97-.144,1.455a14.3,14.3,0,0,1-1.959,6.076,9.458,9.458,0,0,1-4.666,3.814,18.285,18.285,0,0,1-8.275,1.293,15.311,15.311,0,0,1-7.96-2.774,10.224,10.224,0,0,1-3.872-5.863,16.79,16.79,0,0,1-.472-5.818,16.468,16.468,0,0,1,.752-4.264,10.253,10.253,0,0,1,6.13-6.436,18.044,18.044,0,0,1,6.364-1.285,16.806,16.806,0,0,1,7.5,1.511,10.529,10.529,0,0,1,4.672,3.88,11.011,11.011,0,0,1,1.391,3.611c.224,1.066.322,2.132.474,3.2.024.168.048.333.069.5Zm-18.026-.925c.061,1.159.112,2.273.189,3.387a9.207,9.207,0,0,0,.187,1.031,3.091,3.091,0,0,0,2.7,2.708,6.663,6.663,0,0,0,2.665-.043,3.1,3.1,0,0,0,2.718-3.006c.091-.973.165-1.948.187-2.932a21.845,21.845,0,0,0-.3-4.858,3.159,3.159,0,0,0-2.614-2.684,6.433,6.433,0,0,0-3.054.1,2.936,2.936,0,0,0-2.367,2.665C169.779,69.9,169.715,71.125,169.619,72.306Z" transform="translate(-117.565 -43.585)" fill="#323132"/>
  <path id="Path_8460" data-name="Path 8460" d="M61.207,0,62.92.136A28.948,28.948,0,0,1,81.362,8.744,30.16,30.16,0,0,1,84.8,12.936c.051.077.1.16.144.24a1.106,1.106,0,0,1-1.375-.325,26.693,26.693,0,0,0-5.33-5.6.533.533,0,0,0-.69-.037c-.72.434-1.447.855-2.175,1.274-.33.192-.378.357-.128.685.29.378.624.725.9,1.109.7.959,1.37,1.932,2.055,2.9l-.053.1c-.32,0-.642.019-.962-.013-.093,0-.184-.157-.266-.253q-1.4-1.77-2.772-3.539a.354.354,0,0,0-.466-.125l-4.5,1.6c-.059.021-.112.051-.245.107l.887,2.217a8.385,8.385,0,0,1-.906,0c-.093,0-.2-.133-.253-.232-.245-.472-.477-.949-.7-1.431a.357.357,0,0,0-.482-.216,31.485,31.485,0,0,1-5.394.736c-.235,0-.469.056-.7.051a.267.267,0,0,0-.306.267,2.2,2.2,0,0,0,0,.477c.04.3-.112.376-.365.37h-.128c-.56-.027-.56-.027-.549-.6,0-.461-.077-.546-.533-.562a34.427,34.427,0,0,1-6.1-.746.3.3,0,0,0-.4.189c-.216.461-.45.917-.648,1.386a.533.533,0,0,1-.586.376c-.184-.016-.373,0-.637,0,.085-.24.141-.418.213-.586.2-.469.405-.935.61-1.4.083-.189.021-.267-.176-.344q-2.228-.778-4.443-1.58a.312.312,0,0,0-.41.1c-.845,1.066-1.746,2.095-2.518,3.2a1.247,1.247,0,0,1-1.455.57c.053-.1.1-.205.155-.3a24.716,24.716,0,0,1,2.569-3.6c.088-.107.184-.208.266-.32.123-.165.112-.3-.091-.41q-1.279-.72-2.548-1.458a.394.394,0,0,0-.514.093C41.92,8.083,41,8.816,40.2,9.669c-1.013,1.09-1.916,2.279-2.878,3.417a.6.6,0,0,1-.36.189,8.135,8.135,0,0,1-.855,0c.072-.128.117-.216.171-.3A28.791,28.791,0,0,1,53.627.858,26.262,26.262,0,0,1,59.458.045,2.039,2.039,0,0,0,59.725,0Zm-1.2,7.979H60V5.17c0-.267-.069-.392-.378-.413-.6-.04-1.2-.133-1.8-.227a.477.477,0,0,0-.514.216c-.5.688-1.045,1.346-1.514,2.055-.666,1.01-1.29,2.049-1.916,3.086-.224.373-.144.533.267.616.909.157,1.818.333,2.734.426s1.884.1,2.828.149c.245,0,.3-.1.3-.322C60,9.831,60.01,8.907,60.01,7.979Zm7.236,2.359a1.736,1.736,0,0,0-.069-.2,31.855,31.855,0,0,0-3.624-5.469.533.533,0,0,0-.413-.12c-.517.056-1.029.152-1.546.221s-.533.061-.533.6v4.6c0,.378.037.76.061,1.175A27.388,27.388,0,0,0,67.246,10.338ZM66.233,3.409c-.08.032-.152.053-.219.083-.381.163-.765.322-1.143.488-.288.128-.3.2-.12.48q1.74,2.692,3.465,5.386a.322.322,0,0,0,.408.173A22.423,22.423,0,0,0,72.656,8.64c.392-.171.432-.306.112-.592-.8-.714-1.6-1.439-2.431-2.111a19.031,19.031,0,0,0-3.755-2.4,3.061,3.061,0,0,0-.349-.139ZM52.5,10.127a1.983,1.983,0,0,0,.3-.328,40.855,40.855,0,0,1,3.342-5.2.661.661,0,0,0,.136-.314.3.3,0,0,0-.112-.253q-.653-.3-1.333-.533a.493.493,0,0,0-.352.037A29.529,29.529,0,0,0,48.244,8.15c-.267.243-.216.44.112.565.744.285,1.484.57,2.239.831C51.2,9.743,51.8,9.917,52.5,10.127Zm8-9.061a21.586,21.586,0,0,0-2.2,0c-1.234.131-2.46.341-3.686.533a.341.341,0,0,0-.24.195.349.349,0,0,0,.144.267,13.523,13.523,0,0,0,1.479.8A11.228,11.228,0,0,0,62.27,3.6a9.954,9.954,0,0,0,4.088-1.468c.109-.075.157-.243.235-.365a1.583,1.583,0,0,0-.341-.168,22.248,22.248,0,0,0-5.759-.533ZM46.885,8c.083-.061.176-.12.267-.192.922-.8,1.807-1.655,2.774-2.4,1.066-.829,2.228-1.562,3.353-2.327.155-.107.267-.211.2-.408a1.09,1.09,0,0,0-.965-.488c-.325.088-.648.189-.965.3a29.03,29.03,0,0,0-6.449,3.1,7.36,7.36,0,0,0-.786.554c-.251.208-.224.376.061.533q1.031.6,2.1,1.175A2.78,2.78,0,0,0,46.885,8ZM74.164,7.91a2.029,2.029,0,0,0,.309-.107l2.156-1.239c.267-.157.267-.32,0-.5a26.813,26.813,0,0,0-8-3.856.9.9,0,0,0-.914.224A.317.317,0,0,0,67.763,3a30.411,30.411,0,0,1,6.108,4.733,1.575,1.575,0,0,0,.293.179Z" transform="translate(-26.529)" fill="#323132"/>
  <path id="Path_8461" data-name="Path 8461" d="M72.374,83.613v1.73H66.743V76.028A2.066,2.066,0,0,1,66.991,76h4.6a.453.453,0,0,1,.336.152,7.29,7.29,0,0,0,4.181,3.262,9.922,9.922,0,0,0,5.9.232l.152-.045c.4-.117.768-.309.77-.778s-.36-.693-.736-.829q-1.213-.44-2.449-.813c-2.4-.733-4.8-1.407-7.158-2.188a9.188,9.188,0,0,1-5.234-4.054,6.943,6.943,0,0,1-.813-4.1A7.2,7.2,0,0,1,68.1,62.6a8.278,8.278,0,0,1,3.744-2.452,13.746,13.746,0,0,1,5.663-.664,14.426,14.426,0,0,1,4.147.8c.8.309,1.562.773,2.34,1.157a4.426,4.426,0,0,0,.533.181V60.4c0-.16.037-.267.229-.267h5.08a.475.475,0,0,1,.123.043v8.275c0,.3-.077.4-.389.4h-4.6a.554.554,0,0,1-.4-.168,8.261,8.261,0,0,0-4.658-3.054,11.758,11.758,0,0,0-4.043-.448,2.457,2.457,0,0,0-1.149.4.831.831,0,0,0,.085,1.5,11.49,11.49,0,0,0,1.847.672c2.689.8,5.4,1.508,8.067,2.38a8.587,8.587,0,0,1,5.533,5,7.531,7.531,0,0,1-3.75,9.594,13.171,13.171,0,0,1-6.266,1.173,16.6,16.6,0,0,1-6.13-1.428c-.445-.2-.861-.461-1.3-.688A4.209,4.209,0,0,0,72.374,83.613Z" transform="translate(-48.831 -43.592)" fill="#323132"/>
  <path id="Path_8462" data-name="Path 8462" d="M.16,66.7v-.4c0-1.82.024-3.64.019-5.461,0-.312.1-.389.4-.389H15.689c.8,0,.8,0,.8.818,0,1.682,0,3.366.027,5.048,0,.285-.077.386-.378.381-1.01-.016-2.023,0-3.035,0-.28,0-.392.064-.392.37q.016,6.26,0,12.526c0,.267.072.37.36.368,1.117-.016,2.233,0,3.382,0v6.167H.581c-.336,0-.408-.1-.405-.416q.016-2.681,0-5.365c0-.3.064-.408.386-.4,1,.024,2,0,3,.016.288,0,.36-.1.36-.37V67.038c0-.266-.069-.352-.338-.346-1,.016-2,0-3,.016Z" transform="translate(-0.16 -44.34)" fill="#323132"/>
  <path id="Path_8463" data-name="Path 8463" d="M51.66,167.055h.9c.075,0,.165.117.208.2a13.467,13.467,0,0,1,.736,1.45c.125.29.306.283.554.243.954-.152,1.908-.317,2.868-.434q1.583-.195,3.174-.3c.312-.021.373-.165.392-.41v-.16a1.713,1.713,0,0,1,.043-.549,2.817,2.817,0,0,1,.821-.027c.051,0,.12.144.128.227a2.321,2.321,0,0,1,0,.509c-.032.267.08.368.352.389.965.069,1.932.136,2.892.267,1.114.147,2.225.344,3.331.533a.325.325,0,0,0,.424-.205c.232-.49.488-.967.714-1.46a.405.405,0,0,1,.461-.285c.205.021.416,0,.709,0l-.909,2.236c.56.187,1.085.349,1.6.533,1.031.37,2.057.746,3.078,1.141a.378.378,0,0,0,.517-.128c.845-1.1,1.719-2.169,2.529-3.289a.928.928,0,0,1,.975-.5,3.332,3.332,0,0,0,.466,0c-.072.136-.123.235-.179.33a26.711,26.711,0,0,1-2.742,3.76c-.312.357-.3.434.117.669.757.434,1.519.855,2.268,1.3a.61.61,0,0,0,.8-.069,28.881,28.881,0,0,0,5.218-5.671.629.629,0,0,1,.682-.317c.176.029.357.032.61.051a28.541,28.541,0,0,1-5.487,6.351,28.25,28.25,0,0,1-15.487,6.772,29.01,29.01,0,0,1-27.9-13.072,1.026,1.026,0,0,1,1.365.37,27.673,27.673,0,0,0,5.3,5.631.552.552,0,0,0,.72.045c.674-.408,1.333-.821,2.041-1.189.6-.317.49-.533.179-.943-.9-1.186-1.772-2.4-2.665-3.6a3.953,3.953,0,0,1-.219-.4c.365,0,.672-.019.973,0,.1,0,.192.141.267.237.911,1.175,1.823,2.356,2.724,3.539.2.266.389.266.685.152,1.444-.533,2.9-1.053,4.347-1.567.362-.131.376-.123.213-.488-.2-.448-.41-.887-.608-1.333C51.78,167.447,51.735,167.279,51.66,167.055Zm9.837,2.268v.975c0,1.692.016,3.382.037,5.064,0,.1.1.267.176.267.7.112,1.4.208,2.111.282a.49.49,0,0,0,.37-.171,37.231,37.231,0,0,0,3.523-5.381c.157-.293.131-.368-.205-.421-1.412-.219-2.828-.442-4.248-.618a15.438,15.438,0,0,0-1.764,0Zm-1,3.137h-.024v-2.844c0-.224-.029-.376-.328-.362a28.319,28.319,0,0,0-5.562.69c-.349.085-.384.157-.213.477a32.555,32.555,0,0,0,3.518,5.314.608.608,0,0,0,.456.192c.613-.064,1.218-.184,1.828-.267.267-.037.336-.165.33-.424C60.481,174.312,60.492,173.385,60.492,172.46ZM53.014,170.3a2.253,2.253,0,0,0-.267.053c-1.333.466-2.638.927-3.952,1.41-.392.144-.408.36-.085.653.424.386.847.775,1.282,1.149a28.25,28.25,0,0,0,4.8,3.366.592.592,0,0,0,.6.027c.4-.187.815-.362,1.229-.533.237-.093.3-.195.133-.421a51.355,51.355,0,0,1-3.518-5.5.832.832,0,0,0-.216-.2ZM66.8,177.009a2.924,2.924,0,0,0,.328-.147c.773-.466,1.562-.911,2.313-1.41a22.3,22.3,0,0,0,3.875-3.257c.219-.235.2-.336-.061-.453a22.217,22.217,0,0,0-3.974-1.346.434.434,0,0,0-.552.243c-1.093,1.735-2.2,3.465-3.31,5.183a1.65,1.65,0,0,0-.149.243c-.085.205-.08.36.195.418a3.329,3.329,0,0,1,.533.211Zm-5.463,2.444a28.12,28.12,0,0,0,5.535-.632c.1-.021.267-.112.267-.152a.493.493,0,0,0-.168-.333,13.829,13.829,0,0,0-1.54-.829,11.276,11.276,0,0,0-5.618-.784,10.375,10.375,0,0,0-4.722,1.6.435.435,0,0,0-.179.312c0,.064.163.165.266.189A27.8,27.8,0,0,0,61.334,179.453Zm7.385-1.111c.16-.045.243-.064.325-.091.845-.283,1.7-.533,2.532-.855a25.451,25.451,0,0,0,5.613-3.051c.328-.237.309-.41-.045-.61-.666-.376-1.333-.752-2-1.122-.44-.243-.52-.229-.9.107-1.01.9-1.988,1.834-3.043,2.665-.933.738-1.951,1.367-2.932,2.039-.144.1-.3.216-.171.37A5,5,0,0,0,68.719,178.342Zm-15.513,0c.136-.072.3-.144.448-.24.376-.237.37-.474,0-.7a29.27,29.27,0,0,1-5.943-4.648.562.562,0,0,0-.784-.131c-.656.373-1.314.738-1.972,1.111-.41.235-.418.45-.027.725a27.164,27.164,0,0,0,7.046,3.507c.4.128.792.24,1.231.368Z" transform="translate(-26.83 -122.507)" fill="#323132"/>
  <text id="_27001" data-name="27001" transform="translate(20.35 71.005)" fill="#323132" stroke="#fff" stroke-width="0.5" font-size="12" font-family="SimSun-ExtB"><tspan x="0" y="0">27001</tspan></text>
</svg>
