<svg id="medal" xmlns="http://www.w3.org/2000/svg" xmlns:xlink="http://www.w3.org/1999/xlink" width="58.794" height="71.154" viewBox="0 0 58.794 71.154">
  <defs>
    <linearGradient id="linear-gradient" x1="0.5" x2="0.5" y2="1" gradientUnits="objectBoundingBox">
      <stop offset="0" stop-color="#7400b8"/>
      <stop offset="1" stop-color="#48bfe3"/>
    </linearGradient>
  </defs>
  <path id="Path_8469" data-name="Path 8469" d="M155.071,75.481a1.043,1.043,0,0,0,1.23-.815,19.355,19.355,0,0,0,.388-3.862,19.141,19.141,0,1,0-2.12,8.783,1.043,1.043,0,1,0-1.852-.96A17.093,17.093,0,1,1,154.6,70.8a17.252,17.252,0,0,1-.346,3.443,1.046,1.046,0,0,0,.812,1.234Z" transform="translate(-108.181 -44.458)" fill="url(#linear-gradient)"/>
  <path id="Path_8470" data-name="Path 8470" d="M195.427,109.268a1.043,1.043,0,0,0-.844-.712l-6.794-.976-3.025-6.179a1.048,1.048,0,0,0-1.872,0l-3.025,6.179-6.794.976a1.053,1.053,0,0,0-.578,1.785l4.924,4.8-1.174,6.782a1.05,1.05,0,0,0,1.514,1.1l6.068-3.216,6.068,3.216a1.05,1.05,0,0,0,1.514-1.1l-1.174-6.782,4.924-4.8A1.047,1.047,0,0,0,195.427,109.268Zm-7.037,4.753a1.048,1.048,0,0,0-.3.929l.9,5.229-4.678-2.479a1.04,1.04,0,0,0-.974,0l-4.678,2.479.9-5.229a1.047,1.047,0,0,0-.3-.929l-3.8-3.7,5.238-.753A1.043,1.043,0,0,0,181.5,109l2.332-4.764L186.161,109a1.043,1.043,0,0,0,.788.574l5.238.753Z" transform="translate(-154.432 -86.811)" fill="url(#linear-gradient)"/>
  <path id="Path_8471" data-name="Path 8471" d="M103.112,62.15l-10.189-17.7A26.305,26.305,0,0,0,61.127,3.3a1.045,1.045,0,0,0,1.012,1.828A24.282,24.282,0,1,1,58.3,7.779a1.044,1.044,0,0,0-1.342-1.6,26.379,26.379,0,0,0-2.139,38.295l-2.886,5.013a1.044,1.044,0,0,0,1.805,1.046l2.623-4.557a26.206,26.206,0,0,0,11.167,5.94l-9,15.627-2.3-7.264a1.042,1.042,0,0,0-1.217-.7l-7.422,1.633,3.712-6.45A1.043,1.043,0,1,0,49.5,53.712l-4.894,8.5a1.052,1.052,0,0,0,1.126,1.544l8.8-1.937,2.728,8.613a1.048,1.048,0,0,0,1.9.206L69.681,52.356a26.238,26.238,0,0,0,8.389-.006l6.321,10.981A1.043,1.043,0,1,0,86.2,62.286L80.222,51.908a26.207,26.207,0,0,0,11.159-5.954l8.744,15.19L92.7,59.511a1.042,1.042,0,0,0-1.217.7l-2.3,7.264-.557-.967a1.043,1.043,0,1,0-1.805,1.046l1.738,3.019a1.048,1.048,0,0,0,1.9-.206l2.728-8.613,8.8,1.937a1.052,1.052,0,0,0,1.127-1.544Z" transform="translate(-44.462 0)" fill="url(#linear-gradient)"/>
</svg>
