<svg xmlns="http://www.w3.org/2000/svg" xmlns:xlink="http://www.w3.org/1999/xlink" width="52.309" height="68.03" viewBox="0 0 52.309 68.03"><defs><linearGradient id="a" x1="0.5" x2="0.5" y2="1" gradientUnits="objectBoundingBox"><stop offset="0" stop-color="#7400b8"/><stop offset="1" stop-color="#48bfe3"/></linearGradient></defs><g transform="translate(-52.333 1)"><g transform="translate(53.333)"><path d="M97.353,22.01H94.209V15.721a15.721,15.721,0,0,0-31.443,0V22.01H59.622A6.287,6.287,0,0,0,53.333,28.3V59.742a6.287,6.287,0,0,0,6.289,6.288H97.353a6.287,6.287,0,0,0,6.289-6.289V28.3A6.287,6.287,0,0,0,97.353,22.01Zm-18.866,28.3a6.289,6.289,0,1,1,6.289-6.288A6.287,6.287,0,0,1,78.487,50.309Zm9.747-28.3H68.74V15.721a9.747,9.747,0,0,1,19.494,0Z" transform="translate(-53.333)" stroke="#fff" stroke-width="2" fill="url(#a)"/></g></g></svg>