<svg id="psi" xmlns="http://www.w3.org/2000/svg" width="85.026" height="71.586" viewBox="0 0 85.026 71.586">
  <path id="Path_8438" data-name="Path 8438" d="M83.317,78.5c0-1.891.032-3.587-.035-5.28,0-.249-.479-.589-.791-.668C77.236,71.2,72.1,71.35,67.481,74.476a9.845,9.845,0,0,0,1.477,17.161,16.909,16.909,0,0,0,7.982,1.589,1.485,1.485,0,0,1,1.631,1,25.772,25.772,0,0,0,2,2.993c-1.5.484-2.978.97-4.462,1.437q-13.968,4.385-27.936,8.775c-.833.262-1.192.122-1.5-.748-1.479-4.158-3.033-8.291-4.557-12.432-.14-.379-.249-.763-.424-1.267h5.864c2.2,0,1.9.022,1.911-1.861v-4.2a37.206,37.206,0,0,0,4.989-.5,14.368,14.368,0,0,0,4.629-1.826,6.291,6.291,0,0,0-.868-11,14.28,14.28,0,0,0-6.166-1.4c-3.153-.042-6.308,0-9.463-.062-.943-.02-1.127.327-1.122,1.192.032,6.236.017,12.471-.142,18.76L29.56,60.133c3.647-.2,7.233-.4,10.81-.609l27.617-1.574q10.314-.581,20.635-1.14c1.13-.065,2.26-.14,3.38-.272a.826.826,0,0,1,1.033.546c2.7,6.064,5.44,12.112,8.141,18.173a1.235,1.235,0,0,1,0,1.03c-1.978,2.659-4,5.28-6.221,7.855V80.8c0-2.537-.035-5.071.02-7.605.017-.841-.284-1.073-1.065-1.058-2,.032-3.978.047-5.964,0-.933-.032-1.157.359-1.157,1.215.025,5.238,0,10.476,0,15.714v1.068L83.3,87.129c-.876.207-2.083.549-3.315.771a8.725,8.725,0,0,1-5.338-.546A5.145,5.145,0,0,1,71.684,81.6,4.967,4.967,0,0,1,76,77.16a11.093,11.093,0,0,1,5.844.718C82.262,78.042,82.666,78.227,83.317,78.5Zm7.55-17.261A4.534,4.534,0,0,0,86,65.825c0,2.686,2.053,4.557,4.906,4.567a4.66,4.66,0,0,0,4.944-4.555C95.8,63.069,93.808,61.228,90.867,61.241Z" transform="translate(-29.56 -56.522)" fill="#323132"/>
  <path id="Path_8439" data-name="Path 8439" d="M267.348,112.972a3.647,3.647,0,0,1-.516.706c-4.113,3.4-6.984,7.795-9.778,12.222-3.455,5.507-6.717,11.137-10.032,16.732a4.568,4.568,0,0,1-7.136,1.04,44.76,44.76,0,0,1-3.223-3.854c-.97-1.2-1.9-2.432-2.886-3.612a1.55,1.55,0,0,1-.067-2.217,16.428,16.428,0,0,1,1.591-1.581.9.9,0,0,1,1.354.062c1.838,1.626,3.717,3.21,5.592,4.794,1,.846,1.185.816,1.843-.352a118.4,118.4,0,0,1,10.316-15.43c1.117-1.417,2.29-2.791,3.452-4.173.6-.718,1.28-1.377,1.846-2.12a6.244,6.244,0,0,1,5.006-2.4c.848-.045,1.7-.082,2.547-.122C267.284,112.752,267.316,112.867,267.348,112.972Z" transform="translate(-182.462 -98.665)" fill="#323132"/>
  <path id="Path_8440" data-name="Path 8440" d="M187.18,266.455V251.32h7.109c.137,0,.272.02.409.017,3.991-.095,5.787,1.726,6.348,5.5a15.265,15.265,0,0,1-.2,5.168,5.4,5.4,0,0,1-5.36,4.422C192.76,266.605,190.016,266.455,187.18,266.455Zm4.522-7.573h0c0,.786-.012,1.574,0,2.36.035,2.07-.526,2.15,2.245,1.936a2.419,2.419,0,0,0,2.517-2.457,17.663,17.663,0,0,0,.092-2.355c-.057-2.951-.963-3.834-3.889-3.916-.708-.017-1,.227-.978.945.037,1.17.012,2.33.012,3.5Z" transform="translate(-147.865 -202.732)" fill="#323132"/>
  <path id="Path_8441" data-name="Path 8441" d="M328.185,254.637l-4.036.264c-.945-1.783-1.921-2.365-3.315-1.843a1.623,1.623,0,0,0-.955,1.093,1.488,1.488,0,0,0,.918,1.1c1.546.541,3.17.87,4.717,1.414,2.452.861,3.492,2.345,3.382,4.545a5.018,5.018,0,0,1-3.849,4.542,11.686,11.686,0,0,1-6.685-.13,4.724,4.724,0,0,1-3.258-4.712c1.232-.072,2.494-.192,3.742-.18.249,0,.571.5.723.816a2.687,2.687,0,0,0,3.255,1.666,1.754,1.754,0,0,0,1.564-1.546c.082-.9-.519-1.357-1.292-1.624-1.778-.609-3.609-1.1-5.323-1.851a3.812,3.812,0,0,1-1.709-5.547,4.141,4.141,0,0,1,3.25-2.1,23.249,23.249,0,0,1,5.3,0A3.922,3.922,0,0,1,328.185,254.637Z" transform="translate(-243.877 -202.036)" fill="#323132"/>
  <path id="Path_8442" data-name="Path 8442" d="M264.957,254.011c-1.185.082-2.307.217-3.43.2a1.576,1.576,0,0,1-1-.683,2.432,2.432,0,0,0-2.993-1.1,1.81,1.81,0,0,0-.938,1.162c-.035.309.524.863.925,1.01,1.12.414,2.3.661,3.45,1a18.153,18.153,0,0,1,1.941.661c3.781,1.579,3.115,6.236.948,7.775a6.76,6.76,0,0,1-2.175,1.1,12.329,12.329,0,0,1-6.5-.12,4.736,4.736,0,0,1-3.37-4.714l4.16-.249c.162.4.274.723.419,1.03a2.726,2.726,0,0,0,3.627,1.362c.686-.3,1.247-.808,1.053-1.554a2.284,2.284,0,0,0-1.115-1.387c-1.646-.666-3.39-1.08-5.049-1.721a3.815,3.815,0,0,1-2.452-4.966,3.7,3.7,0,0,1,2.454-2.567,10.76,10.76,0,0,1,7.448-.042A3.88,3.88,0,0,1,264.957,254.011Z" transform="translate(-196.382 -201.417)" fill="#323132"/>
  <path id="Path_8443" data-name="Path 8443" d="M109.38,143.159v-5.148c1.5-.17,2.938-.172,4.113.918a2.536,2.536,0,0,1,.227,2.878C112.677,143.358,111.049,143.151,109.38,143.159Z" transform="translate(-89.47 -117.623)" fill="#323132"/>
  <path id="Path_8444" data-name="Path 8444" d="M235.122,325.312c-.222.821-.4,1.659-.691,2.454-.11.3-.471.519-.718.773a3.01,3.01,0,0,1-.634-.773c-.249-.681-.407-1.4-.6-2.1l-.272.032v2.669c-.7.249-1.075.212-1.058-.576.027-1.26,0-2.522,0-3.759,1.534-.437,1.671-.359,2.073,1.045a3.614,3.614,0,0,0,.663,1.379c.13-.417.279-.831.387-1.247.394-1.524.417-1.544,2.068-1.235v4.442c-.594.207-.893.087-.875-.561.022-.828,0-1.656,0-2.494Z" transform="translate(-180.866 -257.131)" fill="#323132"/>
  <path id="Path_8445" data-name="Path 8445" d="M332.063,326.329v-2.2h1.3c0,1.374.012,2.7-.015,4.026,0,.187-.227.534-.317.524-.412-.042-.943-.062-1.187-.319-.574-.6-1-1.337-1.709-1.973v2.245l-1.339.08c0-1.464-.015-2.849.02-4.24,0-.16.309-.466.422-.444a2.183,2.183,0,0,1,1.157.446,18.208,18.208,0,0,1,1.382,1.953Z" transform="translate(-254.158 -257.302)" fill="#323132"/>
  <path id="Path_8446" data-name="Path 8446" d="M209.367,323.8a2.169,2.169,0,0,1,2.444,2.387,2.491,2.491,0,0,1-4.981.012A2.207,2.207,0,0,1,209.367,323.8Zm1.107,2.454c-.022-.8-.249-1.452-1.14-1.566-.636-.082-1.172.636-1.16,1.517,0,.763.2,1.5,1.125,1.521s1.12-.718,1.172-1.472Z" transform="translate(-162.613 -257.132)" fill="#323132"/>
  <path id="Path_8447" data-name="Path 8447" d="M310.234,328.951a5.356,5.356,0,0,0-1.362-.671,5.252,5.252,0,0,0-1.883.022,5.184,5.184,0,0,0-1.282.631l-.2-.269c.5-1.364.97-2.744,1.541-4.078a1.241,1.241,0,0,1,.958-.476,1.166,1.166,0,0,1,.92.5c.569,1.3,1.038,2.654,1.541,3.991Zm-1.559-1.876-.631-1.639-.249.037c-.13.5-.249,1-.409,1.6Z" transform="translate(-236.68 -257.366)" fill="#323132"/>
  <path id="Path_8448" data-name="Path 8448" d="M189.464,326.773a1.843,1.843,0,0,1-2.434,1.746,2.215,2.215,0,0,1-1.923-2.4,2.142,2.142,0,0,1,1.639-2.395c1.479-.307,2.332.052,2.861,1.422a3.977,3.977,0,0,1-1.357-.324c-.668-.5-1.073-.195-1.472.3a1.834,1.834,0,0,0,.055,2.188,1.039,1.039,0,0,0,1.536-.122A3.1,3.1,0,0,1,189.464,326.773Z" transform="translate(-146.307 -256.998)" fill="#323132"/>
  <path id="Path_8449" data-name="Path 8449" d="M259.08,328.723h-1.22v-4.59c.923,0,1.8-.027,2.681,0a1.053,1.053,0,0,1,1.137,1.165c.01.776-.11,1.372-.953,1.586a.731.731,0,0,1-.2.032C259.337,326.872,258.626,327.269,259.08,328.723Zm1.714-3.155c-.564-.337-.848-.634-1.142-.644a.857.857,0,0,0-.594.594.821.821,0,0,0,.554.609C259.905,326.134,260.21,325.864,260.793,325.568Z" transform="translate(-200.915 -257.374)" fill="#323132"/>
  <path id="Path_8450" data-name="Path 8450" d="M326.486,174.967l-4.906,1.559c.641-1.038,1.14-1.848,1.644-2.659s1-1.611,1.6-2.567C325.4,172.57,325.925,173.719,326.486,174.967Z" transform="translate(-248.741 -142.671)" fill="#323132"/>
  <path id="Path_8451" data-name="Path 8451" d="M353.381,328.586c-.836.262-1.3.172-1.227-.766.042-.544-.02-1.095,0-1.641.03-.748-.135-1.265-1.068-1.222-.192,0-.4-.419-.606-.643l.2-.264c1.26,0,2.522-.015,3.781.015.17,0,.334.234.5.359-.142.187-.284.539-.424.536-1.1-.017-1.19.676-1.165,1.5C353.4,327.174,353.381,327.885,353.381,328.586Z" transform="translate(-270.433 -257.317)" fill="#323132"/>
  <path id="Path_8452" data-name="Path 8452" d="M278.18,328.917V324.33h1.162c0,.868.042,1.716,0,2.557s.187,1.192,1.088,1.14c.409-.025,1.2.267,1.2.4-.015.858-.748.419-1.165.466A22.62,22.62,0,0,1,278.18,328.917Z" transform="translate(-216.167 -257.531)" fill="#323132"/>
  <path id="Path_8453" data-name="Path 8453" d="M297.687,328.563c-.875.274-1.315.077-1.247-.923a21.482,21.482,0,0,0,0-2.659c-.052-.9.322-1.185,1.247-.93Z" transform="translate(-229.867 -257.254)" fill="#323132"/>
</svg>
