<svg xmlns="http://www.w3.org/2000/svg" xmlns:xlink="http://www.w3.org/1999/xlink" width="64.98" height="64.981" viewBox="0 0 64.98 64.981"><defs><linearGradient id="a" x1="0.5" x2="0.5" y2="1" gradientUnits="objectBoundingBox"><stop offset="0" stop-color="#7400b8"/><stop offset="1" stop-color="#48bfe3"/></linearGradient></defs><g transform="translate(0.504 0.5)"><g transform="translate(0.001 0)"><path d="M56.385,44.3A25.959,25.959,0,0,0,19.673,7.591a25.455,25.455,0,0,0-3.9,31.33,1.092,1.092,0,0,1-.15,1.3L2.374,53.466C-.262,56.1-.89,59.788,1.448,62.126l.4.4c2.338,2.338,6.024,1.711,8.66-.925L23.727,48.386a1.108,1.108,0,0,1,1.329-.178A25.454,25.454,0,0,0,56.385,44.3ZM24.466,39.51a19.181,19.181,0,1,1,27.126,0A19.2,19.2,0,0,1,24.466,39.51Z" transform="translate(-0.001 0)" stroke="#fff" stroke-width="1" fill="url(#a)"/><g transform="translate(33.108 12.29)"><path d="M164.353,78.49a2.067,2.067,0,0,1-2.061-2.061l-1.649-14.735a2.067,2.067,0,0,1,2.061-2.061h5.889a2.067,2.067,0,0,1,2.061,2.061l-1.649,14.735a2.067,2.067,0,0,1-2.061,2.061Z" transform="translate(-160.643 -59.633)" stroke="#fff" stroke-width="1" fill="url(#a)"/><path d="M176.668,168.055a1.654,1.654,0,0,1-1.649,1.649h-2.5a1.654,1.654,0,0,1-1.649-1.649v-2.5a1.654,1.654,0,0,1,1.649-1.649h2.5a1.654,1.654,0,0,1,1.649,1.649Z" transform="translate(-168.765 -142.419)" stroke="#fff" stroke-width="1" fill="url(#a)"/></g></g></g></svg>