<svg xmlns="http://www.w3.org/2000/svg" xmlns:xlink="http://www.w3.org/1999/xlink" width="52" height="61.63" viewBox="0 0 52 61.63"><defs><linearGradient id="a" x1="0.5" x2="0.5" y2="1" gradientUnits="objectBoundingBox"><stop offset="0" stop-color="#7400b8"/><stop offset="1" stop-color="#48bfe3"/></linearGradient></defs><g transform="translate(-40 0)"><path d="M90.516,9.98,66.923.184a2.407,2.407,0,0,0-1.846,0L41.484,9.98A2.408,2.408,0,0,0,40,12.2V24.111A40.316,40.316,0,0,0,65.09,61.451a2.408,2.408,0,0,0,1.82,0A40.316,40.316,0,0,0,92,24.111V12.2A2.407,2.407,0,0,0,90.516,9.98ZM87.185,24.111A35.509,35.509,0,0,1,66,56.607a35.51,35.51,0,0,1-21.185-32.5V13.81L66,5.014l21.185,8.8ZM63.339,32.225,73.687,21.878a2.407,2.407,0,1,1,3.4,3.4l-12.05,12.05a2.407,2.407,0,0,1-3.4,0L54.909,30.6a2.407,2.407,0,0,1,3.4-3.4Z" transform="translate(0 0)" fill="url(#a)"/></g></svg>