<svg id="_003-whatsapp" data-name="003-whatsapp" xmlns="http://www.w3.org/2000/svg" width="30.572" height="30.572" viewBox="0 0 30.572 30.572">
  <path id="Path_8367" data-name="Path 8367" d="M15.286,0A15.286,15.286,0,1,0,30.572,15.286,15.287,15.287,0,0,0,15.286,0Zm.324,24.186h0a9.145,9.145,0,0,1-4.372-1.113l-4.85,1.272,1.3-4.74a9.149,9.149,0,1,1,7.928,4.581Zm0,0" transform="translate(0)" fill="#323132"/>
  <path id="Path_8368" data-name="Path 8368" d="M141.678,124.469a7.605,7.605,0,0,0-6.445,11.647l.181.288-.768,2.805,2.878-.755.278.165a7.593,7.593,0,0,0,3.87,1.06h0a7.6,7.6,0,0,0,0-15.209Zm4.473,10.869a2.355,2.355,0,0,1-1.543,1.087,3.138,3.138,0,0,1-1.44-.091,13.188,13.188,0,0,1-1.3-.481,10.19,10.19,0,0,1-3.9-3.451,4.445,4.445,0,0,1-.933-2.364,2.562,2.562,0,0,1,.8-1.906.84.84,0,0,1,.61-.286c.152,0,.3,0,.438.008s.329-.053.514.392.648,1.582.7,1.7a.422.422,0,0,1,.019.4,6.513,6.513,0,0,1-.571.782c-.1.126-.234.238-.1.466a6.891,6.891,0,0,0,1.272,1.583,6.247,6.247,0,0,0,1.838,1.134c.228.114.362.1.5-.057s.571-.667.724-.9.3-.191.514-.114,1.333.629,1.562.743.381.172.438.267a1.907,1.907,0,0,1-.133,1.087Zm0,0" transform="translate(-126.066 -117.037)" fill="#323132"/>
</svg>
