<svg id="_006-skype" data-name="006-skype" xmlns="http://www.w3.org/2000/svg" width="30.572" height="30.572" viewBox="0 0 30.572 30.572">
  <path id="Path_8369" data-name="Path 8369" d="M185.571,161.738l-2.1-.466c-.8-.182-1.72-.423-1.72-1.177s.646-1.283,1.811-1.283c2.349,0,2.134,1.614,3.3,1.614a1.039,1.039,0,0,0,1.151-.981c0-1.448-2.317-2.534-4.283-2.534-2.134,0-4.406.906-4.406,3.32,0,1.162.415,2.4,2.7,2.972l2.84.709c.86.212,1.075.7,1.075,1.131,0,.725-.72,1.434-2.026,1.434-2.55,0-2.2-1.962-3.562-1.962a1,1,0,0,0-1.059,1.026c0,1.176,1.428,2.746,4.621,2.746,3.038,0,4.543-1.464,4.543-3.425,0-1.266-.584-2.611-2.887-3.124Zm0,0" transform="translate(-168.588 -147.541)" fill="#323132"/>
  <path id="Path_8370" data-name="Path 8370" d="M15.286,0A15.286,15.286,0,1,0,30.572,15.286,15.287,15.287,0,0,0,15.286,0Zm7.958,23.222a5.317,5.317,0,0,1-6.379.868,9.033,9.033,0,0,1-1.574.14A8.982,8.982,0,0,1,6.3,15.242a9.053,9.053,0,0,1,.135-1.549,5.317,5.317,0,0,1,7.147-7.277h0a9.064,9.064,0,0,1,1.7-.161,8.981,8.981,0,0,1,8.988,8.988,9.041,9.041,0,0,1-.15,1.629,5.316,5.316,0,0,1-.885,6.351Zm0,0" transform="translate(0)" fill="#323132"/>
</svg>
