<svg id="_008-youtube" data-name="008-youtube" xmlns="http://www.w3.org/2000/svg" width="30.572" height="30.572" viewBox="0 0 30.572 30.572">
  <path id="Path_8371" data-name="Path 8371" d="M224.113,213.767l4.972-2.864-4.972-2.864Zm0,0" transform="translate(-210.731 -195.617)" fill="#fff"/>
  <path id="Path_8372" data-name="Path 8372" d="M15.286,0A15.286,15.286,0,1,0,30.572,15.286,15.287,15.287,0,0,0,15.286,0Zm9.551,15.3a25.229,25.229,0,0,1-.393,4.595A2.393,2.393,0,0,1,22.76,21.58a58.1,58.1,0,0,1-7.474.393s-5.964,0-7.474-.409a2.394,2.394,0,0,1-1.684-1.684,25.118,25.118,0,0,1-.393-4.595,25.212,25.212,0,0,1,.393-4.595,2.442,2.442,0,0,1,1.684-1.7A58.1,58.1,0,0,1,15.286,8.6s5.979,0,7.474.409a2.394,2.394,0,0,1,1.684,1.684,23.942,23.942,0,0,1,.393,4.61Zm0,0" transform="translate(0)" fill="#fff"/>
</svg>
