<svg id="_011-instagram" data-name="011-instagram" xmlns="http://www.w3.org/2000/svg" width="30.572" height="30.572" viewBox="0 0 30.572 30.572">
  <path id="Path_8373" data-name="Path 8373" d="M212.852,209.926A2.926,2.926,0,1,1,209.926,207,2.926,2.926,0,0,1,212.852,209.926Zm0,0" transform="translate(-194.64 -194.64)" fill="#fff"/>
  <path id="Path_8374" data-name="Path 8374" d="M149.523,137.508a2.907,2.907,0,0,0-1.666-1.666,4.856,4.856,0,0,0-1.63-.3c-.926-.042-1.2-.051-3.547-.051s-2.621.009-3.547.051a4.86,4.86,0,0,0-1.63.3,2.908,2.908,0,0,0-1.666,1.666,4.858,4.858,0,0,0-.3,1.63c-.042.925-.051,1.2-.051,3.547s.009,2.621.051,3.547a4.856,4.856,0,0,0,.3,1.63,2.906,2.906,0,0,0,1.666,1.666,4.85,4.85,0,0,0,1.63.3c.925.042,1.2.051,3.547.051s2.622-.009,3.547-.051a4.85,4.85,0,0,0,1.63-.3,2.907,2.907,0,0,0,1.666-1.666,4.86,4.86,0,0,0,.3-1.63c.042-.926.051-1.2.051-3.547s-.009-2.621-.051-3.547A4.849,4.849,0,0,0,149.523,137.508Zm-6.842,9.684a4.507,4.507,0,1,1,4.507-4.507A4.507,4.507,0,0,1,142.681,147.192Zm4.685-8.139A1.053,1.053,0,1,1,148.419,138,1.053,1.053,0,0,1,147.366,139.052Zm0,0" transform="translate(-127.395 -127.399)" fill="#fff"/>
  <path id="Path_8375" data-name="Path 8375" d="M15.286,0A15.286,15.286,0,1,0,30.572,15.286,15.287,15.287,0,0,0,15.286,0ZM24.01,18.9a6.44,6.44,0,0,1-.408,2.131A4.488,4.488,0,0,1,21.035,23.6a6.444,6.444,0,0,1-2.13.408c-.936.043-1.235.053-3.619.053s-2.683-.01-3.619-.053a6.444,6.444,0,0,1-2.13-.408,4.488,4.488,0,0,1-2.567-2.567,6.438,6.438,0,0,1-.408-2.13c-.043-.936-.053-1.235-.053-3.619s.01-2.683.053-3.619a6.441,6.441,0,0,1,.408-2.131A4.491,4.491,0,0,1,9.536,6.969a6.446,6.446,0,0,1,2.131-.408c.936-.043,1.235-.053,3.619-.053s2.683.01,3.619.053a6.447,6.447,0,0,1,2.131.407A4.489,4.489,0,0,1,23.6,9.536a6.439,6.439,0,0,1,.408,2.131c.043.936.053,1.235.053,3.619S24.053,17.969,24.01,18.9Zm0,0" transform="translate(0)" fill="#fff"/>
</svg>
