<svg xmlns="http://www.w3.org/2000/svg" width="30.572" height="30.572" viewBox="0 0 30.572 30.572">
  <path id="_013-twitter-1" data-name="013-twitter-1" d="M15.286,0A15.286,15.286,0,1,0,30.572,15.286,15.287,15.287,0,0,0,15.286,0Zm6.979,11.918q.01.226.01.453a9.915,9.915,0,0,1-9.983,9.983h0a9.931,9.931,0,0,1-5.378-1.576,7.135,7.135,0,0,0,.837.049,7.04,7.04,0,0,0,4.358-1.5,3.512,3.512,0,0,1-3.278-2.437,3.5,3.5,0,0,0,1.585-.06A3.509,3.509,0,0,1,7.6,13.389c0-.016,0-.03,0-.045a3.484,3.484,0,0,0,1.589.439A3.512,3.512,0,0,1,8.1,9.1a9.961,9.961,0,0,0,7.232,3.666,3.51,3.51,0,0,1,5.979-3.2,7.037,7.037,0,0,0,2.228-.852A3.522,3.522,0,0,1,22,10.654a7,7,0,0,0,2.015-.553,7.13,7.13,0,0,1-1.75,1.817Zm0,0" fill="#fff"/>
</svg>
