<svg xmlns="http://www.w3.org/2000/svg" xmlns:xlink="http://www.w3.org/1999/xlink" width="66.956" height="68.731" viewBox="0 0 66.956 68.731">
  <defs>
    <linearGradient id="linear-gradient" x1="0.5" x2="0.5" y2="1" gradientUnits="objectBoundingBox">
      <stop offset="0" stop-color="#7400b8"/>
      <stop offset="1" stop-color="#48bfe3"/>
    </linearGradient>
  </defs>
  <path id="Path_9" data-name="Path 9" d="M369.127,3530.921a6.355,6.355,0,0,1,4.114,1.41l-3.427,3.519c-.138,0-.412-.139-.55-.139a2.4,2.4,0,1,0,2.332,2.393c0-.281,0-.423-.136-.563l3.427-3.522a7.6,7.6,0,0,1,1.235,4.227,7,7,0,1,1-6.994-7.325Zm0-9.576a15.9,15.9,0,0,1,10.7,4.084l-3.291,3.38a12.077,12.077,0,1,0,4.25,9.3,12.414,12.414,0,0,0-2.6-7.606l3.291-3.379a16.853,16.853,0,0,1,3.977,10.986,16.325,16.325,0,1,1-16.32-16.759Zm0-9.578a25.24,25.24,0,0,1,17.279,6.9l-3.291,3.382a20.629,20.629,0,0,0-13.988-5.494c-11.52,0-20.982,9.578-20.982,21.548,0,11.832,9.326,21.55,20.982,21.55s20.982-9.578,20.982-21.55a21.834,21.834,0,0,0-5.349-14.365l3.291-3.38a26.688,26.688,0,0,1,6.72,17.746c0,14.507-11.518,26.338-25.644,26.338s-25.644-11.831-25.644-26.338S354.865,3511.767,369.127,3511.767Zm32.638-10.281.549,1.689a1.142,1.142,0,0,0,.686.7l1.645.563-5.074,5.212-2.194-.7-.685-2.254Zm.549-3.38a1.143,1.143,0,0,0-.823.281l-6.856,7.041a1.377,1.377,0,0,0-.274,1.268l.959,2.817-7.268,7.467a27.714,27.714,0,0,0-18.924-7.606c-15.359,0-27.976,12.817-27.976,28.731,0,15.775,12.479,28.733,27.976,28.733S397.1,3554.019,397.1,3538.1a29.6,29.6,0,0,0-7.4-19.436l7.268-7.464,2.742.986a1.373,1.373,0,0,0,1.233-.281l6.858-7.043a1.314,1.314,0,0,0,0-1.691c-.138-.139-.274-.28-.412-.28l-2.879-.986-.961-2.959A1.318,1.318,0,0,0,402.313,3498.106Z" transform="translate(-341.151 -3498.106)" fill="url(#linear-gradient)"/>
</svg>
