<svg id="Group_35" data-name="Group 35" xmlns="http://www.w3.org/2000/svg" width="19.288" height="16.482" viewBox="0 0 19.288 16.482">
  <path id="Path_33" data-name="Path 33" d="M8.16,63.952a.714.714,0,0,0-.522.22l-3.86,3.86H.742a.714.714,0,0,0-.522.22.713.713,0,0,0-.22.522v4.451a.713.713,0,0,0,.22.522.713.713,0,0,0,.522.22H3.779l3.86,3.86A.742.742,0,0,0,8.9,77.305V64.694a.752.752,0,0,0-.742-.742Z" transform="translate(0 -62.758)" fill="#fff"/>
  <path id="Path_34" data-name="Path 34" d="M261.571,173.429a2.955,2.955,0,0,0,.493-1.64,2.986,2.986,0,0,0-.493-1.647,2.664,2.664,0,0,0-1.3-1.078.646.646,0,0,0-.29-.058.723.723,0,0,0-.522.214.708.708,0,0,0-.22.527.623.623,0,0,0,.139.412,1.35,1.35,0,0,0,.336.29q.2.122.394.267a1.169,1.169,0,0,1,.336.411,1.64,1.64,0,0,1,0,1.322,1.169,1.169,0,0,1-.336.412q-.2.145-.394.267a1.352,1.352,0,0,0-.336.29.626.626,0,0,0-.139.412.708.708,0,0,0,.22.527.723.723,0,0,0,.522.215.649.649,0,0,0,.29-.058A2.741,2.741,0,0,0,261.571,173.429Z" transform="translate(-248.71 -163.548)" fill="#fff"/>
  <path id="Path_35" data-name="Path 35" d="M291.444,110.424a5.934,5.934,0,0,0,0-6.549,5.72,5.72,0,0,0-2.608-2.185.835.835,0,0,0-.3-.058.752.752,0,0,0-.742.742.736.736,0,0,0,.452.684,7.19,7.19,0,0,1,.881.51,4.432,4.432,0,0,1,0,7.163,7.183,7.183,0,0,1-.881.51.736.736,0,0,0-.452.684.713.713,0,0,0,.22.522.726.726,0,0,0,.533.221.811.811,0,0,0,.29-.058A5.72,5.72,0,0,0,291.444,110.424Z" transform="translate(-276.109 -98.909)" fill="#fff"/>
  <path id="Path_36" data-name="Path 36" d="M321.585,37.9a8.753,8.753,0,0,0-3.918-3.286.835.835,0,0,0-.3-.058.753.753,0,0,0-.742.742.784.784,0,0,0,.452.684,2.691,2.691,0,0,0,.261.122,2.593,2.593,0,0,1,.261.122,8.821,8.821,0,0,1,.951.591,7.39,7.39,0,0,1,2.225,2.631,7.416,7.416,0,0,1,0,6.7,7.386,7.386,0,0,1-2.225,2.631,8.867,8.867,0,0,1-.951.591,2.713,2.713,0,0,1-.261.121,2.5,2.5,0,0,0-.261.122.784.784,0,0,0-.452.684.753.753,0,0,0,.742.742.831.831,0,0,0,.3-.058,8.9,8.9,0,0,0,3.918-13.08Z" transform="translate(-303.769 -34.552)" fill="#fff"/>
</svg>
