<svg xmlns="http://www.w3.org/2000/svg" width="53.11" height="53.11" viewBox="0 0 53.11 53.11">
  <g id="Group_745" data-name="Group 745" transform="translate(-246.793 -1851.911)">
    <path id="Path_33" data-name="Path 33" d="M424.451,1278.577a24.369,24.369,0,0,1-10.4-2.3l-.834,1.782a26.613,26.613,0,0,0,23.494-.507l-.91-1.741A24.681,24.681,0,0,1,424.451,1278.577Z" transform="translate(-151.102 624.476)" fill="#fff"/>
    <path id="Path_34" data-name="Path 34" d="M412.3,1274.074a3.936,3.936,0,1,1-.3-1.505A3.9,3.9,0,0,1,412.3,1274.074Z" transform="translate(-151.743 624.062)" fill="#fff"/>
    <path id="Path_35" data-name="Path 35" d="M424.868,1232.691a24.4,24.4,0,0,1,9.472,1.891l.756-1.815a26.587,26.587,0,0,0-27.6,4.418l1.287,1.488A24.6,24.6,0,0,1,424.868,1232.691Z" transform="translate(-151.519 621.188)" fill="#fff"/>
    <path id="Path_36" data-name="Path 36" d="M442.556,1237.408a3.934,3.934,0,1,1-.3-1.506A3.9,3.9,0,0,1,442.556,1237.408Z" transform="translate(-149.536 621.388)" fill="#fff"/>
    <path id="Path_37" data-name="Path 37" d="M400.9,1256.677a24.584,24.584,0,0,1,5.983-16.078.986.986,0,0,0-.744-1.629H400.9v1.967h3.2a26.567,26.567,0,0,0-.3,31.062l1.605-1.134A24.438,24.438,0,0,1,400.9,1256.677Z" transform="translate(-152.144 621.789)" fill="#fff"/>
    <path id="Path_38" data-name="Path 38" d="M449.306,1256.514a26.382,26.382,0,0,0-4.864-15.322l-1.606,1.134a24.439,24.439,0,0,1,4.5,14.187,24.869,24.869,0,0,1-10.417,19.86.985.985,0,0,0,.579,1.779h5.9v-1.968h-3.13A26.622,26.622,0,0,0,449.306,1256.514Z" transform="translate(-149.403 621.951)" fill="#fff"/>
    <path id="Path_39" data-name="Path 39" d="M428.808,1260.749a3.837,3.837,0,0,0,1.05-1.328,5.259,5.259,0,0,0,3.488-.052,4.523,4.523,0,0,0,1.513-.752,3.826,3.826,0,0,1-1.553-2.426l-.2-3.609a29.514,29.514,0,0,0-.792-4.7,6.75,6.75,0,0,0-1.928-3.158,4.92,4.92,0,0,0-.575-.347,5.578,5.578,0,0,0-2.261-1c-.08-.012-.158-.028-.238-.041h-.04a17.809,17.809,0,0,1-5.4-.024h-.041c-.08.012-.157.024-.237.041a5.524,5.524,0,0,0-2.269.977,4.991,4.991,0,0,0-.575.338,6.752,6.752,0,0,0-1.956,3.141,29.373,29.373,0,0,0-.833,4.692l-.234,3.605a3.836,3.836,0,0,1-1.577,2.41,4.535,4.535,0,0,0,1.51.765,5.264,5.264,0,0,0,3.484.084,3.853,3.853,0,0,0,1.039,1.34,4.018,4.018,0,0,0,.5.4,2.14,2.14,0,0,1-.825,2.053,36.585,36.585,0,0,1-5.915,2.691,14.648,14.648,0,0,0,20.262-.237,31.409,31.409,0,0,1-5.089-2.414,2.136,2.136,0,0,1-.809-2.06A3.834,3.834,0,0,0,428.808,1260.749Z" transform="translate(-151.05 622.103)" fill="#fff"/>
  </g>
</svg>
