<svg xmlns="http://www.w3.org/2000/svg" width="19.906" height="19.906" viewBox="0 0 19.906 19.906">
  <g id="Group_743" data-name="Group 743" transform="translate(-1153.009 -1449.51)">
    <path id="Path_37" data-name="Path 37" d="M10.578,19.906H9.328A1.835,1.835,0,0,1,7.5,18.074v-.423a8.036,8.036,0,0,1-1.248-.518l-.3.3a1.833,1.833,0,0,1-2.592,0l-.883-.883a1.832,1.832,0,0,1,0-2.592l.3-.3a8.037,8.037,0,0,1-.518-1.248H1.833A1.835,1.835,0,0,1,0,10.578V9.328A1.835,1.835,0,0,1,1.833,7.5h.423a8.038,8.038,0,0,1,.518-1.248l-.3-.3a1.833,1.833,0,0,1,0-2.592l.883-.883a1.832,1.832,0,0,1,2.592,0l.3.3A8.044,8.044,0,0,1,7.5,2.255V1.833A1.835,1.835,0,0,1,9.329,0h1.249A1.835,1.835,0,0,1,12.41,1.833v.423a8.036,8.036,0,0,1,1.248.518l.3-.3a1.833,1.833,0,0,1,2.592,0l.883.883a1.832,1.832,0,0,1,0,2.592l-.3.3A8.037,8.037,0,0,1,17.651,7.5h.423a1.835,1.835,0,0,1,1.833,1.833v1.249a1.835,1.835,0,0,1-1.833,1.833h-.423a8.039,8.039,0,0,1-.518,1.248l.3.3a1.833,1.833,0,0,1,0,2.592l-.883.883a1.832,1.832,0,0,1-2.592,0l-.3-.3a8.044,8.044,0,0,1-1.248.518v.423A1.835,1.835,0,0,1,10.578,19.906Zm-4.135-4a6.874,6.874,0,0,0,1.782.74.583.583,0,0,1,.437.565v.861a.667.667,0,0,0,.666.666h1.249a.667.667,0,0,0,.666-.666v-.861a.583.583,0,0,1,.437-.565,6.874,6.874,0,0,0,1.782-.74.583.583,0,0,1,.709.09l.61.61a.666.666,0,0,0,.942,0l.884-.884a.666.666,0,0,0,0-.942l-.61-.61a.583.583,0,0,1-.09-.709,6.873,6.873,0,0,0,.74-1.782.583.583,0,0,1,.565-.437h.861a.667.667,0,0,0,.666-.666V9.329a.667.667,0,0,0-.666-.666h-.861a.583.583,0,0,1-.565-.437,6.874,6.874,0,0,0-.74-1.782A.583.583,0,0,1,16,5.734l.61-.61a.666.666,0,0,0,0-.942L15.725,3.3a.666.666,0,0,0-.942,0l-.61.61a.583.583,0,0,1-.709.09,6.874,6.874,0,0,0-1.782-.74.583.583,0,0,1-.437-.565V1.833a.667.667,0,0,0-.666-.666H9.329a.667.667,0,0,0-.666.666v.861a.583.583,0,0,1-.437.565A6.874,6.874,0,0,0,6.443,4a.583.583,0,0,1-.709-.09l-.61-.61a.666.666,0,0,0-.942,0L3.3,4.182a.666.666,0,0,0,0,.942l.61.61A.583.583,0,0,1,4,6.443a6.873,6.873,0,0,0-.74,1.782.583.583,0,0,1-.565.437H1.833a.667.667,0,0,0-.666.666v1.249a.667.667,0,0,0,.666.666h.861a.583.583,0,0,1,.565.437A6.874,6.874,0,0,0,4,13.463a.583.583,0,0,1-.09.709l-.61.61a.666.666,0,0,0,0,.942l.884.884a.666.666,0,0,0,.942,0l.61-.61a.586.586,0,0,1,.709-.09Z" transform="translate(1153.009 1449.51)" fill="#fff"/>
    <path id="Path_38" data-name="Path 38" d="M149.674,154.747a5.074,5.074,0,1,1,5.074-5.074A5.079,5.079,0,0,1,149.674,154.747Zm0-8.781a3.707,3.707,0,1,0,3.707,3.707A3.711,3.711,0,0,0,149.674,145.966Z" transform="translate(1013.289 1309.789)" fill="#fff"/>
  </g>
</svg>
