<svg xmlns="http://www.w3.org/2000/svg" width="129.52" height="32.732" viewBox="0 0 129.52 32.732">
  <g id="Group_250" data-name="Group 250" transform="translate(0 0.5)">
    <path id="Path_8347" data-name="Path 8347" d="M20.609-58.946H9.359a4.8,4.8,0,0,1-4-1.894,6.578,6.578,0,0,1-1.327-4.176A6.691,6.691,0,0,1,5.15-68.885a6.616,6.616,0,0,1-1.117-3.83,6.485,6.485,0,0,1,1.327-4.121,4.814,4.814,0,0,1,4-1.875h11.25v4.176H10.087a1.34,1.34,0,0,0-1.125.54A2.023,2.023,0,0,0,8.55-72.73a1.883,1.883,0,0,0,.4,1.209,1.371,1.371,0,0,0,1.141.5H20.609v4.274H9.489a1.424,1.424,0,0,0-.688.68A2.293,2.293,0,0,0,8.55-65a2.059,2.059,0,0,0,.4,1.263,1.335,1.335,0,0,0,1.141.534H20.609Zm21.335,0H37.267L32.1-74.162a.3.3,0,0,0-.34-.243.429.429,0,0,0-.4.243L26.308-58.946H21.565q.4-1.408,1.74-5.6t2.6-7.932a41.333,41.333,0,0,1,1.716-4.63,3.627,3.627,0,0,1,1.7-1.263,6.605,6.605,0,0,1,2.428-.437,6.542,6.542,0,0,1,2.42.437,3.63,3.63,0,0,1,1.692,1.263,32.287,32.287,0,0,1,1.748,4.6q.858,2.525,2.558,7.932Q41.2-61.293,41.945-58.946Zm17.839,0L47.335-63.867v4.921H43.03V-65.5a5.932,5.932,0,0,1,1.166-3.82,4.815,4.815,0,0,1,4-1.7h5.358a1.385,1.385,0,0,0,1.149-.508,1.867,1.867,0,0,0,.4-1.2,1.96,1.96,0,0,0-.389-1.241,1.4,1.4,0,0,0-1.166-.564H43.03v-4.176H54.28a4.83,4.83,0,0,1,4,1.859,6.446,6.446,0,0,1,1.327,4.122,6.421,6.421,0,0,1-1.327,4.106,4.814,4.814,0,0,1-4,1.875H51.56l8.223,3.142ZM74.11-74.534H69.642v15.589H65.32V-74.534H60.868v-4.176H74.11ZM92.078-58.946H87.708v-7.8H79.792v7.8H75.421V-78.711h4.371v7.689h7.916v-7.689h4.371Z" transform="translate(-4.033 86.376)" fill="#fff"/>
    <path id="Subtraction_1" data-name="Subtraction 1" d="M-202.951-7121.136h-16.655a8.594,8.594,0,0,1-8.584-8.584v-14.563a8.594,8.594,0,0,1,8.584-8.584h16.655a8.593,8.593,0,0,1,8.583,8.584v14.563A8.593,8.593,0,0,1-202.951-7121.136Zm-17.224-21.163v17.147h4.955V-7142.3h-4.955Zm6.477,12.761v4.384h2.19a11.423,11.423,0,0,0,4.734-.912,9.461,9.461,0,0,0,3.355-2.51,10.566,10.566,0,0,0,2.011-3.786,16.565,16.565,0,0,0,.664-4.784,14.89,14.89,0,0,0-.813-5.148,10.178,10.178,0,0,0-2.26-3.655,9.31,9.31,0,0,0-3.422-2.193,12.3,12.3,0,0,0-4.269-.73h-2.19v4.385h.894c.313,0,.617.011.9.032.144.011.258.022.359.034a7.618,7.618,0,0,1,1.486.3,5.068,5.068,0,0,1,1.472,1.025,5.042,5.042,0,0,1,1.486,3.588v4.89a5.083,5.083,0,0,1-4.737,5.064c.045,0,.09.006.134.008h.032l-.1,0H-213.7Zm.286-1.4a.234.234,0,0,0-.232.2.232.232,0,0,0,.049.171.231.231,0,0,0,.155.085,4.3,4.3,0,0,0,.531.03,4.541,4.541,0,0,0,1.007-.111,4.6,4.6,0,0,0,3.562-4.456v-.822a.232.232,0,0,0-.232-.231.232.232,0,0,0-.232.231v.822a4.1,4.1,0,0,1-3.1,3.978,4.03,4.03,0,0,1-1.007.125,4.173,4.173,0,0,1-.478-.027Zm-.286-1.033v.479a3.666,3.666,0,0,0,.79.086,3.594,3.594,0,0,0,1.007-.142,3.53,3.53,0,0,0,.485-.18.227.227,0,0,0,.12-.129.229.229,0,0,0-.007-.178.23.23,0,0,0-.21-.136.228.228,0,0,0-.1.021,3.03,3.03,0,0,1-.291.115,3.142,3.142,0,0,1-1.007.165A3.085,3.085,0,0,1-213.7-7131.966Zm3.515-9.274a.224.224,0,0,0-.137.046.232.232,0,0,0-.05.323,3.116,3.116,0,0,1,.609,1.856v4.007a3.148,3.148,0,0,1-1.068,2.36.231.231,0,0,0-.08.161.225.225,0,0,0,.058.166.232.232,0,0,0,.174.079.244.244,0,0,0,.154-.058,3.62,3.62,0,0,0,1.224-2.708v-4.007a3.576,3.576,0,0,0-.7-2.131A.231.231,0,0,0-210.183-7141.24Zm-3.3,8.349a.233.233,0,0,0-.215.145l0,.01c0,.007,0,.014-.007.022a.229.229,0,0,0,.011.144.228.228,0,0,0,.16.137,2.636,2.636,0,0,0,.63.077,2.636,2.636,0,0,0,1.007-.2,2.645,2.645,0,0,0,1.644-2.452v-.42a.232.232,0,0,0-.232-.231.232.232,0,0,0-.232.231v.42a2.18,2.18,0,0,1-1.181,1.94,2.156,2.156,0,0,1-1.007.246,2.21,2.21,0,0,1-.521-.063A.211.211,0,0,0-213.483-7132.891Zm.074-4.069a.232.232,0,0,0-.232.232v1.987a1.215,1.215,0,0,0,1.214,1.214,1.2,1.2,0,0,0,.526-.121,1.208,1.208,0,0,0,.686-1.093v-1.12a.233.233,0,0,0-.232-.233.233.233,0,0,0-.232.233v1.12a.744.744,0,0,1-.223.533.746.746,0,0,1-.526.217.75.75,0,0,1-.749-.75v-1.987A.233.233,0,0,0-213.409-7136.96Zm.5-2.325h.013a.281.281,0,0,1,.257.284v4.172a.232.232,0,0,0,.232.232.233.233,0,0,0,.233-.232V-7139a.739.739,0,0,0-.7-.747h-.04a.726.726,0,0,0-.5.2.736.736,0,0,0-.228.531v1.3a.23.23,0,0,0,.232.233.234.234,0,0,0,.233-.233v-1.3a.271.271,0,0,1,.083-.2A.268.268,0,0,1-212.907-7139.285Zm0-1.917a2.172,2.172,0,0,1,1.007.246,2.182,2.182,0,0,1,1.181,1.94v2.6a.232.232,0,0,0,.232.231.232.232,0,0,0,.232-.231v-2.6a2.644,2.644,0,0,0-1.644-2.452,2.635,2.635,0,0,0-1.007-.2,2.642,2.642,0,0,0-.79.121v.49A2.222,2.222,0,0,1-212.908-7141.2Zm0-1.917a4.138,4.138,0,0,1,1.007.124,4.1,4.1,0,0,1,3.1,3.98v2.256a.229.229,0,0,0,.232.231.232.232,0,0,0,.232-.231v-2.256a4.6,4.6,0,0,0-3.562-4.456,4.531,4.531,0,0,0-1.007-.113,4.587,4.587,0,0,0-.79.07v.47A4.151,4.151,0,0,1-212.908-7143.119Zm0,2.875h.023a1.218,1.218,0,0,1,.982.539,1.252,1.252,0,0,1,.223.714v2.2a.229.229,0,0,0,.232.231.232.232,0,0,0,.232-.231v-2.2a1.735,1.735,0,0,0-.686-1.377,1.65,1.65,0,0,0-.973-.339h-.042a1.691,1.691,0,0,0-.782.194v.558A1.217,1.217,0,0,1-212.906-7140.243Zm1.395-2.078a.232.232,0,0,0-.209.135.234.234,0,0,0,.115.307,3.14,3.14,0,0,1,.485.276.231.231,0,0,0,.133.042.231.231,0,0,0,.19-.1.233.233,0,0,0-.057-.323,3.555,3.555,0,0,0-.558-.316A.215.215,0,0,0-211.511-7142.321Zm-1.4-.3a3.646,3.646,0,0,0-.79.089v.476a3.118,3.118,0,0,1,.79-.1,3.018,3.018,0,0,1,.528.045l.036,0a.234.234,0,0,0,.231-.2.226.226,0,0,0-.04-.172.232.232,0,0,0-.15-.094A3.591,3.591,0,0,0-212.908-7142.625Zm-4.766-6.247a2.481,2.481,0,0,0-.476.046,2.456,2.456,0,0,0-1.978,2.407,2.454,2.454,0,0,0,1.84,2.377l.038.009c.034.008.066.016.1.021a2.276,2.276,0,0,0,.476.047,2.482,2.482,0,0,0,.614-.077,2.413,2.413,0,0,0,.817-.384,2.461,2.461,0,0,0,1.023-1.993,2.466,2.466,0,0,0-1.023-1.993A2.428,2.428,0,0,0-217.674-7148.872Z" transform="translate(323.388 7152.868)" fill="#fff" stroke="rgba(0,0,0,0)" stroke-miterlimit="10" stroke-width="1"/>
  </g>
</svg>
