<svg xmlns="http://www.w3.org/2000/svg" width="18.508" height="13.881" viewBox="0 0 18.508 13.881">
  <g id="Group_742" data-name="Group 742" transform="translate(-1207.017 -1452.353)">
    <path id="Path_25" data-name="Path 25" d="M6.941,64H1.157A1.157,1.157,0,0,0,0,65.157v3.47a1.157,1.157,0,1,0,2.314,0V66.314H6.941a1.157,1.157,0,1,0,0-2.314Z" transform="translate(1207.017 1388.353)" fill="#fff"/>
    <path id="Path_26" data-name="Path 26" d="M294.941,64h-5.784a1.157,1.157,0,0,0,0,2.314h4.627v2.314a1.157,1.157,0,1,0,2.313,0v-3.47A1.157,1.157,0,0,0,294.941,64Z" transform="translate(929.428 1388.353)" fill="#fff"/>
    <path id="Path_27" data-name="Path 27" d="M294.941,288a1.157,1.157,0,0,0-1.157,1.157v2.314h-4.627a1.157,1.157,0,0,0,0,2.314h5.784a1.157,1.157,0,0,0,1.157-1.157v-3.47A1.157,1.157,0,0,0,294.941,288Z" transform="translate(929.428 1172.451)" fill="#fff"/>
    <path id="Path_28" data-name="Path 28" d="M6.941,291.47H2.314v-2.314a1.157,1.157,0,0,0-2.314,0v3.47a1.157,1.157,0,0,0,1.157,1.157H6.941a1.157,1.157,0,0,0,0-2.314Z" transform="translate(1207.017 1172.451)" fill="#fff"/>
  </g>
</svg>
