<svg xmlns="http://www.w3.org/2000/svg" width="50.97" height="50.068" viewBox="0 0 50.97 50.068">
  <path id="Path_43" data-name="Path 43" d="M930.721,1242.612a1.982,1.982,0,0,0-1.947-2.036,1.794,1.794,0,0,0-1.409.628L920,1235.185a1.775,1.775,0,0,0,.269-1.047,1.982,1.982,0,0,0-1.947-2.035,2.006,2.006,0,0,0-1.947,1.827H894.034a1.969,1.969,0,0,0-1.886-1.827,2,2,0,0,0-1.947,2.035,2.515,2.515,0,0,0,.269,1.047l-7.364,6.018a1.995,1.995,0,1,0-1.529,3.445l.689,15.9a2.1,2.1,0,0,0,.329,4.132,1.587,1.587,0,0,0,1.106-.418l5.871,6.707a2.269,2.269,0,0,0-.48,1.315,2.036,2.036,0,0,0,1.947,2.1,1.926,1.926,0,0,0,1.618-.9l10.63,5.87a2.757,2.757,0,0,0-.148.781,1.981,1.981,0,0,0,1.947,2.035,2,2,0,0,0,1.947-2.035c0-.209-.061-.418-.061-.628l10.57-5.122a2.048,2.048,0,0,0,1.677.99,2.041,2.041,0,0,0,1.469-3.352l6.378-7.368a2.315,2.315,0,0,0,.688.149,2.019,2.019,0,0,0,1.947-2.1,2.1,2.1,0,0,0-1.046-1.826l.209-16.11A2.2,2.2,0,0,0,930.721,1242.612Zm-3.593-1.051a2.37,2.37,0,0,0-.269,1.047,2.3,2.3,0,0,0,.628,1.528l-7.158,10.361a2.12,2.12,0,0,0-.99-.27,2,2,0,0,0-1.617.9l-10.631-6.079a2.761,2.761,0,0,0,.149-.781,2.065,2.065,0,0,0-.418-1.26l10.42-11.258a2.008,2.008,0,0,0,1.2.419,1.786,1.786,0,0,0,1.408-.628Zm-44.323,2.878,7.219,10.3a2.267,2.267,0,0,0-.781,1.617,2.527,2.527,0,0,0,.269,1.046l-5.391,3.923a1.911,1.911,0,0,0-1.315-.688l-.688-15.9C882.386,1244.649,882.6,1244.5,882.8,1244.439Zm1.618,17.216,5.392-3.923a1.96,1.96,0,0,0,1.315.628l-.149,11.917a2.345,2.345,0,0,0-.989.358l-5.871-6.707a2.269,2.269,0,0,0,.48-1.315A1.685,1.685,0,0,0,884.422,1261.656Zm8.626-6.019,10.63-6.168a1.718,1.718,0,0,0,1.315.837v12.969a1.872,1.872,0,0,0-1.315.78l-10.779-6.948a1.741,1.741,0,0,0,.209-.838A1.139,1.139,0,0,0,893.049,1255.637Zm1.046-21.292h22.339a2.2,2.2,0,0,0,.418,1.046l-10.421,11.258a2,2,0,0,0-1.2-.418,1.686,1.686,0,0,0-1.046.357l-10.509-11.133A1.7,1.7,0,0,0,894.1,1234.344Zm11.411,28.989v-12.966a2.25,2.25,0,0,0,1.408-.838l10.631,6.08a2.72,2.72,0,0,0-.149.78,1.587,1.587,0,0,0,.209.837l-10.779,6.949A1.78,1.78,0,0,0,905.506,1263.333Zm-14.7-27.789a1.907,1.907,0,0,0,2.607.208l10.509,11.141a1.941,1.941,0,0,0-.568,1.409,2.184,2.184,0,0,0,.149.78l-10.634,6.168a2.051,2.051,0,0,0-1.678-.99,1.752,1.752,0,0,0-.837.209l-7.279-10.3a2.132,2.132,0,0,0,.628-1.469,2.52,2.52,0,0,0-.269-1.046Zm2.246,37.523a2.764,2.764,0,0,0,.148-.781,2.071,2.071,0,0,0-1.677-2.035l.148-11.978a1.543,1.543,0,0,0,1.107-.78l10.779,6.948a1.74,1.74,0,0,0-.209.837,2.02,2.02,0,0,0,1.738,2.035v10.723a2.092,2.092,0,0,0-1.409.9Zm13.924,6.019a1.864,1.864,0,0,0-1.408-.99v-10.722a2.04,2.04,0,0,0,1.738-2.036,1.74,1.74,0,0,0-.209-.837l10.779-6.948a1.951,1.951,0,0,0,1.315.78v12.875a2.04,2.04,0,0,0-1.738,2.036c0,.209.061.418.061.628Zm13.5-7.488a1.473,1.473,0,0,0-.9-.357v-12.875a1.839,1.839,0,0,0,1.2-.628l5.238,4.192a2.316,2.316,0,0,0-.149.688,2.147,2.147,0,0,0,.837,1.678Zm7.428-11.081a1.925,1.925,0,0,0-1.618.9l-5.182-4.132a2.168,2.168,0,0,0,.27-1.046,2.3,2.3,0,0,0-.628-1.529l7.157-10.36a1.786,1.786,0,0,0,.688.269l-.209,15.961C928.206,1260.61,928.057,1260.516,927.9,1260.516Z" transform="translate(-879.751 -1232.103)" fill="#fff"/>
</svg>
