<svg xmlns="http://www.w3.org/2000/svg" xmlns:xlink="http://www.w3.org/1999/xlink" width="70.064" height="70.057" viewBox="0 0 70.064 70.057">
  <defs>
    <linearGradient id="linear-gradient" x1="0.5" x2="0.5" y2="1" gradientUnits="objectBoundingBox">
      <stop offset="0" stop-color="#7400b8"/>
      <stop offset="1" stop-color="#48bfe3"/>
    </linearGradient>
  </defs>
  <path id="Union_1" data-name="Union 1" d="M19.759,65.741l1.008-2.308a31.989,31.989,0,0,0,13.552,3.029,32.74,32.74,0,0,0,14.85-3.6l1.3,2.305a34.558,34.558,0,0,1-30.707.577Zm-9.2-.828a5.173,5.173,0,0,1-1.684-1.124,5.19,5.19,0,0,1,5.655-8.465,5.173,5.173,0,0,1,1.684,1.124,5.194,5.194,0,0,1,0,7.341,5.187,5.187,0,0,1-1.684,1.124,5.173,5.173,0,0,1-3.971,0Zm43.362-2.055a1.154,1.154,0,0,1-1.376-1.152,1.27,1.27,0,0,1,.512-1.012A32.475,32.475,0,0,0,66.615,34.887a31.726,31.726,0,0,0-5.767-18.309l2.017-1.441a34.474,34.474,0,0,1,6.2,19.75A34.454,34.454,0,0,1,57.386,60.261h4.038v2.6ZM9.954,34.454a24.437,24.437,0,0,1,48.874,0,24.437,24.437,0,0,1-48.874,0Zm16.436,8.8L25.093,47l1.3,2.6-2.02,4.038a21.691,21.691,0,0,0,9.66,2.307c.576,0,1.009-.145,1.585-.145a14.2,14.2,0,0,0-.287-2.453l2.595-2.594L35.329,47l1.3-3.748,2.6-1.152h5.045l5.045-2.6,1.3-5.048,5.048-1.3a20.628,20.628,0,0,0-1.3-6.057l-5.048,1.009-3.748-2.594,2.6-3.749.721-3.026a21.6,21.6,0,0,0-14.7-5.766,20.969,20.969,0,0,0-9.517,2.162l3.172,1.586v3.748l3.749,2.594,3.748-1.3,1.3-2.593,3.893,1.3v5.046l-1.3,5.046-3.748,1.3-2.6,3.748-5.047,2.6-5.045-3.75H19.038l-2.6,3.75H12.984A17.682,17.682,0,0,0,15,44.259l3.893-1.009,3.749-2.6ZM0,34.986q0-.337.007-.675A33.858,33.858,0,0,1,6.638,14.128H2.458v-2.6H9.091a1.1,1.1,0,0,1,1.152.865.878.878,0,0,1,.157.479.95.95,0,0,1-.3.675A31.742,31.742,0,0,0,8.081,52.621L6.062,54.063A33.033,33.033,0,0,1,0,34.986Zm52.951-21.4a5.171,5.171,0,1,1,1.985.4A5.179,5.179,0,0,1,52.951,13.589ZM11.829,8.362A34.821,34.821,0,0,1,34.464,0,35.218,35.218,0,0,1,47.871,2.6L46.862,4.9a32.746,32.746,0,0,0-12.4-2.453,31.925,31.925,0,0,0-21.05,7.785Z" transform="translate(0.5 0.5)" stroke="rgba(0,0,0,0)" stroke-miterlimit="10" stroke-width="1" fill="url(#linear-gradient)"/>
</svg>
