<svg xmlns="http://www.w3.org/2000/svg" xmlns:xlink="http://www.w3.org/1999/xlink" width="200" height="199" viewBox="0 0 200 199">
  <defs>
    <linearGradient id="linear-gradient" x1="0.5" x2="0.5" y2="1" gradientUnits="objectBoundingBox">
      <stop offset="0" stop-color="#7400b8"/>
      <stop offset="1" stop-color="#48bfe3"/>
    </linearGradient>
  </defs>
  <g id="Group_1078" data-name="Group 1078" transform="translate(-592 -3289)">
    <g id="Ellipse_79" data-name="Ellipse 79" transform="translate(592 3289)" fill="#323132" stroke="#707070" stroke-width="1" opacity="0.1">
      <ellipse cx="100" cy="99.5" rx="100" ry="99.5" stroke="none"/>
      <ellipse cx="100" cy="99.5" rx="99.5" ry="99" fill="none"/>
    </g>
    <ellipse id="Ellipse_72" data-name="Ellipse 72" cx="70.5" cy="71.5" rx="70.5" ry="71.5" transform="translate(621 3317)" fill="#323132" opacity="0.15"/>
    <circle id="Ellipse_70" data-name="Ellipse 70" cx="54.5" cy="54.5" r="54.5" transform="translate(637 3334)" fill="#fff"/>
    <g id="Group_441" data-name="Group 441" transform="translate(648.325 3345.07)">
      <path id="Path_93" data-name="Path 93" d="M357.184,4606.549q0,2.132-.21,4.26t-.625,4.218q-.416,2.095-1.036,4.138t-1.438,4.015q-.816,1.972-1.823,3.855t-2.193,3.66q-1.188,1.775-2.542,3.425t-2.864,3.161q-1.51,1.509-3.161,2.863a42.571,42.571,0,0,1-3.426,2.541q-1.774,1.189-3.658,2.195t-3.856,1.823q-1.972.817-4.016,1.437t-4.138,1.037q-2.094.417-4.219.625t-4.26.21q-2.137,0-4.261-.21t-4.219-.625q-2.094-.417-4.138-1.037t-4.016-1.437q-1.972-.817-3.856-1.823t-3.658-2.195a42.572,42.572,0,0,1-3.426-2.541q-1.65-1.353-3.161-2.863t-2.864-3.161q-1.354-1.652-2.541-3.425t-2.193-3.66q-1.008-1.884-1.824-3.855t-1.437-4.015q-.62-2.044-1.037-4.138t-.625-4.218q-.209-2.126-.21-4.26t.21-4.261q.209-2.124.625-4.219t1.037-4.138q.62-2.045,1.437-4.017t1.824-3.855q1.006-1.884,2.193-3.658t2.541-3.425q1.354-1.652,2.864-3.161t3.161-2.865q1.65-1.355,3.426-2.541t3.658-2.192q1.883-1.006,3.856-1.823t4.016-1.437q2.044-.621,4.138-1.037t4.219-.625q2.125-.21,4.261-.21t4.26.21q2.126.209,4.219.625t4.138,1.037q2.044.62,4.016,1.437t3.856,1.823q1.883,1.008,3.658,2.192t3.426,2.541q1.65,1.355,3.161,2.865t2.864,3.161q1.356,1.649,2.542,3.425t2.193,3.658q1.006,1.882,1.823,3.855t1.438,4.017q.62,2.044,1.036,4.138t.625,4.219Q357.185,4604.414,357.184,4606.549Z" transform="translate(-270.257 -4563.084)" fill="url(#linear-gradient)"/>
      <g id="cloud-computing" transform="translate(9.675 10.03)">
        <g id="Group_922" data-name="Group 922" transform="translate(12 11.9)">
          <path id="Path_8846" data-name="Path 8846" d="M47.478,39.611h-2.7V38.9a1.828,1.828,0,0,0-1.832-1.832h-2.11V32.984a7.651,7.651,0,0,0-15.3,0V37.07h-2.11A1.828,1.828,0,0,0,21.59,38.9v.709H20.522a4.962,4.962,0,0,1-4.858-5.047,5.162,5.162,0,0,1,1.3-3.43,1.841,1.841,0,0,0,.35-1.877,10.318,10.318,0,0,1-.682-3.673,9.884,9.884,0,0,1,9.707-10.03A9.7,9.7,0,0,1,35.3,21.724a1.847,1.847,0,0,0,1.221,1.087,1.817,1.817,0,0,0,1.6-.314,5.453,5.453,0,0,1,3.349-1.158,5.746,5.746,0,0,1,5.63,5.846,4.886,4.886,0,0,1-.027.512,1.837,1.837,0,0,0,1.428,1.94,5.03,5.03,0,0,1,3.834,4.93A4.962,4.962,0,0,1,47.478,39.611ZM37.161,37.07H29.2V32.984a3.987,3.987,0,0,1,7.974,0V37.07Zm3.951,15.175H25.254V40.733H41.112Zm9.626-25.717a9.406,9.406,0,0,0-9.276-8.845,9.049,9.049,0,0,0-3.709.79A13.257,13.257,0,0,0,26.34,11.9,13.55,13.55,0,0,0,12.97,25.594a13.833,13.833,0,0,0,.584,3.969,8.811,8.811,0,0,0-1.553,5,8.628,8.628,0,0,0,8.522,8.71H21.59V54.068A1.828,1.828,0,0,0,23.422,55.9H42.944a1.828,1.828,0,0,0,1.832-1.832V43.284h2.7A8.628,8.628,0,0,0,56,34.573,8.762,8.762,0,0,0,50.738,26.528Z" transform="translate(-12 -11.9)" fill="#fff"/>
          <path id="Path_8847" data-name="Path 8847" d="M229.332,382.987a1.828,1.828,0,0,0,1.832-1.832v-2.523a1.832,1.832,0,1,0-3.664,0v2.523A1.834,1.834,0,0,0,229.332,382.987Z" transform="translate(-208.149 -344.034)" fill="#fff"/>
        </g>
      </g>
    </g>
  </g>
</svg>
