<svg xmlns="http://www.w3.org/2000/svg" xmlns:xlink="http://www.w3.org/1999/xlink" width="73.646" height="70" viewBox="0 0 73.646 70">
  <defs>
    <linearGradient id="linear-gradient" x1="0.5" x2="0.5" y2="1" gradientUnits="objectBoundingBox">
      <stop offset="0" stop-color="#7400b8"/>
      <stop offset="1" stop-color="#48bfe3"/>
    </linearGradient>
  </defs>
  <g id="home_5_" data-name="home (5)" transform="translate(0 -12.676)">
    <g id="Group_892" data-name="Group 892" transform="translate(0 12.676)">
      <path id="Path_8821" data-name="Path 8821" d="M72.41,43.775l-6.222-5.669v-18.8a2.166,2.166,0,0,0-2.166-2.166H49.046a2.166,2.166,0,0,0-2.166,2.166v1.2l-7.514-6.846a3.759,3.759,0,0,0-5.087,0L1.237,43.775a3.776,3.776,0,0,0,2.544,6.568H9.058V80.51a2.166,2.166,0,0,0,2.166,2.166H29.335A2.166,2.166,0,0,0,31.5,80.51V62.193H42.145V80.51a2.166,2.166,0,0,0,2.166,2.166H62.422a2.166,2.166,0,0,0,2.166-2.166V50.343h5.279a3.777,3.777,0,0,0,2.544-6.568Zm-9.988,2.237a2.166,2.166,0,0,0-2.166,2.166V78.344H46.477V60.028a2.166,2.166,0,0,0-2.166-2.166H29.335a2.166,2.166,0,0,0-2.166,2.166V78.344H13.39V48.177a2.166,2.166,0,0,0-2.166-2.166H5.214l31.61-28.8,10.764,9.809a2.166,2.166,0,0,0,3.624-1.6V21.474H61.857V39.063a2.166,2.166,0,0,0,.707,1.6l5.869,5.348Z" transform="translate(0 -12.675)" fill="url(#linear-gradient)"/>
    </g>
  </g>
</svg>
