<svg xmlns="http://www.w3.org/2000/svg" xmlns:xlink="http://www.w3.org/1999/xlink" width="70.743" height="56.789" viewBox="0 0 70.743 56.789">
  <defs>
    <linearGradient id="linear-gradient" x1="0.5" x2="0.5" y2="1" gradientUnits="objectBoundingBox">
      <stop offset="0" stop-color="#7400b8"/>
      <stop offset="1" stop-color="#48bfe3"/>
    </linearGradient>
  </defs>
  <g id="next_24_" data-name="next (24)" transform="translate(0.5 -47.516)">
    <g id="Group_888" data-name="Group 888" transform="translate(32.547 48.016)">
      <g id="Group_887" data-name="Group 887" transform="translate(0 0)">
        <path id="Path_8814" data-name="Path 8814" d="M258.471,69.334l-18.6-18.6a9.3,9.3,0,1,0-13.149,13.149l12.024,12.024L226.725,87.932a9.3,9.3,0,1,0,13.149,13.149l18.6-18.6a9.294,9.294,0,0,0,0-13.149ZM255.184,79.2l-18.6,18.6a4.758,4.758,0,0,1-6.574,0,4.653,4.653,0,0,1,0-6.574l15.311-15.311L230.012,60.6a4.65,4.65,0,0,1,6.574-6.579l18.6,18.6a4.653,4.653,0,0,1,0,6.579Z" transform="translate(-224 -48.016)" stroke="#fff" stroke-width="1" fill="url(#linear-gradient)"/>
      </g>
    </g>
    <g id="Group_890" data-name="Group 890" transform="translate(0 48.016)">
      <g id="Group_889" data-name="Group 889" transform="translate(0 0)">
        <path id="Path_8815" data-name="Path 8815" d="M34.471,69.334l-18.6-18.6A9.3,9.3,0,1,0,2.725,63.885L14.748,75.908,2.725,87.932a9.3,9.3,0,1,0,13.149,13.149l18.6-18.6a9.294,9.294,0,0,0,0-13.149ZM31.184,79.2l-18.6,18.6a4.758,4.758,0,0,1-6.574,0,4.653,4.653,0,0,1,0-6.574L21.323,75.908,6.012,60.6a4.65,4.65,0,0,1,6.574-6.579l18.6,18.6a4.653,4.653,0,0,1,0,6.579Z" transform="translate(0 -48.016)" stroke="#fff" stroke-width="1" fill="url(#linear-gradient)"/>
      </g>
    </g>
  </g>
</svg>
