<svg xmlns="http://www.w3.org/2000/svg" xmlns:xlink="http://www.w3.org/1999/xlink" width="69.224" height="68" viewBox="0 0 69.224 68">
  <defs>
    <linearGradient id="linear-gradient" x1="0.5" x2="0.5" y2="1" gradientUnits="objectBoundingBox">
      <stop offset="0" stop-color="#7400b8"/>
      <stop offset="1" stop-color="#48bfe3"/>
    </linearGradient>
  </defs>
  <path id="Path_8829" data-name="Path 8829" d="M948.975,1246.376a2.692,2.692,0,0,0-2.645-2.766,2.436,2.436,0,0,0-1.913.852l-10.005-8.173a2.411,2.411,0,0,0,.366-1.422,2.691,2.691,0,0,0-2.645-2.764,2.724,2.724,0,0,0-2.645,2.481H899.149a2.674,2.674,0,0,0-2.562-2.481,2.72,2.72,0,0,0-2.645,2.764,3.416,3.416,0,0,0,.366,1.422l-10,8.173a2.709,2.709,0,1,0-2.076,4.679l.936,21.6a2.847,2.847,0,0,0,.447,5.612,2.155,2.155,0,0,0,1.5-.568l7.974,9.109a3.082,3.082,0,0,0-.651,1.787,2.765,2.765,0,0,0,2.645,2.847,2.615,2.615,0,0,0,2.2-1.218l14.436,7.972a3.746,3.746,0,0,0-.2,1.061,2.691,2.691,0,0,0,2.645,2.764,2.72,2.72,0,0,0,2.645-2.764c0-.284-.083-.568-.083-.852l14.356-6.957a2.782,2.782,0,0,0,2.278,1.345,2.772,2.772,0,0,0,1.995-4.552l8.662-10.007a3.141,3.141,0,0,0,.934.2,2.742,2.742,0,0,0,2.645-2.847,2.85,2.85,0,0,0-1.421-2.48l.284-21.88A2.988,2.988,0,0,0,948.975,1246.376Zm-4.88-1.427a3.219,3.219,0,0,0-.366,1.422,3.119,3.119,0,0,0,.852,2.075l-9.721,14.072a2.878,2.878,0,0,0-1.345-.367,2.721,2.721,0,0,0-2.2,1.22l-14.438-8.256a3.749,3.749,0,0,0,.2-1.061,2.8,2.8,0,0,0-.568-1.711l14.152-15.291a2.726,2.726,0,0,0,1.629.57,2.425,2.425,0,0,0,1.912-.852Zm-60.2,3.908,9.8,13.989a3.079,3.079,0,0,0-1.061,2.2,3.432,3.432,0,0,0,.366,1.421l-7.322,5.328a2.6,2.6,0,0,0-1.787-.934l-.934-21.6C883.33,1249.142,883.614,1248.939,883.9,1248.858Zm2.2,23.382,7.323-5.327a2.661,2.661,0,0,0,1.787.852l-.2,16.185a3.187,3.187,0,0,0-1.344.487l-7.974-9.109a3.083,3.083,0,0,0,.651-1.786A2.289,2.289,0,0,0,886.1,1272.24Zm11.716-8.175,14.436-8.377a2.332,2.332,0,0,0,1.787,1.136v17.613a2.542,2.542,0,0,0-1.787,1.059l-14.639-9.437a2.364,2.364,0,0,0,.284-1.138A1.547,1.547,0,0,0,897.812,1264.065Zm1.421-28.918h30.339a2.986,2.986,0,0,0,.568,1.421l-14.154,15.29a2.72,2.72,0,0,0-1.628-.568,2.29,2.29,0,0,0-1.421.485l-14.273-15.12A2.316,2.316,0,0,0,899.232,1235.147Zm15.5,39.371v-17.61a3.057,3.057,0,0,0,1.912-1.138l14.438,8.258a3.694,3.694,0,0,0-.2,1.059,2.155,2.155,0,0,0,.284,1.136l-14.639,9.438A2.418,2.418,0,0,0,914.73,1274.518Zm-19.968-37.741a2.589,2.589,0,0,0,3.541.283l14.273,15.132a2.637,2.637,0,0,0-.771,1.913,2.967,2.967,0,0,0,.2,1.059l-14.442,8.377a2.786,2.786,0,0,0-2.279-1.345,2.378,2.378,0,0,0-1.136.284l-9.886-13.989a2.9,2.9,0,0,0,.852-2,3.42,3.42,0,0,0-.366-1.421Zm3.05,50.961a3.755,3.755,0,0,0,.2-1.061,2.813,2.813,0,0,0-2.278-2.764l.2-16.268a2.1,2.1,0,0,0,1.5-1.06l14.639,9.437a2.363,2.363,0,0,0-.284,1.137,2.743,2.743,0,0,0,2.361,2.764v14.563a2.841,2.841,0,0,0-1.913,1.22Zm18.911,8.175a2.531,2.531,0,0,0-1.912-1.345v-14.562a2.771,2.771,0,0,0,2.361-2.766,2.364,2.364,0,0,0-.284-1.137l14.639-9.437a2.65,2.65,0,0,0,1.786,1.059v17.486a2.771,2.771,0,0,0-2.361,2.766c0,.284.083.568.083.852Zm18.339-10.17a2,2,0,0,0-1.218-.485v-17.487a2.5,2.5,0,0,0,1.629-.853l7.114,5.693a3.147,3.147,0,0,0-.2.934,2.916,2.916,0,0,0,1.137,2.279Zm10.088-15.05a2.615,2.615,0,0,0-2.2,1.22l-7.038-5.612a2.945,2.945,0,0,0,.367-1.421,3.127,3.127,0,0,0-.852-2.076l9.721-14.071a2.424,2.424,0,0,0,.934.365l-.284,21.677C945.56,1270.819,945.357,1270.692,945.15,1270.692Z" transform="translate(-879.751 -1232.103)" fill="url(#linear-gradient)"/>
</svg>
