<svg xmlns="http://www.w3.org/2000/svg" xmlns:xlink="http://www.w3.org/1999/xlink" width="200" height="199" viewBox="0 0 200 199">
  <defs>
    <linearGradient id="linear-gradient" x1="0.5" x2="0.5" y2="1" gradientUnits="objectBoundingBox">
      <stop offset="0" stop-color="#7400b8"/>
      <stop offset="1" stop-color="#48bfe3"/>
    </linearGradient>
  </defs>
  <g id="Group_1075" data-name="Group 1075" transform="translate(-598 -2867)">
    <g id="Ellipse_79" data-name="Ellipse 79" transform="translate(598 2867)" fill="#323132" stroke="#707070" stroke-width="1" opacity="0.1">
      <ellipse cx="100" cy="99.5" rx="100" ry="99.5" stroke="none"/>
      <ellipse cx="100" cy="99.5" rx="99.5" ry="99" fill="none"/>
    </g>
    <ellipse id="Ellipse_72" data-name="Ellipse 72" cx="70.5" cy="71.5" rx="70.5" ry="71.5" transform="translate(627 2895)" fill="#323132" opacity="0.15"/>
    <circle id="Ellipse_70" data-name="Ellipse 70" cx="54.5" cy="54.5" r="54.5" transform="translate(643 2912)" fill="#fff"/>
    <path id="Path_93" data-name="Path 93" d="M357.184,4606.549q0,2.132-.21,4.26t-.625,4.218q-.416,2.095-1.036,4.138t-1.438,4.015q-.816,1.972-1.823,3.855t-2.193,3.66q-1.188,1.775-2.542,3.425t-2.864,3.161q-1.51,1.509-3.161,2.863a42.571,42.571,0,0,1-3.426,2.541q-1.774,1.189-3.658,2.195t-3.856,1.823q-1.972.817-4.016,1.437t-4.138,1.037q-2.094.417-4.219.625t-4.26.21q-2.137,0-4.261-.21t-4.219-.625q-2.094-.417-4.138-1.037t-4.016-1.437q-1.972-.817-3.856-1.823t-3.658-2.195a42.572,42.572,0,0,1-3.426-2.541q-1.65-1.353-3.161-2.863t-2.864-3.161q-1.354-1.652-2.541-3.425t-2.193-3.66q-1.008-1.884-1.824-3.855t-1.437-4.015q-.62-2.044-1.037-4.138t-.625-4.218q-.209-2.126-.21-4.26t.21-4.261q.209-2.124.625-4.219t1.037-4.138q.62-2.045,1.437-4.017t1.824-3.855q1.006-1.884,2.193-3.658t2.541-3.425q1.354-1.652,2.864-3.161t3.161-2.865q1.65-1.355,3.426-2.541t3.658-2.192q1.883-1.006,3.856-1.823t4.016-1.437q2.044-.621,4.138-1.037t4.219-.625q2.125-.21,4.261-.21t4.26.21q2.126.209,4.219.625t4.138,1.037q2.044.62,4.016,1.437t3.856,1.823q1.883,1.008,3.658,2.192t3.426,2.541q1.65,1.355,3.161,2.865t2.864,3.161q1.356,1.649,2.542,3.425t2.193,3.658q1.006,1.882,1.823,3.855t1.438,4.017q.62,2.044,1.036,4.138t.625,4.219Q357.185,4604.414,357.184,4606.549Z" transform="translate(383.743 -1640.084)" fill="url(#linear-gradient)"/>
    <g id="Group_731" data-name="Group 731" transform="translate(-3.436 1433.429)">
      <path id="Union_1" data-name="Union 1" d="M14.859,49.436l.758-1.736a24.055,24.055,0,0,0,10.191,2.278,24.62,24.62,0,0,0,11.167-2.709L37.95,49a25.987,25.987,0,0,1-23.091.434Zm-6.915-.623a3.89,3.89,0,0,1-1.266-.846A3.9,3.9,0,0,1,10.931,41.6a3.89,3.89,0,0,1,1.267.846,3.906,3.906,0,0,1,0,5.52,3.9,3.9,0,0,1-1.267.846,3.89,3.89,0,0,1-2.986,0Zm32.608-1.545a.868.868,0,0,1-1.034-.866.955.955,0,0,1,.385-.761A24.421,24.421,0,0,0,50.093,26.235a23.858,23.858,0,0,0-4.337-13.768l1.517-1.083a25.924,25.924,0,0,1,4.662,14.852,25.909,25.909,0,0,1-8.782,19.08H46.19v1.953ZM7.486,25.909a18.376,18.376,0,0,1,36.753,0,18.376,18.376,0,0,1-36.753,0Zm12.36,6.614-.976,2.818.976,1.952-1.519,3.036a16.311,16.311,0,0,0,7.264,1.735c.433,0,.759-.109,1.192-.109a10.68,10.68,0,0,0-.216-1.844l1.951-1.95-1.951-2.819.975-2.818,1.952-.866h3.794l3.794-1.952.976-3.8,3.8-.974a15.512,15.512,0,0,0-.976-4.555l-3.8.759-2.818-1.95,1.952-2.819.542-2.276A16.243,16.243,0,0,0,25.7,9.758a15.768,15.768,0,0,0-7.156,1.626l2.385,1.193v2.819l2.819,1.951,2.819-.976.975-1.95,2.928.975v3.795l-.976,3.795-2.818.976-1.952,2.818-3.8,1.952-3.794-2.82H14.317l-1.952,2.82h-2.6a13.3,13.3,0,0,0,1.516,4.553l2.928-.759,2.819-1.952ZM0,26.309q0-.253.005-.507A25.461,25.461,0,0,1,4.992,10.624H1.848V8.672H6.836a.823.823,0,0,1,.867.65.66.66,0,0,1,.118.36.714.714,0,0,1-.226.507A23.869,23.869,0,0,0,6.077,39.57L4.559,40.655A24.84,24.84,0,0,1,0,26.309Zm39.818-16.09a3.889,3.889,0,1,1,1.493.3A3.894,3.894,0,0,1,39.818,10.219ZM8.9,6.288A26.185,26.185,0,0,1,25.917,0,26.484,26.484,0,0,1,36,1.952L35.24,3.687a24.625,24.625,0,0,0-9.323-1.844A24.007,24.007,0,0,0,10.088,7.7Z" transform="translate(675.435 1507.571)" fill="#fff" stroke="rgba(0,0,0,0)" stroke-miterlimit="10" stroke-width="1"/>
    </g>
  </g>
</svg>
