<svg xmlns="http://www.w3.org/2000/svg" xmlns:xlink="http://www.w3.org/1999/xlink" width="200" height="199" viewBox="0 0 200 199">
  <defs>
    <linearGradient id="linear-gradient" x1="0.5" x2="0.5" y2="1" gradientUnits="objectBoundingBox">
      <stop offset="0" stop-color="#7400b8"/>
      <stop offset="1" stop-color="#48bfe3"/>
    </linearGradient>
  </defs>
  <g id="Group_1076" data-name="Group 1076" transform="translate(-983 -2867)">
    <g id="Ellipse_79" data-name="Ellipse 79" transform="translate(983 2867)" fill="#323132" stroke="#707070" stroke-width="1" opacity="0.1">
      <ellipse cx="100" cy="99.5" rx="100" ry="99.5" stroke="none"/>
      <ellipse cx="100" cy="99.5" rx="99.5" ry="99" fill="none"/>
    </g>
    <ellipse id="Ellipse_72" data-name="Ellipse 72" cx="70.5" cy="71.5" rx="70.5" ry="71.5" transform="translate(1012 2895)" fill="#323132" opacity="0.15"/>
    <circle id="Ellipse_70" data-name="Ellipse 70" cx="54.5" cy="54.5" r="54.5" transform="translate(1028 2912)" fill="#fff"/>
    <g id="Group_441" data-name="Group 441" transform="translate(1039.325 2923.07)">
      <path id="Path_93" data-name="Path 93" d="M357.184,4606.549q0,2.132-.21,4.26t-.625,4.218q-.416,2.095-1.036,4.138t-1.438,4.015q-.816,1.972-1.823,3.855t-2.193,3.66q-1.188,1.775-2.542,3.425t-2.864,3.161q-1.51,1.509-3.161,2.863a42.571,42.571,0,0,1-3.426,2.541q-1.774,1.189-3.658,2.195t-3.856,1.823q-1.972.817-4.016,1.437t-4.138,1.037q-2.094.417-4.219.625t-4.26.21q-2.137,0-4.261-.21t-4.219-.625q-2.094-.417-4.138-1.037t-4.016-1.437q-1.972-.817-3.856-1.823t-3.658-2.195a42.572,42.572,0,0,1-3.426-2.541q-1.65-1.353-3.161-2.863t-2.864-3.161q-1.354-1.652-2.541-3.425t-2.193-3.66q-1.008-1.884-1.824-3.855t-1.437-4.015q-.62-2.044-1.037-4.138t-.625-4.218q-.209-2.126-.21-4.26t.21-4.261q.209-2.124.625-4.219t1.037-4.138q.62-2.045,1.437-4.017t1.824-3.855q1.006-1.884,2.193-3.658t2.541-3.425q1.354-1.652,2.864-3.161t3.161-2.865q1.65-1.355,3.426-2.541t3.658-2.192q1.883-1.006,3.856-1.823t4.016-1.437q2.044-.621,4.138-1.037t4.219-.625q2.125-.21,4.261-.21t4.26.21q2.126.209,4.219.625t4.138,1.037q2.044.62,4.016,1.437t3.856,1.823q1.883,1.008,3.658,2.192t3.426,2.541q1.65,1.355,3.161,2.865t2.864,3.161q1.356,1.649,2.542,3.425t2.193,3.658q1.006,1.882,1.823,3.855t1.438,4.017q.62,2.044,1.036,4.138t.625,4.219Q357.185,4604.414,357.184,4606.549Z" transform="translate(-270.257 -4563.154)" fill="url(#linear-gradient)"/>
      <g id="smartphone_2_" data-name="smartphone (2)" transform="translate(26.008 19.93)">
        <g id="Group_911" data-name="Group 911">
          <g id="Group_910" data-name="Group 910">
            <path id="Path_8834" data-name="Path 8834" d="M20.708,0H6.9A6.91,6.91,0,0,0,0,6.9V40.43a6.91,6.91,0,0,0,6.9,6.9H8.875a.986.986,0,0,0,0-1.972H6.9a4.937,4.937,0,0,1-4.93-4.93V6.9A4.937,4.937,0,0,1,6.9,1.972H20.708a4.937,4.937,0,0,1,4.93,4.93v9.861a.986.986,0,1,0,1.972,0V6.9A6.91,6.91,0,0,0,20.708,0Z" fill="#fff"/>
          </g>
        </g>
        <g id="Group_913" data-name="Group 913" transform="translate(0 7.889)">
          <g id="Group_912" data-name="Group 912">
            <path id="Path_8835" data-name="Path 8835" d="M26.625,85.333H.986a.986.986,0,1,0,0,1.972H26.625a.986.986,0,1,0,0-1.972Z" transform="translate(0 -85.333)" fill="#fff"/>
          </g>
        </g>
        <g id="Group_915" data-name="Group 915" transform="translate(0 35.5)">
          <g id="Group_914" data-name="Group 914">
            <path id="Path_8836" data-name="Path 8836" d="M17.75,384H.986a.986.986,0,1,0,0,1.972H17.75a.986.986,0,1,0,0-1.972Z" transform="translate(0 -384)" fill="#fff"/>
          </g>
        </g>
        <g id="Group_917" data-name="Group 917" transform="translate(9.861 3.944)">
          <g id="Group_916" data-name="Group 916">
            <path id="Path_8837" data-name="Path 8837" d="M113.569,42.667h-5.917a.986.986,0,1,0,0,1.972h5.917a.986.986,0,1,0,0-1.972Z" transform="translate(-106.666 -42.667)" fill="#fff"/>
          </g>
        </g>
        <g id="Group_919" data-name="Group 919" transform="translate(19.752 3.944)">
          <g id="Group_918" data-name="Group 918">
            <path id="Path_8838" data-name="Path 8838" d="M214.65,42.667h-.02a.978.978,0,0,0-.976.986.991.991,0,1,0,1-.986Z" transform="translate(-213.654 -42.667)" fill="#fff"/>
          </g>
        </g>
        <g id="Group_921" data-name="Group 921" transform="translate(9.043 16.853)">
          <g id="Group_920" data-name="Group 920">
            <path id="Path_8839" data-name="Path 8839" d="M133.289,191.551l-7.415-8.149a3.775,3.775,0,0,0-5.339.012,3.691,3.691,0,0,0-.955,1.631,3.778,3.778,0,0,0-5.919,1.97,3.78,3.78,0,0,0-5.907,1.935l-3.495-3.495a3.775,3.775,0,0,0-5.339,5.339l13.427,13.427-7.964,1.25a4.418,4.418,0,0,0-3.775,4.353,2.962,2.962,0,0,0,2.958,2.958h18.6a10.775,10.775,0,0,0,7.67-3.177l3.1-3.1a10.833,10.833,0,0,0,.353-14.951Zm-1.747,13.557-3.1,3.1a8.817,8.817,0,0,1-6.276,2.6h-18.6a.987.987,0,0,1-.986-.986,2.444,2.444,0,0,1,2.094-2.4l9.891-1.554a.985.985,0,0,0,.544-1.67l-14.8-14.8a1.8,1.8,0,0,1,2.552-2.548l9.867,9.867a.986.986,0,0,0,1.394-1.394l-4.029-4.029a1.8,1.8,0,0,1,2.55-2.55l4.029,4.029a.985.985,0,0,0,1.682-.7.976.976,0,0,0-.28-.688l-2.057-2.057a1.8,1.8,0,0,1,2.55-2.55l2.057,2.057,0,0,0,0,0,0,0,0h0a0,0,0,0,1,0,0,.986.986,0,0,0,1.375-1.414l-.085-.085a1.8,1.8,0,0,1,2.517-2.584l7.384,8.116a8.864,8.864,0,0,1-.29,12.23Z" transform="translate(-97.819 -182.302)" fill="#fff"/>
          </g>
        </g>
      </g>
    </g>
  </g>
</svg>
