<svg xmlns="http://www.w3.org/2000/svg" xmlns:xlink="http://www.w3.org/1999/xlink" width="200" height="199" viewBox="0 0 200 199">
  <defs>
    <linearGradient id="linear-gradient" x1="0.5" x2="0.5" y2="1" gradientUnits="objectBoundingBox">
      <stop offset="0" stop-color="#7400b8"/>
      <stop offset="1" stop-color="#48bfe3"/>
    </linearGradient>
  </defs>
  <g id="Group_1079" data-name="Group 1079" transform="translate(-213 -3289)">
    <g id="Ellipse_79" data-name="Ellipse 79" transform="translate(213 3289)" fill="#323132" stroke="#707070" stroke-width="1" opacity="0.1">
      <ellipse cx="100" cy="99.5" rx="100" ry="99.5" stroke="none"/>
      <ellipse cx="100" cy="99.5" rx="99.5" ry="99" fill="none"/>
    </g>
    <ellipse id="Ellipse_72" data-name="Ellipse 72" cx="70.5" cy="71.5" rx="70.5" ry="71.5" transform="translate(242 3317)" fill="#323132" opacity="0.15"/>
    <circle id="Ellipse_70" data-name="Ellipse 70" cx="54.5" cy="54.5" r="54.5" transform="translate(258 3334)" fill="#fff"/>
    <g id="Group_441" data-name="Group 441" transform="translate(269.325 3345.07)">
      <path id="Path_93" data-name="Path 93" d="M357.184,4606.549q0,2.132-.21,4.26t-.625,4.218q-.416,2.095-1.036,4.138t-1.438,4.015q-.816,1.972-1.823,3.855t-2.193,3.66q-1.188,1.775-2.542,3.425t-2.864,3.161q-1.51,1.509-3.161,2.863a42.571,42.571,0,0,1-3.426,2.541q-1.774,1.189-3.658,2.195t-3.856,1.823q-1.972.817-4.016,1.437t-4.138,1.037q-2.094.417-4.219.625t-4.26.21q-2.137,0-4.261-.21t-4.219-.625q-2.094-.417-4.138-1.037t-4.016-1.437q-1.972-.817-3.856-1.823t-3.658-2.195a42.572,42.572,0,0,1-3.426-2.541q-1.65-1.353-3.161-2.863t-2.864-3.161q-1.354-1.652-2.541-3.425t-2.193-3.66q-1.008-1.884-1.824-3.855t-1.437-4.015q-.62-2.044-1.037-4.138t-.625-4.218q-.209-2.126-.21-4.26t.21-4.261q.209-2.124.625-4.219t1.037-4.138q.62-2.045,1.437-4.017t1.824-3.855q1.006-1.884,2.193-3.658t2.541-3.425q1.354-1.652,2.864-3.161t3.161-2.865q1.65-1.355,3.426-2.541t3.658-2.192q1.883-1.006,3.856-1.823t4.016-1.437q2.044-.621,4.138-1.037t4.219-.625q2.125-.21,4.261-.21t4.26.21q2.126.209,4.219.625t4.138,1.037q2.044.62,4.016,1.437t3.856,1.823q1.883,1.008,3.658,2.192t3.426,2.541q1.65,1.355,3.161,2.865t2.864,3.161q1.356,1.649,2.542,3.425t2.193,3.658q1.006,1.882,1.823,3.855t1.438,4.017q.62,2.044,1.036,4.138t.625,4.219Q357.185,4604.414,357.184,4606.549Z" transform="translate(-270.582 -4563.154)" fill="url(#linear-gradient)"/>
      <g id="_16-express" data-name="16-express" transform="translate(12.675 15.93)">
        <g id="linear_color" data-name="linear color" transform="translate(4 4)">
          <path id="Path_8840" data-name="Path 8840" d="M180.563,19.189l1.345-1.345a1.254,1.254,0,1,0-1.773-1.773l-1.4,1.4a18.752,18.752,0,0,0-8.164-3.9V10.688h1.254a1.254,1.254,0,0,0,1.254-1.254V5.254A1.254,1.254,0,0,0,171.825,4H161.794a1.254,1.254,0,0,0-1.254,1.254v4.18a1.254,1.254,0,0,0,1.254,1.254h1.254v2.886a18.751,18.751,0,0,0-8.164,3.9l-1.4-1.4a1.254,1.254,0,1,0-1.773,1.773l1.345,1.345a18.81,18.81,0,1,0,27.508,0ZM163.048,6.508h7.524V8.18h-7.524Zm2.508,4.18h2.508v2.551c-.415-.027-.833-.043-1.254-.043s-.839.015-1.254.043Zm1.254,37.619a16.3,16.3,0,1,1,16.3-16.3A16.32,16.32,0,0,1,166.81,48.307Z" transform="translate(-132.952 -4)" fill="#fff"/>
          <path id="Path_8841" data-name="Path 8841" d="M209.794,140a13.794,13.794,0,1,0,13.794,13.794A13.809,13.809,0,0,0,209.794,140Zm11.216,12.54h-9.962v-9.962a11.307,11.307,0,0,1,9.962,9.962Zm-11.216,12.54a11.286,11.286,0,0,1-1.254-22.5v11.216a1.254,1.254,0,0,0,1.254,1.254h11.216a11.3,11.3,0,0,1-11.216,10.032Z" transform="translate(-175.936 -125.788)" fill="#fff"/>
          <path id="Path_8842" data-name="Path 8842" d="M53.614,188h-8.36a1.254,1.254,0,0,0,0,2.508h8.36a1.254,1.254,0,1,0,0-2.508Z" transform="translate(-39.82 -168.772)" fill="#fff"/>
          <path id="Path_8843" data-name="Path 8843" d="M38.868,285.254A1.254,1.254,0,0,0,37.614,284h-8.36a1.254,1.254,0,1,0,0,2.508h8.36A1.254,1.254,0,0,0,38.868,285.254Z" transform="translate(-25.492 -254.741)" fill="#fff"/>
          <path id="Path_8844" data-name="Path 8844" d="M67.106,332H61.254a1.254,1.254,0,0,0,0,2.508h5.852a1.254,1.254,0,0,0,0-2.508Z" transform="translate(-54.148 -297.725)" fill="#fff"/>
          <path id="Path_8845" data-name="Path 8845" d="M17.376,237.254A1.254,1.254,0,0,0,16.122,236H5.254a1.254,1.254,0,0,0,0,2.508H16.122A1.254,1.254,0,0,0,17.376,237.254Z" transform="translate(-4 -211.757)" fill="#fff"/>
        </g>
      </g>
    </g>
  </g>
</svg>
