<svg xmlns="http://www.w3.org/2000/svg" xmlns:xlink="http://www.w3.org/1999/xlink" width="200" height="199" viewBox="0 0 200 199">
  <defs>
    <linearGradient id="linear-gradient" x1="0.5" x2="0.5" y2="1" gradientUnits="objectBoundingBox">
      <stop offset="0" stop-color="#7400b8"/>
      <stop offset="1" stop-color="#48bfe3"/>
    </linearGradient>
  </defs>
  <g id="Group_1074" data-name="Group 1074" transform="translate(-213 -2867)">
    <g id="Ellipse_79" data-name="Ellipse 79" transform="translate(213 2867)" fill="#323132" stroke="#707070" stroke-width="1" opacity="0.1">
      <ellipse cx="100" cy="99.5" rx="100" ry="99.5" stroke="none"/>
      <ellipse cx="100" cy="99.5" rx="99.5" ry="99" fill="none"/>
    </g>
    <ellipse id="Ellipse_72" data-name="Ellipse 72" cx="70.5" cy="71.5" rx="70.5" ry="71.5" transform="translate(242 2895)" fill="#323132" opacity="0.15"/>
    <circle id="Ellipse_70" data-name="Ellipse 70" cx="54.5" cy="54.5" r="54.5" transform="translate(258 2912)" fill="#fff"/>
    <path id="Path_93" data-name="Path 93" d="M357.184,4606.549q0,2.132-.21,4.26t-.625,4.218q-.416,2.095-1.036,4.138t-1.438,4.015q-.816,1.972-1.823,3.855t-2.193,3.66q-1.188,1.775-2.542,3.425t-2.864,3.161q-1.51,1.509-3.161,2.863a42.571,42.571,0,0,1-3.426,2.541q-1.774,1.189-3.658,2.195t-3.856,1.823q-1.972.817-4.016,1.437t-4.138,1.037q-2.094.417-4.219.625t-4.26.21q-2.137,0-4.261-.21t-4.219-.625q-2.094-.417-4.138-1.037t-4.016-1.437q-1.972-.817-3.856-1.823t-3.658-2.195a42.572,42.572,0,0,1-3.426-2.541q-1.65-1.353-3.161-2.863t-2.864-3.161q-1.354-1.652-2.541-3.425t-2.193-3.66q-1.008-1.884-1.824-3.855t-1.437-4.015q-.62-2.044-1.037-4.138t-.625-4.218q-.209-2.126-.21-4.26t.21-4.261q.209-2.124.625-4.219t1.037-4.138q.62-2.045,1.437-4.017t1.824-3.855q1.006-1.884,2.193-3.658t2.541-3.425q1.354-1.652,2.864-3.161t3.161-2.865q1.65-1.355,3.426-2.541t3.658-2.192q1.883-1.006,3.856-1.823t4.016-1.437q2.044-.621,4.138-1.037t4.219-.625q2.125-.21,4.261-.21t4.26.21q2.126.209,4.219.625t4.138,1.037q2.044.62,4.016,1.437t3.856,1.823q1.883,1.008,3.658,2.192t3.426,2.541q1.65,1.355,3.161,2.865t2.864,3.161q1.356,1.649,2.542,3.425t2.193,3.658q1.006,1.882,1.823,3.855t1.438,4.017q.62,2.044,1.036,4.138t.625,4.219Q357.185,4604.414,357.184,4606.549Z" transform="translate(-1.257 -1640.084)" fill="url(#linear-gradient)"/>
    <g id="profile" transform="translate(291.727 2944.898)">
      <g id="Group_905" data-name="Group 905" transform="translate(7.301)">
        <path id="Path_8830" data-name="Path 8830" d="M13.126,18.252a9.126,9.126,0,1,1,9.126-9.126A9.136,9.136,0,0,1,13.126,18.252Zm0-16.427a7.3,7.3,0,1,0,7.3,7.3A7.308,7.308,0,0,0,13.126,1.825Z" transform="translate(-4)" fill="#fff" stroke="#fff" stroke-width="0.5"/>
      </g>
      <g id="Group_906" data-name="Group 906" transform="translate(0 21.902)">
        <path id="Path_8831" data-name="Path 8831" d="M15.514,28.427H.913A.913.913,0,0,1,0,27.514v-7.3A8.223,8.223,0,0,1,8.213,12H19.165a.913.913,0,1,1,0,1.825H8.213a6.4,6.4,0,0,0-6.388,6.388V26.6H15.514a.913.913,0,1,1,0,1.825Z" transform="translate(0 -12)" fill="#fff" stroke="#fff" stroke-width="0.5"/>
      </g>
      <g id="Group_909" data-name="Group 909" transform="translate(19.782 20.079)">
        <g id="Group_907" data-name="Group 907" transform="translate(6.684 7.299)">
          <path id="Path_8832" data-name="Path 8832" d="M19.063,24.126a4.563,4.563,0,1,1,4.563-4.563A4.569,4.569,0,0,1,19.063,24.126Zm0-7.3A2.738,2.738,0,1,0,21.8,19.563,2.741,2.741,0,0,0,19.063,16.825Z" transform="translate(-14.5 -15)" fill="#fff" stroke="#fff" stroke-width="0.5"/>
        </g>
        <g id="Group_908" data-name="Group 908">
          <path id="Path_8833" data-name="Path 8833" d="M23.539,34.727H20.628a1.819,1.819,0,0,1-1.816-1.645l-.232-2.32A8.571,8.571,0,0,1,17,29.844l-2.132.962a1.816,1.816,0,0,1-2.331-.752l-1.455-2.521a1.821,1.821,0,0,1,.515-2.395l1.878-1.351a6.931,6.931,0,0,1,0-1.851L11.6,20.587a1.821,1.821,0,0,1-.515-2.395l1.455-2.521a1.819,1.819,0,0,1,2.331-.752L17,15.882a8.571,8.571,0,0,1,1.579-.918l.232-2.32A1.819,1.819,0,0,1,20.628,11h2.911a1.819,1.819,0,0,1,1.816,1.645l.232,2.32a8.554,8.554,0,0,1,1.579.918l2.132-.962a1.822,1.822,0,0,1,2.331.752l1.455,2.521a1.821,1.821,0,0,1-.515,2.395l-1.878,1.351a6.93,6.93,0,0,1,0,1.851l1.878,1.351a1.821,1.821,0,0,1,.515,2.395l-1.453,2.519a1.818,1.818,0,0,1-2.331.752l-2.132-.962a8.571,8.571,0,0,1-1.579.918l-.234,2.322a1.819,1.819,0,0,1-1.816,1.643Zm-6.41-6.854a.913.913,0,0,1,.586.214,6.8,6.8,0,0,0,2.031,1.181.913.913,0,0,1,.6.767L20.63,32.9h2.911l.287-2.867a.914.914,0,0,1,.6-.767,6.836,6.836,0,0,0,2.031-1.181.912.912,0,0,1,.96-.131l2.636,1.19L31.5,26.625l-2.333-1.676a.918.918,0,0,1-.367-.9,5.781,5.781,0,0,0,0-2.365.916.916,0,0,1,.367-.9L31.5,19.109,30.05,16.588l-2.636,1.188a.914.914,0,0,1-.962-.131,6.73,6.73,0,0,0-2.031-1.181.914.914,0,0,1-.6-.767l-.287-2.873H20.628l-.287,2.867a.913.913,0,0,1-.6.767,6.836,6.836,0,0,0-2.031,1.181.907.907,0,0,1-.96.131l-2.636-1.19L12.665,19.1,15,20.777a.918.918,0,0,1,.367.9,5.78,5.78,0,0,0,0,2.365.916.916,0,0,1-.367.9l-2.333,1.676,1.455,2.521,2.636-1.188A.953.953,0,0,1,17.129,27.873Z" transform="translate(-10.838 -11.001)" fill="#fff" stroke="#fff" stroke-width="0.5"/>
        </g>
      </g>
    </g>
  </g>
</svg>
