<svg xmlns="http://www.w3.org/2000/svg" xmlns:xlink="http://www.w3.org/1999/xlink" width="54.531" height="69" viewBox="0 0 54.531 69">
  <defs>
    <linearGradient id="linear-gradient" x1="0.5" x2="0.5" y2="1" gradientUnits="objectBoundingBox">
      <stop offset="0" stop-color="#7400b8"/>
      <stop offset="1" stop-color="#48bfe3"/>
    </linearGradient>
  </defs>
  <g id="user_14_" data-name="user (14)" transform="translate(-47.85)">
    <g id="Group_886" data-name="Group 886" transform="translate(47.85)">
      <g id="Group_885" data-name="Group 885" transform="translate(0)">
        <path id="Path_8812" data-name="Path 8812" d="M89.632,220.526a20.873,20.873,0,0,1-3.186,3.239A22.859,22.859,0,0,1,97.959,243.6c0,4.58-10.034,8.167-22.844,8.167s-22.844-3.588-22.844-8.167a22.859,22.859,0,0,1,11.513-19.83,20.879,20.879,0,0,1-3.186-3.239A27.269,27.269,0,0,0,47.85,243.6c0,2.939,1.609,7.035,9.276,9.858a54.032,54.032,0,0,0,17.989,2.731A54.032,54.032,0,0,0,93.1,253.453c7.667-2.823,9.276-6.919,9.276-9.858A27.27,27.27,0,0,0,89.632,220.526Z" transform="translate(-47.85 -187.184)" fill="url(#linear-gradient)"/>
        <path id="Path_8813" data-name="Path 8813" d="M142.795,36.256c8.593,0,15.21-8.306,15.21-18.128S151.384,0,142.795,0s-15.21,8.306-15.21,18.128S134.205,36.256,142.795,36.256Zm0-31.834c5.949,0,10.788,6.149,10.788,13.706s-4.84,13.706-10.788,13.706-10.788-6.149-10.788-13.706S136.846,4.421,142.795,4.421Z" transform="translate(-115.53)" fill="url(#linear-gradient)"/>
      </g>
    </g>
  </g>
</svg>
