<svg xmlns="http://www.w3.org/2000/svg" xmlns:xlink="http://www.w3.org/1999/xlink" width="200" height="199" viewBox="0 0 200 199">
  <defs>
    <linearGradient id="linear-gradient" x1="0.5" x2="0.5" y2="1" gradientUnits="objectBoundingBox">
      <stop offset="0" stop-color="#7400b8"/>
      <stop offset="1" stop-color="#48bfe3"/>
    </linearGradient>
  </defs>
  <g id="Group_1077" data-name="Group 1077" transform="translate(-979 -3289)">
    <g id="Ellipse_79" data-name="Ellipse 79" transform="translate(979 3289)" fill="#323132" stroke="#707070" stroke-width="1" opacity="0.1">
      <ellipse cx="100" cy="99.5" rx="100" ry="99.5" stroke="none"/>
      <ellipse cx="100" cy="99.5" rx="99.5" ry="99" fill="none"/>
    </g>
    <ellipse id="Ellipse_72" data-name="Ellipse 72" cx="70.5" cy="71.5" rx="70.5" ry="71.5" transform="translate(1008 3317)" fill="#323132" opacity="0.15"/>
    <circle id="Ellipse_70" data-name="Ellipse 70" cx="54.5" cy="54.5" r="54.5" transform="translate(1024 3334)" fill="#fff"/>
    <g id="Group_441" data-name="Group 441" transform="translate(1035.325 3345.07)">
      <path id="Path_93" data-name="Path 93" d="M357.184,4606.549q0,2.132-.21,4.26t-.625,4.218q-.416,2.095-1.036,4.138t-1.438,4.015q-.816,1.972-1.823,3.855t-2.193,3.66q-1.188,1.775-2.542,3.425t-2.864,3.161q-1.51,1.509-3.161,2.863a42.571,42.571,0,0,1-3.426,2.541q-1.774,1.189-3.658,2.195t-3.856,1.823q-1.972.817-4.016,1.437t-4.138,1.037q-2.094.417-4.219.625t-4.26.21q-2.137,0-4.261-.21t-4.219-.625q-2.094-.417-4.138-1.037t-4.016-1.437q-1.972-.817-3.856-1.823t-3.658-2.195a42.572,42.572,0,0,1-3.426-2.541q-1.65-1.353-3.161-2.863t-2.864-3.161q-1.354-1.652-2.541-3.425t-2.193-3.66q-1.008-1.884-1.824-3.855t-1.437-4.015q-.62-2.044-1.037-4.138t-.625-4.218q-.209-2.126-.21-4.26t.21-4.261q.209-2.124.625-4.219t1.037-4.138q.62-2.045,1.437-4.017t1.824-3.855q1.006-1.884,2.193-3.658t2.541-3.425q1.354-1.652,2.864-3.161t3.161-2.865q1.65-1.355,3.426-2.541t3.658-2.192q1.883-1.006,3.856-1.823t4.016-1.437q2.044-.621,4.138-1.037t4.219-.625q2.125-.21,4.261-.21t4.26.21q2.126.209,4.219.625t4.138,1.037q2.044.62,4.016,1.437t3.856,1.823q1.883,1.008,3.658,2.192t3.426,2.541q1.65,1.355,3.161,2.865t2.864,3.161q1.356,1.649,2.542,3.425t2.193,3.658q1.006,1.882,1.823,3.855t1.438,4.017q.62,2.044,1.036,4.138t.625,4.219Q357.185,4604.414,357.184,4606.549Z" transform="translate(-270.257 -4563.084)" fill="url(#linear-gradient)"/>
      <g id="ux_2_" data-name="ux (2)" transform="translate(14.674 14.375)">
        <path id="Path_8848" data-name="Path 8848" d="M49.644,9.1h0A29.488,29.488,0,0,0,21.352,1.478,29.18,29.18,0,0,0,1.146,37.694,29.551,29.551,0,0,0,19.854,57.036,29.052,29.052,0,0,0,53.218,45.469c.125-.19.249-.381.368-.57a1.156,1.156,0,0,0-1.958-1.229q-.166.265-.338.525a26.9,26.9,0,0,1-2.835,3.582L44.176,43.5a20.689,20.689,0,0,0,3.139-4.443A20.544,20.544,0,0,0,49.6,31h6.059a26.758,26.758,0,0,1-.7,4.757,1.156,1.156,0,1,0,2.248.541A29.225,29.225,0,0,0,49.644,9.1ZM42.9,14.2a20.677,20.677,0,0,0-4.563-3.159A20.42,20.42,0,0,0,32.92,9.2a20.788,20.788,0,0,0-2.875-.344V2.8A26.479,26.479,0,0,1,47.176,9.925ZM27.733,8.866a20.778,20.778,0,0,0-2.349.277,1.156,1.156,0,1,0,.4,2.276,18.52,18.52,0,0,1,7.555.208,17.777,17.777,0,0,1,5.9,2.675A18.839,18.839,0,0,1,46.617,24.7a17.98,17.98,0,0,1,.649,4.638,18.442,18.442,0,0,1-5.518,13.345A18.656,18.656,0,0,1,17.3,43.6a18.745,18.745,0,0,1-5.908-19.1,18.429,18.429,0,0,1,6.54-9.655A1.156,1.156,0,1,0,16.536,13c-.537.407-1.057.842-1.554,1.3L10.7,10.026a26.471,26.471,0,0,1,17.03-7.217V8.866Zm0,47.3a26.519,26.519,0,0,1-16.657-6.873l4.283-4.284a20.546,20.546,0,0,0,12.375,5.1v6.057ZM9.088,11.68l4.284,4.284A20.556,20.556,0,0,0,8.347,28.69H2.295A26.536,26.536,0,0,1,9.088,11.68ZM8.387,31a20.538,20.538,0,0,0,5.322,12.389l-4.28,4.28A26.51,26.51,0,0,1,2.327,31ZM30.044,50.123a20.56,20.56,0,0,0,12.472-5.015L46.8,49.393a26.528,26.528,0,0,1-16.756,6.784ZM49.639,28.691a20.538,20.538,0,0,0-5.123-12.837L48.8,11.571a26.522,26.522,0,0,1,6.891,17.12H49.639Zm0,0" fill="#fff"/>
        <path id="Path_8849" data-name="Path 8849" d="M174.255,189.847c0-.54-.637-.686-1.07-.686s-1.07.146-1.07.686v9.688a2.414,2.414,0,0,1-1.2,2.363,3.008,3.008,0,0,1-3.015-.32,3.466,3.466,0,0,1-.738-2.636q.007-4.419.014-8.837a1.106,1.106,0,0,0-.094-.551c-.19-.337-.652-.378-1.039-.369s-.833.081-.97.431a.977.977,0,0,0-.045.364q.005,4.447.012,8.893a5.9,5.9,0,0,0,.791,3.609c1.142,1.513,3.512,1.793,5.239,1.405a4.12,4.12,0,0,0,2.317-1.347,4.738,4.738,0,0,0,.87-3.006Zm0,0" transform="translate(-146.332 -167.289)" fill="#fff"/>
        <path id="Path_8850" data-name="Path 8850" d="M264.545,196.408l-3.492,5.974c-.621,1.063,1.344,2.006,1.938.989L265.937,198l2.987,5.369c.588,1.057,2.545.085,1.918-.989l-3.492-5.974,3.391-5.935c.685-1.2-1.336-2.062-1.978-.888l-2.826,5.167-2.785-5.167c-.626-1.161-2.706-.346-2,.888Zm0,0" transform="translate(-231.374 -167.17)" fill="#fff"/>
        <path id="Path_8851" data-name="Path 8851" d="M176.83,89.143a1.156,1.156,0,1,0,.579-1.524A1.176,1.176,0,0,0,176.83,89.143Zm0,0" transform="translate(-156.718 -77.162)" fill="#fff"/>
        <path id="Path_8852" data-name="Path 8852" d="M474.564,342.257a1.156,1.156,0,1,0-2.143.867l.016.038a1.156,1.156,0,0,0,2.143-.867Zm0,0" transform="translate(-418.831 -302.404)" fill="#fff"/>
      </g>
    </g>
  </g>
</svg>
