<svg xmlns="http://www.w3.org/2000/svg" xmlns:xlink="http://www.w3.org/1999/xlink" width="80.604" height="71" viewBox="0 0 80.604 71">
  <defs>
    <linearGradient id="linear-gradient" x1="0.5" x2="0.5" y2="1" gradientUnits="objectBoundingBox">
      <stop offset="0" stop-color="#7400b8"/>
      <stop offset="1" stop-color="#48bfe3"/>
    </linearGradient>
  </defs>
  <g id="videocall" transform="translate(0.5 -30.39)">
    <path id="Path_8822" data-name="Path 8822" d="M0,30.89V84.526H5.637a25.206,25.206,0,0,0-1.843,9.46v6.9H54.181v-6.9a25.207,25.207,0,0,0-1.843-9.46H79.6V30.89ZM4.664,75.2h7.551a25.428,25.428,0,0,0-4.09,4.664H4.664Zm30.12-12.167a5.767,5.767,0,0,1-5.76,5.762h-.072a5.767,5.767,0,0,1-5.76-5.762v-8.2a5.767,5.767,0,0,1,5.76-5.76h.072a5.766,5.766,0,0,1,5.76,5.76ZM49.517,96.226H8.459v-2.24A20.489,20.489,0,0,1,11.4,83.4,20.532,20.532,0,0,1,49.16,90.161a32.4,32.4,0,0,1,.358,6.065ZM74.941,79.862H49.852A25.373,25.373,0,0,0,45.774,75.2H74.941ZM48.547,70.243A10.781,10.781,0,0,1,59.315,59.457h.034A10.787,10.787,0,0,1,70.118,70.243v.291H48.547ZM61.664,47.777v4.7a2.314,2.314,0,0,1-2.31,2.312h-.042A2.314,2.314,0,0,1,57,52.481v-4.7a2.314,2.314,0,0,1,2.312-2.312h.042A2.314,2.314,0,0,1,61.664,47.777ZM74.782,70.534v-.291a15.487,15.487,0,0,0-9.415-14.231,7,7,0,0,0,.961-3.53v-4.7A6.971,6.971,0,0,0,59.354,40.8h-.042a6.988,6.988,0,0,0-6.834,5.572,25.818,25.818,0,0,0-.142,5.074A8.562,8.562,0,0,0,53.3,56.02c-.192.082-.382.168-.57.258a15.671,15.671,0,0,0-8.849,14.257H38.206q-.716-.282-1.45-.519a10.385,10.385,0,0,0,2.692-6.984v-8.2A10.436,10.436,0,0,0,29.024,44.408h-.072A10.436,10.436,0,0,0,18.528,54.832v8.2a10.384,10.384,0,0,0,2.692,6.984q-.732.238-1.45.519H4.664V35.554H74.941v34.98Z" stroke="#fff" stroke-width="1" fill="url(#linear-gradient)"/>
  </g>
</svg>
