<svg xmlns="http://www.w3.org/2000/svg" width="92.966" height="106.666" viewBox="0 0 92.966 106.666">
  <g id="frost" transform="translate(-1.541 0)">
    <path id="Path_8780" data-name="Path 8780" d="M22.333,35.666A13.333,13.333,0,1,1,35.666,22.333,13.349,13.349,0,0,1,22.333,35.666Zm0-22.222a8.889,8.889,0,1,0,8.889,8.889A8.9,8.9,0,0,0,22.333,13.444Z" transform="translate(25.691 31.001)" fill="#fff"/>
    <path id="Path_8781" data-name="Path 8781" d="M13.722,30.666A2.223,2.223,0,0,1,11.5,28.444V6.222a2.222,2.222,0,1,1,4.444,0V28.444A2.223,2.223,0,0,1,13.722,30.666Z" transform="translate(34.302 13.779)" fill="#fff"/>
    <path id="Path_8782" data-name="Path 8782" d="M22.331,18.329a2.241,2.241,0,0,1-1.387-.484L9.834,8.956a2.223,2.223,0,0,1,2.778-3.471l9.72,7.778,9.724-7.778a2.223,2.223,0,0,1,2.778,3.471L23.722,17.844A2.263,2.263,0,0,1,22.331,18.329Z" transform="translate(25.693 17.228)" fill="#fff"/>
    <path id="Path_8783" data-name="Path 8783" d="M22.333,22.223a2.241,2.241,0,0,1-1.387-.484L9.836,12.85a2.225,2.225,0,0,1,0-3.475L20.946.486a2.225,2.225,0,0,1,2.778,0L34.835,9.375a2.229,2.229,0,0,1,0,3.475L23.72,21.739A2.241,2.241,0,0,1,22.333,22.223ZM14.782,11.113l7.551,6.044,7.551-6.044L22.333,5.068Z" transform="translate(25.691 0)" fill="#fff"/>
    <path id="Path_8784" data-name="Path 8784" d="M13.722,40.666A2.223,2.223,0,0,1,11.5,38.444V16.222a2.222,2.222,0,0,1,4.444,0V38.444A2.223,2.223,0,0,1,13.722,40.666Z" transform="translate(34.302 48.222)" fill="#fff"/>
    <path id="Path_8785" data-name="Path 8785" d="M33.446,29.335a2.224,2.224,0,0,1-1.387-.484l-9.724-7.782-9.724,7.778a2.223,2.223,0,1,1-2.778-3.471l11.111-8.889a2.225,2.225,0,0,1,2.778,0l11.111,8.889a2.224,2.224,0,0,1-1.387,3.96Z" transform="translate(25.689 55.109)" fill="#fff"/>
    <path id="Path_8786" data-name="Path 8786" d="M22.333,41.223a2.241,2.241,0,0,1-1.387-.484L9.836,31.85a2.225,2.225,0,0,1,0-3.475l11.111-8.889a2.225,2.225,0,0,1,2.778,0l11.111,8.889a2.229,2.229,0,0,1,0,3.475L23.72,40.739A2.241,2.241,0,0,1,22.333,41.223ZM14.782,30.113l7.551,6.044,7.551-6.044-7.551-6.044Z" transform="translate(25.691 65.442)" fill="#fff"/>
    <path id="Path_8787" data-name="Path 8787" d="M26.471,23.3a2.2,2.2,0,0,1-1.111-.3L6.116,11.9A2.222,2.222,0,1,1,8.338,8.047L27.582,19.158A2.222,2.222,0,0,1,26.471,23.3Z" transform="translate(11.931 26.696)" fill="#fff"/>
    <path id="Path_8788" data-name="Path 8788" d="M6.846,29.77a2.223,2.223,0,0,1-.809-4.293l11.591-4.533L15.761,8.637a2.221,2.221,0,1,1,4.391-.667L22.29,22.037a2.227,2.227,0,0,1-1.387,2.4L7.654,29.619a2.247,2.247,0,0,1-.809.151Z" transform="translate(10.606 20.964)" fill="#fff"/>
    <path id="Path_8789" data-name="Path 8789" d="M5.9,28.274a2.193,2.193,0,0,1-1.111-.3A2.224,2.224,0,0,1,3.7,26.385L1.567,12.318a2.23,2.23,0,0,1,1.387-2.4L16.2,4.736a2.228,2.228,0,0,1,3.009,1.738L21.353,20.54a2.227,2.227,0,0,1-1.387,2.4L6.709,28.122a2.2,2.2,0,0,1-.809.151Zm.329-14.866,1.453,9.56,9.009-3.515L15.233,9.887Z" transform="translate(0.001 15.794)" fill="#fff"/>
    <path id="Path_8790" data-name="Path 8790" d="M35.131,28.3a2.2,2.2,0,0,1-1.111-.3L14.776,16.894A2.222,2.222,0,1,1,17,13.045L36.242,24.156A2.222,2.222,0,0,1,35.131,28.3Z" transform="translate(41.759 43.919)" fill="#fff"/>
    <path id="Path_8791" data-name="Path 8791" d="M19.752,36.274a2.219,2.219,0,0,1-2.191-1.889L15.424,20.319a2.227,2.227,0,0,1,1.387-2.4l13.249-5.178a2.223,2.223,0,0,1,1.613,4.142L20.081,21.412l1.871,12.311a2.217,2.217,0,0,1-1.862,2.529,2.873,2.873,0,0,1-.338.022Z" transform="translate(47.729 43.348)" fill="#fff"/>
    <path id="Path_8792" data-name="Path 8792" d="M22.359,37.774a2.22,2.22,0,0,1-2.2-1.889L18.022,21.818a2.227,2.227,0,0,1,1.387-2.4l13.253-5.178a2.222,2.222,0,0,1,3,1.738L37.8,30.04a2.227,2.227,0,0,1-1.387,2.4L23.168,37.622A2.229,2.229,0,0,1,22.359,37.774Zm.32-14.866,1.458,9.56,9-3.52-1.453-9.56Z" transform="translate(56.678 48.515)" fill="#fff"/>
    <path id="Path_8793" data-name="Path 8793" d="M7.229,28.3a2.222,2.222,0,0,1-1.111-4.147L25.362,13.047A2.222,2.222,0,0,1,27.585,16.9L8.341,28.007a2.2,2.2,0,0,1-1.111.3Z" transform="translate(11.929 43.918)" fill="#fff"/>
    <path id="Path_8794" data-name="Path 8794" d="M17.957,36.279a2.163,2.163,0,0,1-.338-.027,2.219,2.219,0,0,1-1.862-2.529l1.871-12.311L6.038,16.879a2.223,2.223,0,0,1,1.613-4.142L20.9,17.915a2.216,2.216,0,0,1,1.387,2.4L20.148,34.39a2.219,2.219,0,0,1-2.191,1.889Z" transform="translate(10.609 43.343)" fill="#fff"/>
    <path id="Path_8795" data-name="Path 8795" d="M17.012,37.774a2.212,2.212,0,0,1-.809-.151L2.954,32.445a2.216,2.216,0,0,1-1.387-2.4L3.705,15.974a2.222,2.222,0,0,1,3-1.738l13.253,5.178a2.216,2.216,0,0,1,1.387,2.4L19.212,35.885a2.22,2.22,0,0,1-2.2,1.889ZM6.23,28.952l9,3.52,1.458-9.564-9.009-3.52Z" transform="translate(0 48.515)" fill="#fff"/>
    <path id="Path_8796" data-name="Path 8796" d="M15.889,23.307a2.222,2.222,0,0,1-1.111-4.147L34.022,8.049A2.222,2.222,0,1,1,36.245,11.9L17,23.009A2.2,2.2,0,0,1,15.889,23.307Z" transform="translate(41.757 26.694)" fill="#fff"/>
    <path id="Path_8797" data-name="Path 8797" d="M30.869,29.771a2.247,2.247,0,0,1-.809-.151L16.811,24.442a2.216,2.216,0,0,1-1.387-2.4L17.562,7.971a2.246,2.246,0,0,1,2.529-1.862,2.219,2.219,0,0,1,1.862,2.529L20.082,20.948l11.591,4.533a2.22,2.22,0,0,1-.8,4.289Z" transform="translate(47.728 20.963)" fill="#fff"/>
    <path id="Path_8798" data-name="Path 8798" d="M33.471,28.274a2.212,2.212,0,0,1-.809-.151L19.409,22.945a2.216,2.216,0,0,1-1.387-2.4L20.165,6.474a2.222,2.222,0,0,1,3-1.738L36.418,9.914a2.216,2.216,0,0,1,1.387,2.4L35.667,26.385a2.22,2.22,0,0,1-2.2,1.889ZM22.68,19.452l9.009,3.52,1.453-9.56-9-3.52Z" transform="translate(56.677 15.794)" fill="#fff"/>
  </g>
</svg>
