<svg xmlns="http://www.w3.org/2000/svg" xmlns:xlink="http://www.w3.org/1999/xlink" width="69.447" height="69.444" viewBox="0 0 69.447 69.444">
  <defs>
    <linearGradient id="linear-gradient" x1="0.5" x2="0.5" y2="1" gradientUnits="objectBoundingBox">
      <stop offset="0" stop-color="#7400b8"/>
      <stop offset="1" stop-color="#48bfe3"/>
    </linearGradient>
  </defs>
  <g id="customer_1_" data-name="customer (1)" transform="translate(0 -0.013)">
    <g id="Group_993" data-name="Group 993" transform="translate(0 32.017)">
      <g id="Group_992" data-name="Group 992">
        <path id="Path_8936" data-name="Path 8936" d="M67.275,238.215a6.1,6.1,0,0,0-8.4.507l-5.98,6.419a6.115,6.115,0,0,0-5.829-4.294H36.393c-.81,0-1.081-.309-2.487-1.393a14.271,14.271,0,0,0-18.765.045l-3.922,3.453a6.078,6.078,0,0,0-5.595-.071l-4.5,2.249a2.036,2.036,0,0,0-.91,2.73l12.207,24.414a2.036,2.036,0,0,0,2.73.91l4.5-2.25a6.1,6.1,0,0,0,3.372-5.673H47.064a14.309,14.309,0,0,0,11.393-5.7l9.767-13.023A6.087,6.087,0,0,0,67.275,238.215ZM17.831,267.3l-2.679,1.34L4.764,247.861l2.68-1.34a2.033,2.033,0,0,1,2.729.91l8.568,17.136A2.034,2.034,0,0,1,17.831,267.3Zm47.139-23.2L55.2,257.123a10.219,10.219,0,0,1-8.138,4.069H21.6l-7.624-15.249,3.851-3.389a10.2,10.2,0,0,1,13.441,0c2.257,1.987,3.661,2.363,5.123,2.363H47.064a2.034,2.034,0,0,1,0,4.069H36.674a2.034,2.034,0,0,0,0,4.069H48.428a6.12,6.12,0,0,0,4.466-1.944l8.957-9.615a2.034,2.034,0,0,1,3.118,2.6Z" transform="translate(0 -235.959)" fill="url(#linear-gradient)"/>
      </g>
    </g>
    <g id="Group_995" data-name="Group 995" transform="translate(24.55 0.013)">
      <g id="Group_994" data-name="Group 994" transform="translate(0 0)">
        <path id="Path_8937" data-name="Path 8937" d="M199.223,13.9a8.105,8.105,0,0,0,2.251-5.61A8.249,8.249,0,0,0,193.336.013a8.383,8.383,0,0,0-8.273,8.273,7.987,7.987,0,0,0,2.326,5.626A12.411,12.411,0,0,0,180.994,24.7v2.034a2.035,2.035,0,0,0,2.034,2.034h20.48a2.035,2.035,0,0,0,2.034-2.034V24.7A12.4,12.4,0,0,0,199.223,13.9Zm-5.886-9.814a4.194,4.194,0,0,1,4.069,4.2,4.074,4.074,0,0,1-4.069,4.069,4.194,4.194,0,0,1-4.2-4.069A4.315,4.315,0,0,1,193.336,4.082ZM185.063,24.7a8.383,8.383,0,0,1,8.273-8.273,8.216,8.216,0,0,1,8.138,8.273Z" transform="translate(-180.994 -0.013)" fill="url(#linear-gradient)"/>
      </g>
    </g>
  </g>
</svg>
