<svg id="new" xmlns="http://www.w3.org/2000/svg" width="108" height="108" viewBox="0 0 108 108">
  <g id="Group_855" data-name="Group 855">
    <g id="Group_854" data-name="Group 854">
      <path id="Path_8799" data-name="Path 8799" d="M101.867,46.012c-1.667-1.226-3.738-2.756-4.01-3.771-.3-1.108.761-3.55,1.615-5.508,1.46-3.362,2.972-6.842,1.3-9.744-1.7-2.94-5.5-3.367-9.18-3.78-2.1-.235-4.71-.526-5.489-1.31s-1.075-3.39-1.31-5.489c-.413-3.677-.841-7.48-3.78-9.18-2.554-1.484-6.339-.188-9.744,1.3a15.683,15.683,0,0,1-5.513,1.615c-1.014-.268-2.54-2.343-3.771-4.01C59.865,3.259,57.465,0,54,0s-5.865,3.259-7.983,6.128c-1.23,1.667-2.756,3.742-4.193,4.062-1.263,0-3.207-.845-5.09-1.662-3.414-1.484-7.2-2.766-9.739-1.3-2.944,1.7-3.371,5.5-3.785,9.18-.23,2.1-.526,4.705-1.305,5.489s-3.395,1.075-5.489,1.31c-3.681.413-7.49.845-9.185,3.78-1.676,2.9-.164,6.377,1.3,9.744.855,1.958,1.916,4.4,1.62,5.508-.272,1.014-2.348,2.545-4.01,3.771C3.259,48.13,0,50.534,0,54s3.259,5.87,6.132,7.987c1.667,1.226,3.738,2.756,4.01,3.771.3,1.108-.761,3.55-1.615,5.508-1.46,3.362-2.972,6.842-1.3,9.744,1.7,2.94,5.5,3.367,9.18,3.78,2.1.235,4.71.526,5.489,1.31s1.075,3.39,1.31,5.489c.413,3.677.841,7.48,3.78,9.18,2.545,1.479,6.33.188,9.744-1.3a14.558,14.558,0,0,1,5.513-1.615c1.014.268,2.54,2.343,3.771,4.01C48.135,104.741,50.535,108,54,108s5.865-3.259,7.978-6.128c1.23-1.667,2.756-3.742,4.193-4.062,1.268,0,3.212.845,5.09,1.662,3.419,1.489,7.2,2.771,9.739,1.3,2.944-1.7,3.371-5.5,3.785-9.185.23-2.1.526-4.705,1.305-5.489s3.395-1.075,5.489-1.31c3.681-.413,7.49-.845,9.185-3.78,1.681-2.9.169-6.377-1.3-9.744-.855-1.958-1.911-4.4-1.615-5.508.272-1.014,2.348-2.545,4.01-3.771C104.741,59.869,108,57.465,108,54S104.741,48.13,101.867,46.012ZM99.087,58.2c-2.493,1.836-5.071,3.733-5.766,6.334-.718,2.7.587,5.7,1.85,8.6.808,1.859,2.029,4.667,1.54,5.517-.512.887-3.6,1.235-5.644,1.465-3.118.352-6.344.714-8.288,2.658s-2.306,5.17-2.653,8.288c-.23,2.043-.578,5.132-1.47,5.644a1.155,1.155,0,0,1-.526.1c-1.221,0-3.137-.836-4.991-1.639-2.911-1.263-6.1-2.522-8.593-1.845-2.606.695-4.5,3.273-6.344,5.766-1.24,1.681-3.113,4.221-4.2,4.221s-2.968-2.54-4.2-4.221c-1.836-2.489-3.733-5.067-6.339-5.762a6.365,6.365,0,0,0-1.639-.207c-2.24,0-4.639,1.042-6.959,2.057-1.85.8-3.766,1.639-4.991,1.639a1.154,1.154,0,0,1-.526-.1c-.892-.517-1.235-3.6-1.465-5.644-.352-3.118-.714-6.344-2.658-8.288s-5.17-2.306-8.288-2.658c-2.038-.23-5.128-.578-5.639-1.465-.493-.845.733-3.658,1.54-5.517,1.263-2.9,2.568-5.9,1.85-8.6-.7-2.6-3.278-4.5-5.766-6.334C7.237,56.963,4.7,55.089,4.7,54s2.54-2.963,4.221-4.207c2.493-1.836,5.071-3.733,5.766-6.334.718-2.7-.587-5.7-1.85-8.6-.8-1.859-2.029-4.667-1.54-5.517.517-.887,3.6-1.235,5.644-1.46,3.118-.352,6.344-.714,8.288-2.658s2.306-5.17,2.658-8.288c.225-2.043.573-5.128,1.465-5.644a1.155,1.155,0,0,1,.526-.1c1.221,0,3.137.836,4.987,1.644,2.911,1.263,6.09,2.526,8.593,1.845,2.606-.695,4.5-3.273,6.344-5.766C51.038,7.236,52.911,4.7,54,4.7s2.968,2.54,4.207,4.217c1.836,2.489,3.733,5.067,6.339,5.762,2.479.662,5.682-.578,8.593-1.845,1.85-.8,3.766-1.639,4.991-1.639a1.154,1.154,0,0,1,.526.1c.892.517,1.235,3.6,1.465,5.644.352,3.118.714,6.344,2.658,8.288s5.17,2.306,8.288,2.658c2.038.23,5.128.578,5.639,1.465.493.845-.733,3.658-1.54,5.517-1.263,2.9-2.568,5.9-1.85,8.6.7,2.6,3.278,4.5,5.766,6.334C100.764,51.036,103.3,52.91,103.3,54S100.764,56.963,99.087,58.2Z" fill="#fff"/>
    </g>
  </g>
  <g id="Group_857" data-name="Group 857" transform="translate(23.478 42.26)">
    <g id="Group_856" data-name="Group 856">
      <path id="Path_8800" data-name="Path 8800" d="M123.1,192a2.349,2.349,0,0,0-2.348,2.348v11.739l-9.861-13.148a2.349,2.349,0,0,0-4.226,1.409v18.783a2.348,2.348,0,0,0,4.7,0V201.39l9.861,13.148a2.353,2.353,0,0,0,1.878.939,2.256,2.256,0,0,0,.742-.122,2.348,2.348,0,0,0,1.606-2.226V194.346A2.349,2.349,0,0,0,123.1,192Z" transform="translate(-106.666 -191.998)" fill="#fff"/>
    </g>
  </g>
  <g id="Group_859" data-name="Group 859" transform="translate(46.956 42.261)">
    <g id="Group_858" data-name="Group 858">
      <path id="Path_8801" data-name="Path 8801" d="M225.072,210.782h-7.043V196.7h7.043a2.348,2.348,0,1,0,0-4.7h-9.391a2.349,2.349,0,0,0-2.348,2.348V213.13a2.349,2.349,0,0,0,2.348,2.348h9.391a2.348,2.348,0,0,0,0-4.7Z" transform="translate(-213.333 -192)" fill="#fff"/>
    </g>
  </g>
  <g id="Group_861" data-name="Group 861" transform="translate(46.956 51.652)">
    <g id="Group_860" data-name="Group 860">
      <path id="Path_8802" data-name="Path 8802" d="M225.072,234.667h-9.391a2.348,2.348,0,1,0,0,4.7h9.391a2.348,2.348,0,1,0,0-4.7Z" transform="translate(-213.333 -234.667)" fill="#fff"/>
    </g>
  </g>
  <g id="Group_863" data-name="Group 863" transform="translate(65.741 42.259)">
    <g id="Group_862" data-name="Group 862">
      <path id="Path_8803" data-name="Path 8803" d="M320.367,192.063a2.336,2.336,0,0,0-2.846,1.709l-2.737,10.96-2.146-6.438a2.446,2.446,0,0,0-4.456,0l-2.146,6.438-2.737-10.96a2.347,2.347,0,1,0-4.555,1.136l4.7,18.782a2.349,2.349,0,0,0,2.188,1.775,2.235,2.235,0,0,0,2.32-1.6l2.465-7.405,2.465,7.405a2.352,2.352,0,0,0,2.23,1.606.491.491,0,0,0,.085,0,2.343,2.343,0,0,0,2.188-1.775l4.7-18.782A2.343,2.343,0,0,0,320.367,192.063Z" transform="translate(-298.675 -191.991)" fill="#fff"/>
    </g>
  </g>
</svg>
