<svg xmlns="http://www.w3.org/2000/svg" xmlns:xlink="http://www.w3.org/1999/xlink" width="53.333" height="73.564" viewBox="0 0 53.333 73.564">
  <defs>
    <linearGradient id="linear-gradient" x1="0.5" x2="0.5" y2="1" gradientUnits="objectBoundingBox">
      <stop offset="0" stop-color="#7400b8"/>
      <stop offset="1" stop-color="#48bfe3"/>
    </linearGradient>
  </defs>
  <path id="CCPA" d="M105.669,90.535l-.158-.21a1.754,1.754,0,0,0-.842-1l-.053-.053-.158-.368h-.053v-.053l-.263-.421-.158-.579a1.562,1.562,0,0,0-.526-1l-.053-.053a1.111,1.111,0,0,0-.21-.526l-.158-1.158L76.886,54.7l2.631-20.206-.053-1.316-1.158-.21c-.053,0-.21,0-.263-.053l-20.417-3.1-.263-.158L55,29.6l-.263,2.526.526,1a2.288,2.288,0,0,0,.21.368c.053.053.158.158.158.21a.9.9,0,0,1,.053.368l-.158.579a4.981,4.981,0,0,1-.263.947l-.053.158c-.053.053-.053.21-.158.263a1.734,1.734,0,0,0-.421,1.158v.579a.316.316,0,0,0,.053.21c0,.053-.053.053-.053.158-.053.158-.053.263-.158.368l-.053.053c-.053.053-.21.21-.263.21a1.807,1.807,0,0,0-.631.631L52.785,40.7a2.074,2.074,0,0,0-.158,1.368v.158a1.943,1.943,0,0,0,.526,1.947l.158.158.21.368a2.432,2.432,0,0,0,.368.368c.053.158.158.368.21.526.053.053.158.21.21.263a1.114,1.114,0,0,0,.158.368,2.82,2.82,0,0,0,.263.579l.158,1c-.053.21-.21.421-.263.631l-.21.579a3.983,3.983,0,0,0-.053.789l.21,1.526-.474.053-.053,1.052.053.21a2.193,2.193,0,0,0,.421.947,1.476,1.476,0,0,0,.421.631l.158.158a.282.282,0,0,0,.158.21,4.552,4.552,0,0,0,.368.526c.053.158.158.21.158.263a5.458,5.458,0,0,0,.21.526,3.868,3.868,0,0,0,.842,1l.21.21.21.21a2.11,2.11,0,0,0,.158.947,1.58,1.58,0,0,0,0,1.842,1.793,1.793,0,0,0,1.158.737l.631.053c1.421.263,1.842.368,2.315.21a2.383,2.383,0,0,0,.158.842h-.631a1.562,1.562,0,0,0-1.579,1l-.421,1.052.421.368-.053.526a2.842,2.842,0,0,0,0,.947,2.565,2.565,0,0,0,.526,1.158,1.239,1.239,0,0,1,.263.526,2.605,2.605,0,0,0,1.789,1.526l-.421.263-.737,1.526.368.263v.158l.158,2.052.526.21c.053.158.21.21.263.368l.421.421a2.1,2.1,0,0,1,.158.21,1.374,1.374,0,0,0,.526,1.052,1.818,1.818,0,0,0,.368,1.052c.053.158.158.263.21.421a1.2,1.2,0,0,0,.158.579,1.914,1.914,0,0,0,.737.842l.158.053c.053.21.158.368.21.579a3.973,3.973,0,0,0,.579.737v.526a2.033,2.033,0,0,0,.579,1.421,1.349,1.349,0,0,0,.579.421v.053l-.21.421.053.421a.478.478,0,0,0,.158.368,2.562,2.562,0,0,0-.053.631v.053a1.656,1.656,0,0,0-.263,1.052l.053,1.052.789.263a1.573,1.573,0,0,0,1.579,1.052H69.2l.737-.053a2.373,2.373,0,0,1,.579.158,1.376,1.376,0,0,1,.421.158h.053a2.3,2.3,0,0,0,1.316.421,2.015,2.015,0,0,0,1,.263h.158l.21.158a1.147,1.147,0,0,0,.263.21.569.569,0,0,0,.21.263,1.394,1.394,0,0,0,.158.526,1.923,1.923,0,0,0,.368.526l.21.21a1.728,1.728,0,0,0,1.316.789,2.934,2.934,0,0,0,.842.368l.21.263,1.21-.053h0a2.535,2.535,0,0,0,0,.631v.21l.158.842.631.21a1.673,1.673,0,0,0,1.316.631h.579l.158.158.21.21a.959.959,0,0,0,.421.263c.158.053.263.21.526.526a10.605,10.605,0,0,0,.789.789c.053.158.21.263.421.526a1.476,1.476,0,0,1,.421.631,15.705,15.705,0,0,1,0,1.579l.421.21c0,.21-.053.421-.053.631l-.053,1.158.526.368v.579l.21,1.158,1.316.053h8.63l5.157-.053,2.21-.368a2.172,2.172,0,0,0,.368-.789c.053-.053.158-.21.21-.263.053-.158.158-.21.21-.368a1.4,1.4,0,0,0,.053-1.21,1.37,1.37,0,0,0-.21-.789l-.21-.421c-.158-.21-.263-.368-.421-.421l.263-.263-.263-.526c0-.053.053-.158.053-.21l.21-.21c0-.053.053-.053.053-.158a2.1,2.1,0,0,0,.526-.947v-.21l.526-.368-.368-1h0a2.775,2.775,0,0,0,.158-.631l.158-.053.158-.421h0a.052.052,0,0,0,.053-.053,1.4,1.4,0,0,0,.947-.579l.947.053ZM62.783,65.119a2.3,2.3,0,0,1-.421-.526h0a1.1,1.1,0,0,0,.421.526Z" transform="translate(-52.547 -29.6)" fill="url(#linear-gradient)"/>
</svg>
