<svg xmlns="http://www.w3.org/2000/svg" xmlns:xlink="http://www.w3.org/1999/xlink" width="62.771" height="72.087" viewBox="0 0 62.771 72.087">
  <defs>
    <linearGradient id="linear-gradient" x1="0.5" x2="0.5" y2="1" gradientUnits="objectBoundingBox">
      <stop offset="0" stop-color="#7400b8"/>
      <stop offset="1" stop-color="#48bfe3"/>
    </linearGradient>
  </defs>
  <g id="FINMA-1" transform="translate(-36.121 -26.8)" style="isolation: isolate">
    <path id="Path_8914" data-name="Path 8914" d="M54,118.176h0a.827.827,0,0,1-1.029-.539l-16.81-51.9a.794.794,0,0,1,.539-.98h0a.827.827,0,0,1,1.029.539l16.81,51.8A.956.956,0,0,1,54,118.176Z" transform="translate(0 -19.332)" fill="url(#linear-gradient)"/>
    <path id="Path_8915" data-name="Path 8915" d="M62.531,71.546a48.154,48.154,0,0,1,6.42-1.862,38.387,38.387,0,0,1,7.449-.735,53.721,53.721,0,0,0,10.586-.882A31.448,31.448,0,0,0,93.162,66.2a17.673,17.673,0,0,0,8.626-7.106L91.3,26.8a18.188,18.188,0,0,1-8.626,7.106A32.794,32.794,0,0,1,76.5,35.769a53.722,53.722,0,0,1-10.586.882,39.539,39.539,0,0,0-7.449.735,34.145,34.145,0,0,0-6.42,1.862c-4.264,1.617-8.087,3.823-10.243,6.028L52.19,77.623C54.445,75.271,58.267,73.065,62.531,71.546Zm.147-14.6-1.911-6.077c.637-.147,1.372-.343,2.009-.49a45.093,45.093,0,0,1,6.175-.735L66.7,42.581h1.274c2.058,0,4.019-.1,5.832-.245l2.254,7.057c1.666-.147,3.284-.392,4.7-.637,1.127-.245,2.254-.49,3.284-.784l1.911,6.077a32.18,32.18,0,0,1-3.284.784,35.141,35.141,0,0,1-4.7.637l2.254,7.057c-1.862.147-3.774.245-5.832.245H73.117l-2.254-7.057a46.015,46.015,0,0,0-6.175.735c-.637.2-1.372.343-2.009.49" transform="translate(-2.896)" fill="url(#linear-gradient)"/>
  </g>
</svg>
