<svg xmlns="http://www.w3.org/2000/svg" xmlns:xlink="http://www.w3.org/1999/xlink" width="63.549" height="73" viewBox="0 0 63.549 73">
  <defs>
    <linearGradient id="linear-gradient" x1="0.5" x2="0.5" y2="1" gradientUnits="objectBoundingBox">
      <stop offset="0" stop-color="#7400b8"/>
      <stop offset="1" stop-color="#48bfe3"/>
    </linearGradient>
  </defs>
  <g id="FINTRAC" transform="translate(-37.393 -25.9)" style="isolation: isolate">
    <path id="Path_8916" data-name="Path 8916" d="M55.552,116.843h0a.728.728,0,0,1-1.02-.561L37.448,63.7a.753.753,0,0,1,.561-.969h0a.728.728,0,0,1,1.02.561l17.034,52.53A.925.925,0,0,1,55.552,116.843Z" transform="translate(0 -18.013)" fill="url(#linear-gradient)"/>
    <g id="Group_982" data-name="Group 982" transform="translate(40.304 25.9)">
      <g id="Group_981" data-name="Group 981">
        <g id="Group_980" data-name="Group 980">
          <g id="Group_979" data-name="Group 979">
            <g id="Group_978" data-name="Group 978">
              <path id="Path_8917" data-name="Path 8917" d="M67.478,80.942a28.466,28.466,0,0,0-3.519,1.173,30.638,30.638,0,0,0-10.353,6.069L43.1,55.442a30.318,30.318,0,0,1,10.353-6.069c1.173-.408,2.346-.816,3.519-1.173L67.478,80.942" transform="translate(-43.1 -36.827)" fill="url(#linear-gradient)"/>
              <path id="Path_8918" data-name="Path 8918" d="M141.567,58.693a18.332,18.332,0,0,1-8.772,7.242c-.663.255-1.275.51-1.938.714L120.3,33.856c.663-.255,1.428-.51,1.938-.714,5.1-2.193,7.5-5.1,8.772-7.242l10.557,32.793" transform="translate(-80.928 -25.9)" fill="url(#linear-gradient)"/>
              <path id="Path_8919" data-name="Path 8919" d="M91.448,55c-.408,1.173-.663,1.938-1.173,3.315-.714-.255-1.479-.51-2.193-.714.816,1.53,1.53,3.06,2.754,5.508l-.2.255-.255-.153c-.969-.714-1.785-1.428-3.162-2.5v1.479c-.663,0-1.734-.051-3.315,0,.561.816.918,1.479,1.785,2.754l.2.663c-.306.255-.918.51-1.02.663,4.335,2.346,4.335,2.346,6.273,3.57.051.561.2,1.275.255,1.836a27.067,27.067,0,0,1,4.692-.714l.2.2.2.051c.51,1.734.969,3.417,1.479,5.1h.816c-.561-1.734-1.224-3.417-1.785-5.1l.255-.051-.051-.2.2-.051a45.641,45.641,0,0,0,4.845.408c-.306-.51-.663-1.173-.969-1.581,2.448-2.958,2.5-3.009,3.417-5.2-.51-.051-.969-.2-1.53-.255l-.255-.816v-2.8a13.863,13.863,0,0,1-2.448.969h-.306c-.255-.408-.663-.969-.918-1.428a24.348,24.348,0,0,1-1.479,2.8h-.408l-.2-.255-.2-.561c-.2-1.479-.306-2.754-.663-4.947-.51.408-.663.51-1.173.918h-.561A37.007,37.007,0,0,1,91.448,55" transform="translate(-63.092 -40.159)" fill="url(#linear-gradient)"/>
            </g>
          </g>
        </g>
      </g>
    </g>
  </g>
</svg>
