<svg xmlns="http://www.w3.org/2000/svg" xmlns:xlink="http://www.w3.org/1999/xlink" width="58.579" height="68.815" viewBox="0 0 58.579 68.815">
  <defs>
    <linearGradient id="linear-gradient" x1="0.5" x2="0.5" y2="1" gradientUnits="objectBoundingBox">
      <stop offset="0" stop-color="#7400b8"/>
      <stop offset="1" stop-color="#48bfe3"/>
    </linearGradient>
  </defs>
  <g id="delivery-complete" transform="translate(-36.525)">
    <g id="Group_957" data-name="Group 957" transform="translate(73.087 32.983)">
      <path id="Path_8855" data-name="Path 8855" d="M350.687,235.753a1.723,1.723,0,0,0-2.422.271l-8.884,11.127-1.766-2.355a1.723,1.723,0,0,0-2.757,2.068l3.1,4.136a1.724,1.724,0,0,0,1.352.689h.026a1.723,1.723,0,0,0,1.346-.648l10.274-12.867A1.723,1.723,0,0,0,350.687,235.753Z" transform="translate(-329.318 -235.376)" fill="url(#linear-gradient)"/>
      <path id="Path_8856" data-name="Path 8856" d="M317.019,258.9a.35.35,0,0,0-.389.112l-3.447,4.316a.349.349,0,0,0-.077.219V267H301.589V255.483h6.824a.35.35,0,0,0,.274-.132l2.752-3.447a.35.35,0,0,0-.274-.569H300.9a3.462,3.462,0,0,0-3.458,3.458v12.895a3.462,3.462,0,0,0,3.458,3.458H313.8a3.462,3.462,0,0,0,3.458-3.458V259.23A.35.35,0,0,0,317.019,258.9Z" transform="translate(-297.442 -249.1)" fill="url(#linear-gradient)"/>
    </g>
    <g id="Group_958" data-name="Group 958" transform="translate(46.078 51.967)">
      <path id="Path_8857" data-name="Path 8857" d="M118.627,373.937H106.238a1.541,1.541,0,0,1,0-3.083h12.389a1.541,1.541,0,0,1,0,3.083Z" transform="translate(-104.697 -370.854)" fill="url(#linear-gradient)"/>
    </g>
    <path id="Path_8858" data-name="Path 8858" d="M83.306,31.368h3.5a.35.35,0,0,0,.35-.35V15.569A7.382,7.382,0,0,0,79.786,8.2H76.847a5.229,5.229,0,0,0-4.7-2.937H67.1a5.258,5.258,0,1,0-10.516,0H51.538a5.229,5.229,0,0,0-4.7,2.937H43.9a7.382,7.382,0,0,0-7.374,7.374V61.442A7.382,7.382,0,0,0,43.9,68.815H79.786a7.382,7.382,0,0,0,7.374-7.374V59.184a.35.35,0,0,0-.35-.35h-3.5a.35.35,0,0,0-.35.35v2.257a3.174,3.174,0,0,1-3.17,3.17H43.9a3.174,3.174,0,0,1-3.17-3.17V15.569A3.173,3.173,0,0,1,43.9,12.4h2.774a5.229,5.229,0,0,0,4.866,3.316H72.146A5.23,5.23,0,0,0,77.012,12.4h2.774a3.174,3.174,0,0,1,3.17,3.17V31.018A.35.35,0,0,0,83.306,31.368ZM61.842,3.223a2.035,2.035,0,1,1-2.035,2.035A2.037,2.037,0,0,1,61.842,3.223Z" fill="url(#linear-gradient)"/>
    <g id="Group_959" data-name="Group 959" transform="translate(46.078 21.559)">
      <path id="Path_8859" data-name="Path 8859" d="M134.684,153.854H106.238a1.541,1.541,0,0,0,0,3.083h28.446a1.541,1.541,0,1,0,0-3.083Z" transform="translate(-104.697 -153.854)" fill="url(#linear-gradient)"/>
      <path id="Path_8860" data-name="Path 8860" d="M134.684,194.854H106.238a1.541,1.541,0,0,0,0,3.083h28.446a1.541,1.541,0,1,0,0-3.083Z" transform="translate(-104.697 -189.109)" fill="url(#linear-gradient)"/>
    </g>
  </g>
</svg>
