<svg id="fingerprint-scan" xmlns="http://www.w3.org/2000/svg" xmlns:xlink="http://www.w3.org/1999/xlink" width="68.507" height="68.507" viewBox="0 0 68.507 68.507">
  <defs>
    <linearGradient id="linear-gradient" x1="0.5" x2="0.5" y2="1" gradientUnits="objectBoundingBox">
      <stop offset="0" stop-color="#7400b8"/>
      <stop offset="1" stop-color="#48bfe3"/>
    </linearGradient>
  </defs>
  <path id="Path_8888" data-name="Path 8888" d="M242.546,218.468a2.007,2.007,0,0,0,2.007-2.007v-9.7a2.007,2.007,0,1,0-4.014,0v9.7A2.007,2.007,0,0,0,242.546,218.468Z" transform="translate(-208.354 -177.357)" fill="url(#linear-gradient)"/>
  <path id="Path_8889" data-name="Path 8889" d="M155.324,211.136a2.007,2.007,0,0,0-2.007,2.007c0,8.742-6.248,15.854-13.928,15.854s-13.928-7.112-13.928-15.854V202.231a2.007,2.007,0,0,0-4.014,0v10.912c0,10.955,8.049,19.868,17.942,19.868s17.942-8.913,17.942-19.868A2.007,2.007,0,0,0,155.324,211.136Z" transform="translate(-105.198 -173.434)" fill="url(#linear-gradient)"/>
  <path id="Path_8890" data-name="Path 8890" d="M242.546,224.075c5.5,0,9.975-4.907,9.975-10.938V202.225a2.007,2.007,0,0,0-4.014,0v10.912c0,3.818-2.674,6.924-5.961,6.924a2.007,2.007,0,0,0,0,4.014Z" transform="translate(-208.354 -173.428)" fill="url(#linear-gradient)"/>
  <path id="Path_8891" data-name="Path 8891" d="M66.5,17.834H58.165a29.164,29.164,0,0,0-5.576-9.318A24.508,24.508,0,0,0,34.192,0a24.508,24.508,0,0,0-18.4,8.518,29.166,29.166,0,0,0-5.574,9.316H2.007a2.007,2.007,0,0,0,0,4.014H9.039a32.082,32.082,0,0,0-.756,6.95V39.709a30.333,30.333,0,0,0,7.51,20.28,24.508,24.508,0,0,0,18.4,8.518,24.508,24.508,0,0,0,18.4-8.518,30.333,30.333,0,0,0,7.51-20.28V28.793a32.081,32.081,0,0,0-.756-6.945H66.5a2.007,2.007,0,0,0,0-4.014ZM34.192,4.014c8.6,0,16.051,5.639,19.631,13.82H49.146a17.567,17.567,0,0,0-14.955-8.9,2.007,2.007,0,0,0,0,4.014,13.148,13.148,0,0,1,10.051,4.89H14.56C18.14,9.653,25.595,4.014,34.192,4.014Zm21.895,35.7c0,13.666-9.822,24.784-21.895,24.784S12.3,53.375,12.3,39.709V28.8a27.754,27.754,0,0,1,.877-6.95H26.491a11.4,11.4,0,0,0-2.274,6.95V39.709a2.007,2.007,0,0,0,4.014,0V28.8c0-3.818,2.674-6.924,5.961-6.924l12.516-.026A17.573,17.573,0,0,1,48.119,28.8h0a2.007,2.007,0,1,0,4.014,0h0A21.672,21.672,0,0,0,51,21.848h4.209a27.756,27.756,0,0,1,.878,6.946V39.709Z" fill="url(#linear-gradient)"/>
</svg>
